<svg xmlns="http://www.w3.org/2000/svg" viewBox="0 0 48.32 81.34"><defs><style>.cls-1{fill:#878787;stroke:#f9f9f9;stroke-linecap:round;stroke-linejoin:round;stroke-width:0.25px;fill-rule:evenodd;}</style></defs><g id="Layer_2" data-name="Layer 2"><g id="China_-_Provinces" data-name="China - Provinces"><polygon id="Shaanxi" class="cls-1" points="48.18 3.05 48.09 2.99 47.97 2.94 47.84 2.83 47.8 2.71 47.76 2.55 47.69 2.46 47.56 2.54 47.48 2.44 47.28 2.34 47.21 2.24 47.18 2.29 46.76 2.02 46.68 1.93 46.63 1.83 46.65 1.78 46.7 1.69 46.95 1.33 47.09 1.09 47.21 0.91 47.32 0.7 47.37 0.57 47.44 0.3 47.44 0.2 47.41 0.15 47.36 0.13 47.3 0.13 47.25 0.14 47.11 0.23 47.02 0.29 46.98 0.32 46.92 0.34 46.86 0.34 46.8 0.35 46.74 0.33 46.55 0.24 46.49 0.25 46.44 0.27 46.4 0.3 46.33 0.38 46.29 0.45 46.16 0.59 46.12 0.63 45.94 0.75 45.84 0.79 45.56 0.86 45.5 0.89 45.45 0.93 45 1.38 44.8 1.64 44.78 1.69 44.75 1.74 44.72 1.79 44.01 2.75 43.9 2.95 43.83 3.11 43.79 3.24 43.68 3.5 43.65 3.55 43.6 3.6 43.53 3.67 43.41 3.75 43.32 3.77 43.25 3.76 43.21 3.73 43.14 3.69 43 3.56 42.96 3.52 42.76 3.2 42.57 2.79 42.52 2.71 42.42 2.58 42.39 2.54 42.32 2.46 42.27 2.42 42.21 2.39 42.11 2.35 42.05 2.36 41.83 2.48 41.49 2.56 41.41 2.59 41.38 2.63 41.29 2.77 41.23 2.86 41.17 2.91 41.09 2.95 40.92 3 40.81 2.99 40.74 2.97 40.2 2.55 40.1 2.43 40.04 2.33 39.84 1.9 39.79 1.82 39.71 1.76 39.59 1.69 39.36 1.63 39.23 1.6 39.12 1.6 39.04 1.62 38.96 1.65 38.89 1.7 38.85 1.74 38.81 1.78 38.8 1.81 38.79 1.84 38.8 1.92 38.81 1.98 38.84 2.05 39.13 2.53 39.29 2.92 39.35 3.12 39.37 3.21 39.38 3.32 39.36 3.38 39.32 3.42 38.92 3.62 38.21 4.11 37.8 4.3 37.59 4.45 36.6 5.36 36.57 5.4 36.54 5.46 36.52 5.52 36.5 5.58 36.49 5.65 36.46 5.73 36.39 5.81 36.21 5.93 36 6.02 35.39 6.14 35.25 6.21 35.17 6.28 34.84 7.41 34.77 7.54 34.69 7.64 34.49 7.8 34.41 7.87 34.33 7.99 34.27 8.11 34.16 8.49 34.11 8.6 34.02 8.7 33.92 8.73 33.84 8.71 33.76 8.64 33.7 8.61 33.59 8.62 33.39 8.68 33.06 8.88 32.89 9.04 32.79 9.2 32.7 9.56 32.65 9.64 32.57 9.73 32.29 9.82 32.21 9.88 32.16 9.96 32.14 10.11 32.15 10.36 32.13 10.47 31.99 10.6 31.21 11.01 30.98 11.17 30.85 11.3 30.72 11.71 30.64 11.8 30.18 12.22 30 12.41 29.89 12.58 29.79 12.91 29.7 13.09 29.45 13.4 29.39 13.51 29.38 13.62 29.36 13.9 29.34 14.07 29.3 14.24 29.13 14.69 29.11 14.82 29.12 14.96 29.17 15.13 29.26 15.3 29.45 15.57 29.74 15.9 29.8 16 29.83 16.12 29.8 16.28 29.52 17.2 29.41 17.41 29.12 17.86 29.03 17.94 28.94 17.98 28.84 17.94 28.75 17.85 28.57 17.58 28.48 17.33 28.44 17.27 28.36 17.21 28.26 17.18 28.13 17.2 28.04 17.27 27.97 17.35 27.75 17.69 27.69 17.89 27.66 18.08 27.69 19.41 27.68 19.52 27.63 19.66 27.59 19.8 27.57 19.96 27.57 20.3 27.53 20.44 27.45 20.51 27.31 20.55 26.57 20.64 26.11 20.64 25.48 20.56 25.28 20.58 23.91 20.95 23.69 20.96 23.07 20.88 21.44 20.96 21.25 20.92 21.15 20.88 21.11 20.83 21.17 20.5 21.17 20.3 21.11 20.12 21.04 19.98 20.66 19.49 20.52 19.35 20.34 19.25 20.15 19.18 18.62 18.85 18.4 18.74 18.24 18.63 18.28 19.08 18.23 19.25 18.13 19.4 18.13 19.4 17.97 19.51 17.82 19.56 17.54 19.59 17 19.57 16.89 19.61 16.81 19.69 16.76 19.81 16.74 19.94 16.73 20.15 16.7 20.27 16.63 20.36 16.49 20.5 16.38 20.64 15.93 20.95 15.76 21.13 15.39 21.41 15.33 21.53 15.36 21.7 15.43 21.85 15.43 22.07 14.99 23.12 14.88 23.64 14.84 23.9 14.74 24.25 14.72 24.4 14.72 24.45 15.12 24.86 15.33 25.48 15.38 25.73 15.45 25.9 15.47 25.98 15.45 26.1 15.12 26.89 15.05 27.15 15.1 27.35 15.12 27.39 15.14 27.43 15.17 27.55 15.19 27.71 15.2 28.03 15.19 28.18 15.09 28.5 15.14 28.54 15.24 28.58 16.44 28.8 16.82 28.75 16.93 28.75 17 28.77 17.09 28.82 17.19 28.92 17.21 28.98 17.2 29.03 17.13 29.1 17.11 29.14 17.18 29.21 17.33 29.28 17.9 29.45 18.29 29.49 18.56 29.44 18.67 29.48 18.7 29.53 18.74 29.59 18.8 29.64 18.93 29.73 19.08 29.8 19.76 29.98 19.77 29.99 20.16 30.16 20.23 30.21 20.3 30.29 20.32 30.34 20.49 30.74 20.58 30.87 20.68 30.98 20.76 31.03 20.83 31.06 21.08 31.08 21.26 31.12 21.35 31.16 21.39 31.22 21.39 31.27 21.34 31.44 21.33 31.5 21.33 31.57 21.34 31.64 21.38 31.71 21.47 31.81 21.54 31.85 21.61 31.87 21.86 31.9 21.98 31.93 22.29 32.06 22.41 32.09 22.47 32.1 22.53 32.1 22.57 32.08 22.61 32.05 22.72 31.86 22.76 31.82 22.81 31.79 22.9 31.78 22.95 31.8 23 31.83 23.05 31.93 23.09 31.99 23.16 32.06 23.22 32.1 23.29 32.12 23.59 32.17 23.93 32.26 24.03 32.3 24.11 32.34 24.18 32.41 24.25 32.49 24.31 32.58 24.34 32.62 24.41 32.83 24.44 32.88 24.48 32.94 24.54 33.01 24.67 33.13 24.75 33.19 24.82 33.23 24.94 33.26 25.07 33.27 25.2 33.27 25.4 33.24 25.47 33.24 25.59 33.26 25.66 33.3 25.73 33.34 25.8 33.41 25.86 33.45 25.93 33.47 26.21 33.53 26.27 33.56 26.32 33.6 26.36 33.64 26.38 33.68 26.41 33.73 26.59 33.9 26.85 34.1 26.95 34.2 27.02 34.29 27.03 34.35 27.04 34.41 27.03 34.48 27.02 34.54 26.95 34.76 26.9 34.86 26.84 34.95 26.69 35.09 26.57 35.26 26.55 35.31 26.53 35.37 26.52 35.43 26.52 35.5 26.53 35.56 26.57 35.66 26.62 35.75 26.76 35.92 26.85 36.06 26.91 36.18 26.93 36.24 26.95 36.35 26.98 36.6 26.99 36.7 26.96 37.08 26.92 37.34 26.87 37.51 26.8 37.95 26.78 38.01 26.75 38.06 26.69 38.14 26.61 38.21 26.52 38.26 26.35 38.3 26.25 38.34 26.16 38.4 26.13 38.44 25.87 38.76 25.83 38.8 25.75 38.85 25.6 38.93 25.43 39.04 25.36 39.1 25.31 39.15 25.28 39.19 25.25 39.23 25.24 39.28 25.23 39.33 25.25 39.41 25.28 39.49 25.42 39.77 25.48 40 25.5 40.12 25.51 40.18 25.51 40.31 25.4 41.09 25.4 41.15 25.4 41.22 25.42 41.34 25.45 41.45 25.7 42.02 26.18 42.66 26.2 43.38 26.28 43.95 26.3 44.25 26.28 44.33 26.25 44.39 26.11 44.54 25.82 44.98 25.56 45.29 25.49 45.36 25.41 45.43 25.34 45.46 25.25 45.48 24.87 45.51 24.08 45.42 23.86 45.44 23.77 45.46 23.44 45.58 23.37 45.58 23.29 45.57 23.18 45.51 23.01 45.34 22.94 45.3 22.91 45.28 22.84 45.27 22.73 45.26 22.42 45.3 22.28 45.33 22.2 45.36 22.07 45.41 21.72 45.63 21.52 45.71 21.3 45.76 21.25 45.78 21.21 45.81 21.13 45.88 21.08 45.92 20.94 45.98 20.88 45.99 20.82 45.98 20.82 45.96 20.77 45.92 20.74 45.88 20.72 45.84 20.7 45.8 20.66 45.66 20.6 45.59 20.47 45.54 19.96 45.46 19.32 45.09 19 45.01 18.95 45.01 18.88 45.11 18.86 45.13 18.86 45.18 18.87 45.24 18.91 45.33 18.92 45.41 18.93 45.49 18.9 45.59 18.88 45.65 18.85 45.69 18.83 45.72 18.8 45.75 18.7 45.79 18.42 45.86 18.37 45.89 18.35 45.94 18.36 46.01 18.44 46.14 18.64 46.44 19.1 47.46 19.38 47.76 19.65 47.99 19.71 48.07 19.76 48.16 19.78 48.2 19.79 48.25 19.79 48.28 19.78 48.4 19.69 48.5 19.38 48.6 19.04 48.65 18.86 48.73 18.8 48.74 18.68 48.76 17.94 48.71 17.5 48.62 17.38 48.65 17.32 48.69 17.27 48.73 17.14 48.9 17.07 48.97 17.02 48.99 16.98 49.01 16.89 49.02 16.7 48.99 16.28 48.85 16.11 48.84 15.96 48.86 15.88 48.89 15.77 48.94 15.71 48.94 15.62 48.93 15.5 48.88 15.42 48.85 15.33 48.84 15.23 48.87 15.17 48.9 15.12 48.94 15.02 49.13 14.99 49.17 14.94 49.19 14.77 49.22 14.71 49.24 14.67 49.27 14.61 49.35 14.56 49.37 14.49 49.37 14.39 49.31 14.34 49.26 14.25 49.13 14.18 48.99 14.15 48.95 14.05 48.84 13.97 48.77 13.63 48.55 13.55 48.47 13.35 48.11 13.23 47.95 13.16 47.88 13.07 47.82 12.97 47.77 12.35 47.66 12.3 47.64 12.26 47.61 12.22 47.57 12.13 47.45 12.06 47.38 12.01 47.36 11.9 47.34 11.14 47.37 10.89 47.31 10.8 47.29 9.58 47.48 9.23 47.4 9.15 47.41 9.07 47.45 8.96 47.58 8.9 47.66 8.78 47.78 8.46 47.96 8.43 48.08 8.44 48.12 8.49 48.26 8.56 48.35 8.57 48.4 8.57 48.48 8.5 48.73 8.49 48.8 8.5 48.87 8.52 48.97 8.54 49.02 8.95 49.66 8.96 49.72 8.96 49.81 8.94 49.91 8.89 50.1 8.85 50.18 8.8 50.24 8.75 50.28 8.69 50.35 8.63 50.43 8.58 50.53 8.46 50.9 8.43 50.95 8.4 50.99 8.33 51.06 8.24 51.12 7.96 51.26 7.88 51.32 7.81 51.39 7.72 51.52 7.61 51.76 7.55 51.92 7.53 51.97 7.5 52.01 7.43 52.08 7.25 52.19 7.17 52.25 7.1 52.32 7.04 52.4 7.02 52.45 7 52.5 7.03 52.61 7.09 52.75 7.28 53.03 7.37 53.11 7.42 53.14 8.11 53.14 8.33 53.1 8.42 53.1 8.52 53.14 8.62 53.23 8.72 53.35 8.82 53.45 8.94 53.49 9.14 53.52 9.34 53.62 9.49 53.77 9.55 53.94 9.6 54.16 9.72 54.3 9.87 54.41 9.99 54.52 9.97 54.57 9.97 54.66 10.13 55.46 10.12 55.58 10.09 55.69 10.03 55.77 9.95 55.82 9.84 55.84 9.55 55.75 9.38 55.73 9.11 55.6 8.98 55.57 8.8 55.58 8.69 55.6 8.5 55.71 8.64 55.81 8.81 55.84 8.9 55.89 8.97 55.96 9.25 56.79 9.27 56.9 9.26 57.02 9.2 57.12 9.12 57.16 9.05 57.17 8.84 57.12 8.73 57.18 8.64 57.33 8.59 57.68 8.52 57.97 8.15 58.7 7.94 58.98 7.92 59.02 7.91 59.07 7.88 59.16 7.88 59.28 7.89 59.42 7.98 59.59 8.08 59.66 8.17 59.69 8.27 59.69 8.32 59.71 8.36 59.73 8.42 59.78 8.45 59.85 8.44 59.97 8.38 60.04 8.23 60.13 8.18 60.17 8.15 60.26 8.15 60.38 8.22 60.57 8.24 60.76 8.24 60.91 8.23 61.05 8.25 61.17 8.29 61.29 8.38 61.41 8.45 61.48 8.58 61.55 8.73 61.66 8.87 61.81 8.92 61.89 8.97 61.98 9.01 62.08 9.04 62.19 9.04 62.32 9.03 62.44 8.89 62.79 8.49 62.99 8.29 62.94 8.14 62.8 8.09 62.72 8.03 62.51 7.99 62.42 7.92 62.34 7.84 62.28 7.74 62.25 7.63 62.23 7.52 62.25 7.22 62.35 7.11 62.36 7.01 62.33 6.91 62.3 6.78 62.3 6.63 62.36 6.39 62.52 5.76 62.8 5.64 62.79 5.52 62.77 5.33 62.68 5.27 62.62 5.23 62.55 5.17 62.41 5.12 62.33 5.05 62.27 4.95 62.25 4.38 62.27 4.33 62.28 4.27 62.31 4.25 62.4 4.23 62.51 4.2 62.62 4.14 62.73 4.03 62.83 3.93 62.89 3.71 62.97 3.53 63.06 3.29 63.24 3.19 63.29 3.09 63.33 3 63.37 2.93 63.45 2.74 64.1 2.67 64.25 2.53 64.36 2.39 64.39 2.15 64.39 2.09 64.41 2.02 64.46 1.97 64.54 1.94 64.68 1.94 64.76 1.94 64.89 1.96 65.01 1.98 65.06 1.99 65.11 2.01 65.17 2.05 65.27 2.11 65.38 2.21 65.48 3.02 65.99 3.14 66.02 3.39 66.02 3.5 66.04 3.6 66.09 3.66 66.13 3.7 66.18 3.71 66.24 3.69 66.31 3.52 66.62 3.5 66.71 3.47 66.83 3.48 66.93 3.58 67.84 3.58 68.1 3.56 68.19 3.54 68.27 3.48 68.41 3.45 68.51 3.42 68.56 3.38 68.64 3.32 68.71 3.25 68.76 3.15 68.78 3.04 68.76 2.84 68.77 2.66 68.84 2.5 68.94 2.21 69.24 2.1 69.34 1.8 69.47 1.54 69.54 1.31 69.56 0.13 69.34 0.31 69.86 0.57 70.35 0.65 70.7 0.67 70.89 0.71 71.1 0.78 71.23 0.87 71.32 0.97 71.36 1.09 71.37 1.18 71.36 1.25 71.33 1.85 70.89 2.02 70.81 2.17 70.78 2.29 70.79 2.5 70.85 2.62 70.87 2.71 70.85 2.77 70.78 2.87 70.56 2.9 70.43 2.95 70.32 3.02 70.21 3.1 70.12 3.29 69.96 3.48 69.9 4 69.87 4.12 69.85 4.43 69.74 4.66 69.69 5.02 69.68 5.13 69.73 5.19 69.81 5.2 69.93 5.17 70.04 5.13 70.14 4.93 70.49 4.84 70.69 4.81 70.8 4.79 70.92 4.78 71.05 4.79 71.17 4.81 71.27 4.83 71.34 4.86 71.4 4.9 71.48 5.02 71.63 5.3 71.91 5.94 72.34 6.11 72.42 6.25 72.47 6.47 72.48 6.58 72.47 6.7 72.44 6.89 72.35 7.39 72.01 7.49 71.97 7.6 71.95 7.97 71.95 8.08 71.93 8.69 71.7 8.79 71.68 9.4 71.64 9.58 71.6 9.88 71.41 10.31 71.02 10.4 70.99 10.52 70.97 10.68 71 11.16 71.19 11.41 71.23 11.7 71.22 12.18 71.27 12.82 71.21 13.05 71.22 13.17 71.26 13.27 71.32 13.43 71.53 13.53 71.7 13.54 71.82 13.51 72.44 13.48 72.55 13.32 72.95 13.3 73.06 13.31 73.16 13.39 73.25 13.53 73.34 13.96 73.54 14.42 73.85 14.54 73.91 14.68 73.94 14.88 73.93 15 73.9 15.11 73.85 15.26 73.72 15.33 73.65 15.64 73.38 15.7 73.31 15.83 73.19 15.92 73.13 16.01 73.08 16.11 73.05 16.22 73.03 16.34 73.03 16.43 73.06 16.47 73.11 16.49 73.16 16.48 73.22 16.48 73.28 16.47 73.33 16.46 73.36 16.46 73.38 16.46 73.38 16.49 73.62 16.5 73.67 16.5 73.68 16.5 73.69 16.52 73.73 16.55 73.8 16.56 73.83 16.58 73.88 16.6 73.92 16.61 73.97 16.6 74.02 16.59 74.04 16.57 74.08 16.56 74.12 16.56 74.16 16.57 74.19 16.58 74.22 16.58 74.24 16.59 74.25 16.59 74.27 16.58 74.29 16.67 74.32 17.32 74.45 17.55 74.45 17.73 74.43 17.82 74.39 17.95 74.38 18.08 74.4 18.26 74.48 18.44 74.65 18.71 74.94 18.8 75.01 19.21 75.25 19.3 75.33 19.49 75.56 19.8 76.07 19.86 76.15 19.95 76.21 20.32 76.38 20.78 76.76 20.95 76.86 21.04 76.89 21.1 76.88 21.14 76.84 21.16 76.75 21.18 76.52 21.2 76.41 21.25 76.32 21.31 76.25 21.38 76.19 21.55 76.09 21.66 76.04 21.79 76.02 22.09 76.03 22.39 75.94 22.69 76 22.8 75.95 22.93 75.87 23.1 75.73 23.22 75.71 23.33 75.73 23.43 75.79 23.56 75.84 23.69 75.83 24 75.72 24.2 75.7 24.82 75.74 25.01 75.79 25.14 75.85 25.2 75.93 25.39 76.27 25.47 76.37 26.03 76.65 26.25 76.82 26.68 77.21 26.83 77.29 26.97 77.33 27.12 77.37 27.32 77.43 27.42 77.49 27.43 77.5 27.52 77.59 27.64 77.77 27.74 77.87 28.3 78.13 28.58 78.31 28.76 78.39 29.11 78.5 29.98 78.9 30.5 79.25 30.97 79.74 31.09 79.89 31.63 80.84 31.86 81.08 32.05 81.18 32.33 81.22 34.32 80.97 34.49 80.9 34.4 80.82 34.38 80.76 34.38 80.66 34.4 80.58 34.44 80.48 34.56 80.32 34.65 80.18 34.67 80.08 34.66 79.39 34.63 79.04 34.63 78.94 34.65 78.87 34.76 78.7 34.93 78.2 34.96 78.13 35.02 78.05 35.06 77.98 35.1 77.9 35.16 77.73 35.16 77.64 35.15 77.57 35.12 77.53 34.87 77.23 34.79 77.1 34.75 76.88 34.7 76.46 34.68 76.36 34.66 76.32 34.63 76.28 34.59 76.25 34.55 76.22 34.1 76.02 34.06 75.99 34.02 75.95 34 75.9 33.93 75.65 33.91 75.6 33.86 75.51 33.71 75.33 33.65 75.19 33.6 75.01 33.59 74.9 33.59 74.82 33.62 74.78 33.65 74.74 33.7 74.68 34.18 74.36 34.22 74.32 34.25 74.18 34.33 73.11 34.37 72.97 34.42 72.95 34.53 72.93 34.63 72.9 34.68 72.87 34.71 72.84 34.74 72.79 34.78 72.61 34.8 72.55 34.84 72.48 34.88 72.44 34.92 72.42 34.97 72.4 35.03 72.4 35.09 72.41 35.34 72.52 35.39 72.53 35.45 72.54 35.51 72.54 35.62 72.52 35.8 72.42 35.91 72.39 35.96 72.39 36 72.41 36.04 72.44 36.15 72.6 36.19 72.63 36.24 72.66 36.29 72.67 36.35 72.68 36.41 72.68 36.47 72.67 36.56 72.63 36.61 72.61 36.75 72.48 36.8 72.47 36.89 72.47 37.49 72.63 37.64 72.69 37.91 72.87 37.93 72.88 37.95 72.89 38.01 72.9 38.08 72.88 38.15 72.84 38.42 72.63 38.45 72.57 38.46 72.52 38.43 72.47 38.42 72.41 38.42 72.33 38.44 72.28 38.52 72.23 38.61 72.22 38.74 72.25 38.88 72.31 39.04 72.34 39.18 72.32 39.31 72.17 39.34 72.06 39.31 71.96 39.25 71.89 39.17 71.83 39.13 71.73 39.12 71.59 39.18 71.33 39.2 71.2 39.2 71.11 39.12 70.84 39.1 70.8 38.92 70.44 38.89 70.34 38.87 70.3 38.87 70.22 38.77 70.07 38.7 70 38.59 69.93 38.24 69.79 37.93 69.57 37.84 69.52 37.38 69.45 37.27 69.41 37.05 69.27 36.92 69.25 36.8 69.28 36.52 69.45 36.3 69.48 36.08 69.4 35.88 69.26 35.71 69.11 35.76 69.04 35.88 68.88 35.9 68.83 35.94 68.73 36.04 68.24 36.06 68.08 36.06 67.97 36.05 67.92 36.03 67.87 35.86 67.62 35.83 67.58 35.79 67.55 35.75 67.53 35.34 67.37 34.98 67.29 34.72 67.29 34.48 67.32 34.42 67.32 34.3 67.3 34.25 67.28 34 67.11 33.8 67.02 33.63 66.97 33.31 66.94 33.25 66.8 33.26 66.74 33.29 66.67 33.39 66.53 33.84 66.05 33.9 66.01 33.95 65.98 34.01 65.97 34.08 65.98 34.14 65.98 34.42 66.06 34.49 66.07 34.58 66.06 34.69 66.03 34.76 65.99 34.91 65.81 34.98 65.79 35.04 65.78 35.15 65.82 35.35 65.91 35.57 65.97 35.82 66.02 36.85 65.99 37.09 66.04 37.2 66.08 37.56 66.28 38.69 66.29 38.83 66.31 38.88 66.32 38.98 66.37 39.07 66.42 39.15 66.48 39.39 66.73 39.43 66.76 39.5 66.79 39.59 66.82 39.87 66.86 41.53 66.69 41.58 66.68 41.67 66.64 41.75 66.57 41.98 66.31 42.06 66.19 42.11 66.14 42.13 66.1 42.18 66.06 42.24 66.02 42.35 65.97 42.42 65.96 42.49 65.97 42.59 66.02 42.63 66.05 42.67 66.08 42.84 66.38 42.87 66.43 42.89 66.54 42.93 66.77 42.94 66.83 42.97 66.88 43.02 66.93 43.13 66.98 43.2 66.98 43.36 66.94 43.42 66.94 43.47 66.96 43.63 67.09 43.87 67.34 43.92 67.38 43.99 67.42 44.1 67.46 44.17 67.46 44.22 67.44 44.22 67.4 44.2 67.36 44.16 67.33 44.14 67.29 44.11 67.24 44.1 67.19 44.1 67.14 44.12 67.09 44.15 67.06 44.19 67.03 44.38 66.94 44.55 66.83 44.6 66.78 44.62 66.76 44.65 66.73 44.68 66.66 44.73 66.52 44.76 66.47 44.81 66.43 44.88 66.4 45.03 66.37 45.45 66.37 45.52 66.36 45.57 66.33 45.63 66.25 45.66 66.21 45.68 66.16 45.74 66 45.78 65.94 45.79 65.92 45.8 65.92 45.93 65.83 46.08 65.76 46.37 64.94 46.42 64.68 46.4 64.57 46.39 64.51 46.24 64.21 46.21 64.12 46.21 64.04 46.22 63.98 46.24 63.93 46.28 63.84 46.33 63.71 46.37 63.56 46.38 63.48 46.38 63.44 46.38 63.42 46.29 63.24 46.27 63.15 46.2 62.99 46.1 62.58 46.02 62.43 45.91 62.32 45.81 62.24 45.63 62.13 45.27 61.99 45.03 61.82 44.62 61.46 44.55 61.37 44.52 61.25 44.52 61.2 44.52 61.13 44.53 60.93 44.53 60.91 44.32 60.55 44.25 60.45 44.19 60.39 43.68 60.03 43.58 59.99 43.29 59.91 43.13 59.84 42.98 59.74 42.92 59.67 42.88 59.61 42.88 59.56 42.88 59.5 42.9 59.44 42.94 59.35 43.25 58.87 43.29 58.76 43.3 58.71 43.3 58.65 43.29 58.6 43.11 58.22 43.07 58.1 43.04 58.05 43.03 58.03 42.99 58.04 42.91 58.04 42.89 57.99 42.88 57.94 42.88 57.81 42.88 57.74 42.97 57.25 42.99 57.19 43.03 57.09 43.08 56.99 43.1 56.93 43.11 56.86 43.09 56.76 43.04 56.71 42.99 56.68 42.69 56.62 42.63 56.6 42.58 56.57 42.53 56.53 42.44 56.44 42.4 56.41 42.35 56.38 41.9 56.17 41.84 56.13 41.64 55.94 41.58 55.84 41.54 55.76 41.53 55.7 41.52 55.64 41.53 55.57 41.54 55.51 41.55 55.45 41.58 55.4 41.6 55.36 41.67 55.28 41.92 55.11 41.94 55.04 41.94 54.96 41.9 54.79 41.87 54.71 41.83 54.65 41.79 54.61 41.75 54.58 41.71 54.55 41.14 54.38 41.04 54.32 40.84 54.1 40.76 53.99 40.73 53.93 40.66 53.72 40.65 53.63 40.65 53.55 40.66 53.49 40.69 53.39 40.74 53.27 40.77 53.16 40.78 52.92 40.72 52.2 40.72 52.17 40.71 52.17 40.4 52.12 40.17 51.95 40.02 51.69 39.93 51.13 39.89 50.29 39.94 50.05 40.11 49.78 40.19 49.47 40.18 49.15 40.08 48.83 40.16 48.68 40.29 48.16 40.35 47.75 40.51 47.34 40.56 46.98 40.64 46.74 40.71 46.24 40.9 45.83 41.03 45.66 41.4 45.34 41.46 45.26 41.52 45.12 41.57 44.97 41.63 44.84 41.75 44.76 41.83 44.63 42.07 44.13 42.17 44.1 42.3 44.01 42.41 43.89 42.49 43.78 42.54 43.66 42.6 43.45 42.62 43.24 42.59 43.15 42.57 43.06 42.71 42.86 42.96 42.59 43.1 42.15 43.03 41.73 42.73 40.97 42.6 39.56 42.44 39.2 42.35 39.17 42.26 39.19 42.19 39.17 42.16 39.02 42.15 38.91 42.1 38.69 42.08 38.21 41.65 36.54 41.64 36.08 41.68 35.86 41.84 35.49 41.87 35.27 41.85 35.04 41.75 34.62 41.75 34.39 41.9 33.81 41.95 33.36 42.06 32.99 42.09 32.74 42.09 32.57 42.01 32.02 41.95 31.86 41.2 30.93 41.17 30.86 41.2 30.75 41.26 30.75 41.35 30.79 41.44 30.82 41.53 30.7 41.6 30.46 41.59 30.3 41.41 30.39 41.39 30.36 41.37 30.27 41.36 30.18 41.41 30.18 41.26 30.11 41.23 30.11 41.19 30.06 41.09 30.01 41.06 29.96 41.08 29.91 41.14 29.89 41.2 29.9 41.23 29.89 41.33 29.74 41.38 29.64 41.41 29.53 41.38 29.45 41.32 29.39 41.29 29.31 41.35 29.18 41.26 29.06 41.06 28.88 41 28.75 41.22 28.58 41.36 28.26 41.41 27.95 41.32 27.81 41.24 27.77 41.12 27.66 41.03 27.53 41.03 27.42 41.17 27.38 41.33 27.45 41.49 27.5 41.64 27.38 41.47 27.32 41.41 27.32 41.41 27.24 41.65 27.14 41.76 27.07 41.81 26.99 41.84 26.88 41.92 26.75 42.01 26.65 42.07 26.6 42.17 26.54 42.23 26.4 42.33 26.09 42.41 25.98 42.67 25.74 43.22 24.98 43.24 24.92 43.28 24.78 43.3 24.73 43.34 24.71 43.45 24.67 43.48 24.65 43.52 24.56 43.52 24.51 43.52 24.45 43.53 24.36 43.67 24.02 43.67 23.86 43.51 23.8 43.33 23.75 43.22 23.63 43.19 23.45 43.24 23.22 43.38 23.05 43.74 23 43.9 22.89 44.1 22.68 44.16 22.57 44.36 21.91 44.41 21.81 44.48 21.77 44.52 21.71 44.5 21.59 44.42 21.26 44.37 21.16 44.33 21.05 44.33 20.91 44.37 20.87 44.51 20.75 44.57 20.69 44.44 20.48 44 20.25 43.82 20.11 44.14 19.91 44.22 19.77 44.13 19.57 44.02 19.47 43.56 19.23 43.38 19.05 42.84 17.93 42.74 17.8 42.62 17.69 42.48 17.61 42.3 17.58 42.22 17.55 42.21 17.49 42.22 17.39 42.21 17.28 42.21 17.26 42.21 17.07 42.2 17.02 42.16 16.98 42.16 16.95 42.09 16.12 42.17 15.72 42.18 15.54 42.09 15.31 42.19 14.93 42.24 14.88 42.37 14.87 42.49 14.84 42.59 14.77 42.67 14.66 42.67 14.61 42.76 14.02 42.85 13.92 42.97 13.87 43.22 13.85 43.34 13.83 43.44 13.78 43.53 13.71 43.78 13.39 43.82 13.31 43.87 13.28 44.16 13.06 44.24 12.92 44.4 12.54 44.55 12.4 44.9 12.33 45.05 12.21 45.11 12.1 45.16 11.86 45.2 11.73 45.26 11.65 45.38 11.49 45.43 11.38 45.45 11.27 45.46 10.97 45.46 10.89 45.25 10.61 45.23 10.56 45.22 10.46 45.49 9.84 45.58 9.53 45.63 9.43 45.77 9.28 45.81 9.19 45.86 8.85 45.94 8.7 46.03 8.56 46.13 8.37 46.24 7.63 46.32 7.44 46.32 7.3 46.24 7.07 46.06 6.67 46.25 6.36 46.48 6.2 47.04 5.94 47.28 5.67 47.42 5.33 47.62 4.54 48.15 3.34 48.19 3.2 48.18 3.05"/></g></g></svg>