<svg xmlns="http://www.w3.org/2000/svg" viewBox="0 0 54.06 71.29"><defs><style>.cls-1{fill:#878787;stroke:#f9f9f9;stroke-linecap:round;stroke-linejoin:round;stroke-width:0.25px;fill-rule:evenodd;}</style></defs><g id="Layer_2" data-name="Layer 2"><g id="China_-_Provinces" data-name="China - Provinces"><path id="Hebei" class="cls-1" d="M43.71,39.34l-.15.07.12.21-.16.15-.27.28-.15.06-.28-.47-.32,0-.08.08-.08.39v.39l.17.29-.09.09.19.17h.1l.67-.56.46-.78v-.12Zm-12.1-8,.05,0,.06,0,.37-.13,0,0,0,0,0-.05v-.06l0-.07,0-.05,0,0h-.2l-.13,0-.13,0,0,0,0,0,0,0-.1-.13,0,0,0-.11L31.27,30l0-.13v-.08l0-.13.09-.21.36-.55.09-.16L32,28.3l-1.47.3-.49.28-.08,0h-.07l-1.33,0-.29.05-.18.08L28,29.1l-.05.07,0,.13-.09.32v.2l0,.11.07.14.15.22,0,.08,0,.14,0,0,.05,0,.13,0,.05,0,0,0,.06.09.07.07.09.11,0,0,0,0,.11.05.05,0,.08.06,0,0h.07l0-.07.05-.06h0l0,0,0,0,0,.05.1.34v.17l-.05.13-.07.09-.07.12v0l-.2.34,0,.07,0,0v.26h.12l.11,0h0l.08,0,.1.07.23.11.67.19.73.31h.25l.06,0,0,0,0,0,.05-.06,0-.1,0-.14.05-.72,0-.19,0-.12,0-.06,0-.07v-.07l0-.11,0-.06,0-.05,0,0,0-.05v-.13Zm22.3-1.93,0-.07h0v0l-.09-.19,0,0,0-.06-.07-.07-.2-.15-.22-.13-.06-.06,0-.08L53,28.32l0-.1v-.14l.06-.2v-.14l0-.32,0-.22,0-.07,0-.07-.1,0-.1,0-.1,0h-.14l-.2,0-.15,0h-.07l-.05,0,0-.06V26.8l.06-.44V26.3l0-.06,0-.09L52,26l-.14-.26-.09-.21,0-.06,0-.11,0-.13v-.13l0-.14v-.07l0-.06v-.4l0-.22v-.12l0-.1-.05-.1-.13-.18,0-.08v-.14l0-.09-.11-.06h-.19l-.54.14-1.15,0-.21.05-.07,0-.11-.14-.07-.05-.12,0-.15-.09L48.68,23l-.29-.48,0-.14v-.1l.08-.39v-.16l0-.1-.06,0h-.06l-.05,0,0,0-.09.06-.25.31-.05,0,0,0-.22.07-.1,0-.05,0h-.06l0,0-.05,0L47.14,22,45.58,20.3l0-.05,0-.05V20l0-.1,0-.07,0-.06.16-.26.14-.33.07-.38.12-.07h.08l.21.1.13,0h.11l.09,0,.1-.08,0-.05,0-.08v-.26h0l0,0-.14-.08-.13-.05-.15,0-.12-.05L46.2,18V17.8l.08-.16.23-.15.17,0,.13,0h.11l.14,0,.15-.11.18-.24.26-.29.2-.16.23-.14.1-.08.28-.34.15-.29.13-.45.05-.17,0-.22v-.13l0,0-.06,0h-.12l-.31.11-.2,0-2.4-.27-.2-.12-.1-.13v-.09l0-.08,0-.05,0,0h-.09l-.1,0-.2.1-.38.27-.16,0h-.16l-.54-.13H42.42l-.35.08-.12.06-.07.07,0,.06,0,.24h-.09l-.14,0-.08,0-.09-.1-.08-.15-.06-.33,0-.18,0-.39,0-.18-.06-.15-.31-.16,0-.32v-.12l.12-.47V12l0-.1-.07-.08-.12,0h-.22l-.14,0-.11-.08-.1-.17L40.11,11l0-.09L40,10.78l-.12-.19-.13-.29,0-.15,0-.2,0-.22.09-.22.13-.08h.14l.13.05.1.08.09.13.1.16.11.09h.13l.1-.12L41,9.56l.13-.5,0-.21V8.68l-.06-.15L41,8.41l-.21-.2,0-.06V8.1l0-.09.15-.41,0-.14V7.34l0-.09-.08-.12,0,0,0-.08V6.9l0-.21V6.57l0-.12-.08-.13-.12-.09-.18,0-.09,0-.06.06,0,.06,0,.25,0,.07,0,.07L40,6.82l0,0-.05,0-.18,0h-.12l-.11,0-.08-.08V6.75l.05-.16V6.52l0-.09,0-.09-.14-.27,0-.16,0-.16V5.58l0-.27V5.23l0-.06-.1-.07-.55-.22-.15-.1-.12-.13V4.51l0-.12.06-.07,0,0,.19-.08.08-.08,0-.11V3.9l0-.13-.07-.14-.05-.14,0-.12v-.2l0-.12V2.83l0-.08-.05-.06-.26-.18-.31-.28-.6-.72-.14-.3-.09-.11L36.85.91,36.77.83l0-.11V.59l.07-.22V.3l-.06,0h-.12l-.38.21-1,.29-.17.1L35,.91h0L34.66.41l0-.1,0-.11,0-.05,0,0h-.06l-.06.08,0,.07-.06.12-.08.14,0,0,0,0L34,.74,33.9.81,33.83.9l0,0,0,.06-.05.12-.07.38h0l0,.26,0,.09,0,0,0,.05-.05,0L33.4,2l-.09,0-.37,0-.27-.07-.47-.19-.14,0-.75.13h-.14l-.29-.06-.4.16-1.41.76-.15.14-.28.49-.06.17,0,.1v.09l0,.17.08.22.24.45,0,.05.05.1.05.19,0,.21v.2l0,.07-.13.17,0,.08,0,.15v.17l0,0,.05.1.18.23,0,.07v.15l-.12.3-.05.06-.08.06-.26.1-.08,0,0,0,0,0,0,.05-.08.07-.14,0-.15,0-.14.06-.62.4L27,8l-.17,0h-.16l-.16,0-.1-.1-.06-.14-.07-.13-.13-.08H26l-.33.18-.12,0h-.06l0,0-.05,0,0-.06-.09-.34,0-.06,0,0,0,0-.07,0-.06,0-.12,0h-.13l-.14.08-.71.59-.58.74-.21.09-.44,0-.1.06-.08.11-.06.31-.13.22-.13.11-.11,0-.16,0L21.73,9l-.35-.5-.19-.37L21.1,8,21,7.88l-.19,0-.18,0L20.44,8l-.15.08-.4.33L19,8.86l-.88.64-.42.21-1.58.57-.15.12-.07.12,0,.13,0,.16.22.4,0,.16-.05.09H16l-.18-.06-.17,0-.12.05-.07.1,0,.11-.05.1-.09.06h-.12l-.74-.29-.33,0h-.52l-.11,0-1.12,0-.1,0v-.15l0-.07v-.72l0-.25,0-.07V9.92l-.13-.33,0-.07V9.44l0-.11,0-.06,0,0,0,0,.22-.09.05,0,0,0,0,0,0,0v-.1l-.07-.45V8.13l0-.06V8l0-.11-.17-.36,0-.09-.09-.47,0-.11L12,6.37l0-.06V6.23L12,5.84V5.73l0-.14-.05-.11-.34-.34-.15.23-.09.1-.1.07-.1,0-1.31,0-.39.13,0,0-.09.06-.08.08-.35.45-.05.12-.2.73-.08.21-.05.1-.14.18-.12.11L8,7.86l-.21.08-.1,0-.17.13-.44.43L7,8.72l-.2.38-.06.18-.09.49-.14,1.94,0,0,0,.05,0,0-.08.08L6.23,12,6,12.13l-.91.27L5,12.47l-.08.07-.07.11-.06.11-.17.44,0,.09,0,.06-.07.09-.14.13,0,0,0,.05,0,.07v.39l-.09.42v.07l0,.44,0,.09,0,.09.08.14.07.06.07,0,.28,0,0,.05,0,.09,0,.18,0,.48v.07l0,.06,0,.05,0,.05,0,0,0,0-.06,0H4.42l-.16-.08-.06,0H4.08l0,0-.05,0,0,.05,0,.06-.07.25v.27l0,.06,0,.05,0,0H3.62l-.16-.07H3.35v.05l0,.09.24.26.43.33,0,0,.05.07.3.56.13.17.13.12.07.06.14.07,0,0,0,0,0,.06,0,.07.14.4v.06l0,.06v.42l0,.07.06.07.47.3.11.13.21.36v.34l0,.18v.24l0,.11,0,.06,0,.06.28.34.26.24.15.23,0,.12,0,.12v.71l.15.72,0,.22.06.31.07.13.09.06.67.07.41-.06.12,0L9,25.5l.1.06,0,.1v.09l-.07.1L9,25.91l-.35.18-1.36.43-.47.26L6.18,27l-.36.07-.15.08-.12.13-.08.27,0,.59,0,.14,0,.07H5.26l-.09,0-.07-.07,0-.07L5,28l0-.07,0,0,0,0H4.8l0,.06L4.69,28l-.09.22-.06.11,0,.07-.09.06-.06.06,0,.08-.08.18V29l0,.05,0,.07,0,0,.62.38L5,29.6l0,.07.1.27,0,0,.07.08,0,0,.05,0,.24.08.78.12.06,0,0,0,0,0,.11.12.08.07.1,0,.8.18h.07l.25,0h.14l0,0,.05.06L8.2,31l0,.09v.08l0,.49,0,.34-.05.35,0,.22v.23l0,.11,0,.08,0,0,0,.06,0,.09,0,.16,0,.08,0,.06.06,0,.12,0h.06l.06,0,0,0,0,0,0,0,.14.21,0,0,.13.08.17.22,0,.06,0,.08-.05.35-.05.18L9,35.45l-.17.27-.1.21,0,.12v.37l0,.07,0,0-.07.08-.12.12,0,.06-.06.11,0,.1v.7l0,.19,0,.11,0,.08,0,.07,0,.07-.06.09,0,0,0,0,0,0-.1.06-.32.11-.09.06-.07.07-.28.44-.06.08-.1.05-.1,0-.11,0-.13,0-.41,0H6.17l-.12,0-.16,0H5.82l-.09,0-.14-.07-.33-.29-.11-.12-.06-.06H4.94l-.23.1-.19.12-.29.14-.11,0-.23,0h-.1l-.1,0-.08.07-.09.16-.07.17-.1.36-.06.14,0,.1L3,40.45l0,0,0,0,0,.07,0,.09,0,.1V41l0,.13.07.2.09.2.12.19.27.33v.15l-.23.34L2.73,43l-.49.17-.06.12v.27l0,.1-.1.08-.32.08L1.56,44l-.09.14-.06.15-.33.55-.15.31,0,.18.09.59v.28l0,.15-.11.27-.06.23V47l0,.17.07.73,0,.17,0,.1,0,0,0,0,.09,0,1,.33.1.06.17.13.07.07.2.25,0,0,.06,0,.05,0,.27,0,.15.48.08.18.23.36.07.18,0,.11.18.62.06.14.05.09.07.08.22.2.51.89.06.15.27.79.62.55.05.31-.08.73,0,.17,0,.12,0,.08,0,.11-.2.57v0L5,56.58l-.26.32-.22.25-.09.13-.18.41L4,58.08l-.08.17-.1.5L3.73,59l0,.1,0,.08-.1.13-.38.35L2.88,60l-.06.1,0,.09,0,.26,0,.14,0,.26,0,.3.06.2,0,0,0,.06,0,.06,0,.05v1l0,.11,0,.13,0,0-.08,0H2.73l-.41-.14H2.23l-.08,0,0,.05,0,.06v.33l0,.1L2,63.36l-.32.34-.08.06-.05,0-.06,0H1.36l-.24.05L.92,64l-.21.06H.44l-.1,0-.08,0-.08.06,0,.06v.11l0,0,.16.14,0,0,0,0v.07l0,.07-.06.13,0,.09,0,.1,0,.06,0,0,.31.26.09.08,0,.07,0,0,0,0,0,.15,0,0,0,0L1,66l0,0,0,.06v.06l0,0L1,66.26l0,.06,0,.08,0,.15v.11l0,.08.06.08.11.11.1,0,.3.09.1.05.09,0,0,0,.21.22.3.22.09.12.16.29h0l.53.15h.16l.14-.06L3.65,68l.07,0h.06l0,0,.11.12.06,0,.07,0h.07l.11,0h0l.17,0h0l0,0L4.63,68h.12l.13.06.1.09.09.11.08.13.09.1,0,.11.06.16,0,0,0,0,.08.05.14.07.56.19.31.06h.23l0,0,.12-.07.05,0H7l.35.11h.08l.16,0h.09l0,.09.09.1,0,0,.08,0,.14,0,.11,0,.11,0,1.09.76.1,0,.2,0h.42l.29-.12.32-.09H11l.44.11.14,0h.1l.13-.08.05,0,.1,0,.14.08.28.22.19.21.07.11v.08l0,.08v.12l0,0h.06l.19,0H13l.17-.1.07-.07.06-.09.13-.11,0,0,.07-.12,0-.06.07-.25,0,0,0,0L14,70l.1-.12,0,0,.05,0h.06l.07,0,0,0h.14l.25-.06h.08l.11,0,.18.07.09,0,.06.05,0,0,.18.31.11.24,0,.09.09.13,0,0,.05,0,.06,0h.23l.07,0,.07-.06.1-.11.09-.14.15-.14.52-.34,0-.71v-.06l0-.11,0-.06v0l0,0-.07-.06,0,0L16.79,69l-.05-.09,0,0,0,0,0,0,0,0,0,0-.05,0h-.06l-.11,0h-.12l-.05,0,0-.06,0-.09v-.18l0-.18L16,67.86l-.26-.56,0-.2,0,0L15.63,67l0,0,0-.06,0,0v0l0-.08.06-.12.16-.2.07-.11,0-.09,0-.2,0-.1.13-.09,0-.08,0-.11v-.07l.06-.1.14-.16.29-.49.08-.08.12-.07.16-.18.15-.21.14-.32.18-.08.38-.06.69-.27.31-.23.14-.29,0-.05,0-.12,0-.06,0,0,0,0,.05-.05.39-.38.22-.32,0-.07,0-.09,0-.14V61.5l0-.06,0,0,0,0h0l.32-.39.08-.07.15-.14,0-.09.11-.33v-.4l.08-.15.09-.23.05-.26,0-.06,0,0,.29-.22.05-.06.08-.09.08-.17,0-.07v-.4l0-.18v0l0,0,0,0,.13,0,.33-.25h0l.09,0h.3l.19,0,0,0h0l.07,0h.14l.06,0,.28.12h.22l.05,0,.07,0,0,0,.19-.21h0l0,0V57.1l0-.06,0-.06-.05,0-.08-.07,0,0,0,0,0,0,0,0v-.2l0-.09.07-.1.27-.33,0,0,.05-.18,0-.14,0,0,0,0,.13-.09.05-.05,0,0,.11-.28.06-.08.2-.16.17.25.05.15v.28l0,.24,0,.1,0,.09.06.09.07.1.08.13,0,0,0,0,0,0,0,0,.11-.22.06-.07,0,0,.18-.12.08-.06.17-.21.2-.16,0,0,.12-.19,0,0,0,0,.21-.15.11-.12.12-.18.19-.35.09-.23,0,0,0,0,.08-.08.51-.35.05-.05h0l0,0,.13-.48.06-.1,0-.06L28,52.7l.14-.12.09,0,.08,0h.07l.12,0,.13,0,.3,0h.48l.22,0,.14,0,.17.05.2,0,.47-.09h.22l.14,0,.44,0,.28,0H32l.61-.1h.1l.37.06,0,0,.07,0h.22l.08,0,.06,0,.11-.12.06-.09.13-.26,0-.06,0-.06,0-.05.21-.25.05-.1,0-.09,0-.23.07-.17.08-.14.07-.17.3-.35.16-.09h.26l.58-.15.08-.06.06-.05,0-.07.07-.1.3-.31,0-.07,0-.09.09-.15,0-.08V49l0-.08,0,0,0-.05v-.3l0-.09,0-.09.07-.11.06-.06.07,0h.05L37,48l.09-.07-.28-.25-.74-.9-.4-.72-.74-1.48-.12-.3-.19-.09-.84.2-.29.12-1.15.34-.13,0-.06,0-.05,0,0,0-.08-.07,0,0,0,0,0-.1,0,0-.2-.08-.79-.07-.19-.13-.05-.11-.11-.6,0-.08,0-.06-.07,0h-.12l-.73.19H29.3l-.15,0-.08,0-.06,0,0,0,0-.06L28.82,43l-.06-.08-.09-.07-.08,0-.19,0-.29-.1-.17-.11-.12-.13-.13-.18-.1-.18-.09-.22-.11-.37,0-.23,0-.21,0-.39,0-.27,0-.06,0-.11,0,0,0,0,.1-.12,1.5-1,0,0,0,0,0-.06,0-.08v-.2l0-.06v0l0,0,0,0,0,0L29,38.32l-.17-.06,0,0h0l0,0,0,0,0,0,0,0,0,0,0-.06,0-.17v-.27l.15-.75.07-.33v-.12l0,0-.1-.17L28.6,36l0-.11,0-.17v-.1l0-.07-.06-.13-.15-.37,0-.13,0-.1,0-.64V34l.05-.33h-1l-.41-.09h-.2l-.33.15-.05,0,0,.06,0,0,0,0,0,.15-.05.07-.08.05-.29,0-.41.22-.08.05-.06.06v.17l0,0h0l.21.15,0,0,0,0v.19l0,.07-.1.07-.11.06-.2,0-.19,0-.43-.12-.15-.08-.57-.49-.21-.32-.12-.4-.08,0,0,0H23l-.43.15h-.06l-.19,0h-.07l-.45.1h-.14L21.26,34l-.1,0H21.1l-.05,0-.11,0-.16,0h0l0,0-.06.07,0,0h-.09l-.11,0-.15.08H20l-.05,0,0,0-.08.16,0,0,0,0-.05,0-.05,0h-.06l-.06,0-.07-.06-.17-.17-.1-.08-.1-.06L19,34.2l0-.05,0-.08,0-.16,0-.07,0-.06-.08-.07-.07,0-.28-.05h-.13l-.15.06H18l-.13,0-.53-.21-.06,0-.06,0,0,0,0-.05,0-.1L16.9,32h0v-.12l0-.1,0-.06,0,0,.1-.05h.11l.19.05h.12l.13,0,.29-.14,0-.06,0-.08-.12-.11-.31-.22L17.46,31l0-.09v-.08l0-.48v-.12l0,0-.36-.2-.23-.22,0-.07v-.13l0-.05,0-.06.14-.09h.09l.1-.05.08-.07.05-.07.24-.45.05-.06.07-.08.15-.11.27-.14,2-.61.21-.1.08-.08.07-.11.16-.38.09-.16.11-.13.24-.21.07-.14,0-.24-.05-.21L21,25.75,21,25.66l-.06-.05-.14-.08v0l-1.4-2.11,0-.06v-.06l0-.07.05-.05.12-.06.26-.09.8-.39.11,0h.07l.15,0,.68.18h.09l.18,0,.1,0,.08-.05.42-.38.17-.1.06-.05,0,0,.65-1,.16-.16.08,0h.07l0,0,.05,0,.05,0,.15.15,0,0,.06,0h.12l.06,0,.06,0,.06-.06.08-.09,0,0,.05,0,.05,0,.19,0h.27l.27.06h.08l.08,0,.07,0,0-.05,0-.1-.09-.14-.86-1.22-.06-.12v-.1l0-.05.11,0,.3.25.14.05.18,0,.13,0,.07-.07,0-.06.09-.22.05-.1.12-.11.8-.43,0,0v-.28l0-.11.08-.1.08-.06.07,0h.05l.08,0,.06.06,0,.1,0,.54,0,.19v0l.05.11,0,.05.06.09.15.15.26.21.28.34.06.09,0,0,.57.59.24.29.38.4.41.34.83.45.12,0,.13,0,.1,0,.14-.09.41-.07h.08l.2,0,.88.31,1-.08.48.08,0,.12-.42.15-.06.1-.07.12,0,.1-.07.12-.1,0-.34,0-.26,0-.39.1-.19.08-.14.09-.38.39-.07.12,0,.13v.16l0,.07.06.13.12.12.11.1.08,0,0,.05,0,0,0,.09v.14L32,25v.09l0,.24,0,.12,0,.16.12.19.06.09.14.16.36.33.22.12.79.33.88.62.41.33.15.17.1.28.13.17.27.08.3,0,.12,0,.14.06.05.06v.06l-.09.15,0,.08V29l0,.08.15.08,0,.05.05.08.08.1,0,0v.06l0,.08,0,.05,0,0,0,0h-.06L36,29.65h-.12l-.42.07h-.11l-.11,0,0,0-.65-.39-.07,0h-.12l-.05,0-.06.07v.14l.07.15,0,.16v.24l-.11.52v.16l0,.12.14.31,0,.26,0,.36,0,.23,0,0,.09.06.09.06,0,0,0,.07.06.32v.06l0,0,0,0,0,0,.22.09.05,0,0,.06,0,.09,0,.16v.18l0,0,0,.05,0,.06,0,.08,0,.11v.06l0,0,.05,0,.31.1.1,0,0,0,0,0,0,0,.09.14,0,0,0,0h0l.05,0,0,0,0,0,0,0,0-.06,0,0V34l0-.05,0,0,0,0h.12l.06,0,.2.11.06,0H37l.17-.05h.19l.07,0,.08,0,.11.12,0,.08,0,.07v.13l-.11.29v.09l-.16.49v.32l0,.08,0,0,0,.05,0,0,.67.29.06,0,.06.06.1.13,0,.07,0,.07,0,.12v.2l0,.63v.1l0,.22h.3l.43.18.37.32.26.4L40,39l.17.36.24.26.27.11.27,0,.22.11h.15l.14-.12.16-.09.25-.14.5-.37.15-.05.21-.15.14-.09-.08-.16.07-.11.28,0,.25,0,.24-.14.25,0,.32.07.34.06h.39l.18,0,.17-.12.21-.13.15-.35.13-.06,0,.14.11.16,0,.14.19,0,.36-.17h.2l-.11,0,0,.1,0,.11,0,.11-.09.07-.31.22v.08H46l.13-.06.12-.09.45-.44.19-.1.2-.25.19-.2.26-.32.3-.36.47-.66.15-.09.19.06.25-.08.2-.2.14-.3.08-.23-.07-.24-.22-.37-.12,0,0-.46.17-.43-.1-.06-.06,0-.17.35-.11.1,0-.1,0-.1,0-.09,0-.08-.08,0-.2.18V34l.12-.17.18-.1.19,0h.11l0,0,.14-.24.1-.26.22-.81.08-.17.05,0,.1-.13.15-.13.22-.2.15-.18.31-.22.24,0h.3l0-.3,0-.18,0-.15.09-.2.15-.09.15-.06.27,0,.14,0,.34-.24.4,0,.35-.19.2,0,.16-.14.15-.11.33-.14h0Z"/></g></g></svg>