<svg xmlns="http://www.w3.org/2000/svg" viewBox="0 0 114.42 80.24"><defs><style>.cls-1{fill:#878787;stroke:#f9f9f9;stroke-linecap:round;stroke-linejoin:round;stroke-width:0.25px;fill-rule:evenodd;}</style></defs><g id="Layer_2" data-name="Layer 2"><g id="China_-_Provinces" data-name="China - Provinces"><polygon id="Qinghai" class="cls-1" points="114.08 32.79 114.04 32.77 113.96 32.69 113.87 32.59 113.83 32.55 113.8 32.53 113.7 32.49 113.52 32.46 113.47 32.44 113.4 32.39 113.32 32.31 113.07 32.02 112.75 31.88 112.72 31.88 112.53 31.89 112.47 31.88 112.43 31.85 112.38 31.73 112.34 31.57 112.29 31.2 112.2 30.9 112.02 30.07 111.74 29.75 111.61 29.47 111.52 29.14 111.42 28.91 111.3 28.79 111.15 28.69 110.87 28.55 110.69 28.41 110.59 28.25 110.53 28.1 110.53 27.95 110.57 27.82 110.64 27.72 110.73 27.66 110.92 27.6 111.04 27.58 111.17 27.53 111.24 27.44 111.28 27.29 111.28 27.08 111.26 26.97 111.23 26.91 111.13 26.79 110.85 26.54 110.57 26.39 110.5 26.32 110.23 25.88 110.16 25.81 110.12 25.78 110.07 25.76 109.57 25.46 109.48 25.39 109.43 25.34 109.42 25.3 109.59 24.8 109.7 24.24 109.72 23.9 109.92 23.81 110.06 23.72 110.18 23.59 110.26 23.42 110.25 23.27 110.18 23.12 109.91 22.74 109.43 22.29 109.29 22.08 109.14 21.92 108.95 21.82 108.74 21.77 108.5 21.66 107.62 20.84 107.35 20.64 107.14 20.55 106.97 20.54 106.85 20.57 106.75 20.57 106.01 20.08 105.9 19.95 105.84 19.81 105.85 19.66 105.86 19.61 105.87 19.57 106.06 19.25 106.13 19.07 106.08 18.89 106.02 18.75 105.53 18.38 105.4 17.82 105.33 17.26 105.28 17.11 105.2 17.05 105.12 17.08 105.03 17.15 104.36 18.05 104.19 18.24 104.12 18.34 104.04 18.49 103.99 19.12 103.9 19.31 103.76 19.37 103.6 19.32 103.44 19.19 103.32 19.03 103.11 18.66 102.98 18.55 102.6 18.4 99.63 16.43 97.59 14.68 97.17 14.45 96.6 14.29 94.11 13.18 93.83 12.95 93.65 12.08 93.56 11.85 93.43 11.62 93.23 11.39 93.06 11.27 92.95 11.22 92.83 11.21 92.49 11.22 92.23 11.2 91.78 11.04 91.55 10.89 91.37 10.71 91.27 10.53 91.13 10.35 91 10.25 90.85 10.18 90.76 10.1 90.61 9.79 90.49 9.6 89.96 9.13 89.83 9.07 89.72 9.08 89.65 9.13 89.61 9.22 89.54 9.5 89.49 9.86 89.48 10.1 89.5 10.16 89.67 10.53 89.75 10.75 89.81 10.84 89.85 10.88 90.01 10.99 90.06 11.03 90.08 11.08 90.1 11.14 90.08 11.32 90.08 11.38 90.09 11.41 90.1 11.46 90.18 11.68 90.21 11.81 90.21 11.88 90.21 11.95 90.19 12.01 90.16 12.06 90.11 12.1 90.07 12.08 90.01 12.03 89.75 11.63 89.44 11.34 88.79 10.96 88.06 10.7 87.38 10.56 87.1 10.41 85.06 8.81 84.83 8.53 84.76 8.39 84.71 8.27 84.68 8.12 84.65 8.04 84.6 7.95 84.55 7.9 84.13 7.64 83.98 7.49 83.41 6.78 81.22 4.81 81.13 4.66 81.11 4.55 81.13 4.44 81.22 4.27 81.23 4.18 81.18 4.07 81.08 3.96 80.93 3.88 80.73 3.86 80.29 3.9 80.17 3.88 80.07 3.82 79.79 3.41 79.69 3.31 79.57 3.24 79.44 3.2 79.12 3.15 78.97 3.08 78.83 3 78.56 2.89 78.27 2.86 78.2 2.9 78.17 2.95 78.11 3.17 78.05 3.3 77.99 3.42 77.92 3.52 77.84 3.62 77.47 3.95 77.27 4.08 77.05 4.18 76.82 4.2 76.68 4.16 76.54 4.1 76.42 4.08 75.88 4.1 75.73 4.08 75.59 4.01 75.5 3.91 75.32 3.62 75.22 3.52 75.09 3.44 74.95 3.39 74.82 3.37 74.72 3.37 74.61 3.43 74.53 3.54 74.38 3.8 74.34 3.94 74.28 4.18 74.2 4.36 73.62 4.96 72.86 5.61 72.57 5.75 72.17 5.38 69.46 3.82 69.31 3.6 69.27 3.57 66.75 2.05 66.65 2 64.76 1.43 64.3 1.43 63.83 1.51 63.72 1.55 63.66 1.6 63.61 1.65 63.59 1.69 63.56 1.77 63.52 1.98 63.49 2.08 63.44 2.17 63.4 2.22 63.32 2.28 63.3 2.34 63.28 2.41 63.29 2.51 63.47 3.18 63.52 3.47 63.53 3.61 63.53 3.65 63.47 4.24 63.47 4.43 63.46 4.57 63.44 4.7 63.37 4.95 63.36 5.08 63.38 5.21 63.42 5.32 63.43 5.43 63.39 5.83 63.4 5.99 63.45 6.25 63.45 6.37 63.42 6.47 63.39 6.57 63.36 6.67 63.35 6.78 63.37 6.97 63.36 7.02 63.35 7.05 63.32 7.07 63.29 7.08 63.17 7.17 63.12 7.25 63.1 7.34 63.12 7.49 63.18 7.65 63.3 7.88 63.33 7.96 63.35 8.08 63.36 8.16 63.36 8.26 63.26 10.18 63.22 10.38 63.19 10.44 63.15 10.49 63.09 10.53 62.99 10.56 62.87 10.57 62.31 10.51 61.5 10.27 61.29 10.15 61.15 10.05 61.07 9.98 60.89 9.88 59.98 9.57 59.68 9.43 59.5 9.3 59.45 9.19 59.43 9.09 59.43 9.02 59.44 8.98 59.52 8.67 59.51 8.58 59.48 8.5 59.43 8.46 58.9 8.28 58.52 8.1 57.86 7.62 57.74 7.56 57.59 7.53 57.17 7.56 56.97 7.53 56.75 7.45 56.4 7.21 56.27 7.16 56.14 7.16 56.04 7.18 55.93 7.19 55.83 7.16 55.67 7.07 55.59 6.97 55.54 6.85 55.48 6.5 55.43 6.41 55.37 6.35 55.28 6.29 54.31 5.94 54.22 5.88 54.01 5.61 53.44 5.1 53.3 5.01 53.18 4.98 53.02 4.99 52.88 4.97 52.72 4.88 52.59 4.74 52.31 4.38 51.87 3.93 51.81 3.83 51.77 3.74 51.72 3.61 51.67 3.53 51.57 3.46 50.98 3.29 50.82 3.22 50.69 3.12 49.8 2.17 49.52 1.72 49.45 1.67 49.38 1.65 49.28 1.68 48.92 1.83 48.8 1.87 48.66 1.89 47.96 1.86 47.81 1.88 47.3 2.03 47.21 2.04 46.87 1.99 46.67 1.93 46.62 1.9 46.45 1.76 46.3 1.6 46.21 1.54 46.15 1.51 46.09 1.49 45.56 1.41 44.51 1.07 44.32 0.94 44.17 0.78 44.04 0.61 43.95 0.55 43.85 0.49 43.73 0.44 43.08 0.37 42.98 0.35 42.8 0.27 42.45 0.19 39.89 0.16 39.69 0.13 39.41 0.15 38.92 0.29 38.74 0.32 38.29 0.32 38.18 0.34 37.67 0.54 37.58 0.55 37.41 0.53 37.19 0.47 37.13 0.44 36.92 0.41 36.73 0.41 36.53 0.38 36.28 0.29 36.2 0.29 36.1 0.31 35.45 0.6 35.29 0.63 34.56 0.6 34.41 0.63 34.25 0.69 34.04 0.82 33.67 1.15 33.52 1.25 33.44 1.28 32.35 1.59 32.22 1.6 31.7 1.6 31.22 1.48 31.13 1.49 31.02 1.52 30.66 1.7 30.58 1.77 30.5 1.84 30.34 1.98 30.25 2.03 30.05 2.05 29.5 1.98 29.4 1.97 29.24 2 28.45 2.26 25.88 2.82 24.96 2.89 24.73 2.94 24.53 3.03 24.44 3.08 23.73 3.74 22.68 4.26 21.44 4.62 20.65 4.96 18.53 5.49 17.38 5.58 17.17 5.64 16.97 5.72 16.13 6.2 15.73 6.36 15.15 6.37 14.93 6.41 14.26 6.67 13.36 6.85 12.62 6.81 12.38 6.83 11.03 7.13 10.79 7.14 10.45 7.08 10.4 7.08 10.35 7.12 10.31 7.17 10.28 7.26 10.26 7.33 10.24 7.53 10.23 7.6 10.2 7.65 10.16 7.69 10.12 7.72 9.73 7.91 9.48 8.1 9.37 8.22 8.88 8.63 8.32 8.94 8.23 9.01 8.06 9.13 7.55 9.33 7.49 9.34 7.01 9.26 6.88 9.26 6.59 9.31 6.45 9.36 6.31 9.45 6.2 9.56 6.13 9.7 6.15 9.95 6.25 10.27 6.49 10.84 8.55 14.34 8.59 14.46 8.63 14.66 8.65 14.97 8.63 15.19 8.59 15.35 8.31 15.92 8.28 15.99 8.27 16.06 8.27 16.13 8.27 16.24 8.3 16.33 8.33 16.42 8.41 16.54 8.47 16.6 8.53 16.64 9.64 17.14 10.53 17.79 11.87 18.45 12.14 18.7 12.41 19.02 12.74 19.3 12.9 19.38 13.88 19.71 13.94 19.76 14.02 19.84 14.15 20.02 14.24 20.23 14.32 20.44 14.53 21.44 14.63 21.69 15.23 22.79 15.79 23.4 15.86 23.48 15.91 23.59 15.95 23.72 15.97 23.86 15.99 24.1 15.99 24.28 15.97 24.37 15.93 24.46 15.84 24.58 15.76 24.65 15.67 24.69 14.86 24.82 14.61 24.91 13.72 25.41 13.26 25.55 13.11 25.57 12.95 25.57 12.38 25.47 12.34 25.46 11.89 25.59 11.8 25.63 11.64 25.77 11.29 26.25 10.84 26.7 10.75 26.84 10.71 26.95 10.65 27.17 10.62 27.49 10.64 27.98 10.71 28.38 10.72 28.43 10.76 28.53 10.83 28.63 11.24 29.1 11.62 29.44 11.92 29.59 12.06 29.64 12.73 29.73 13.02 29.81 13.13 29.86 13.21 29.91 13.26 29.95 13.31 30.01 13.46 30.46 13.77 31.98 13.96 32.53 14.24 33.18 14.4 33.77 14.41 33.98 14.4 34.15 14.36 34.28 14.29 34.39 14.19 34.46 14.03 34.51 13.65 34.57 13.31 34.68 12.54 35.09 12.37 35.16 12.21 35.19 12.03 35.18 11.82 35.12 10.26 34.13 10.09 34.08 7.32 34.03 6.25 33.89 6.16 33.86 6.08 33.81 6.03 33.75 5.98 33.67 5.69 33.11 5.56 32.94 5.44 32.81 5.24 32.63 5.11 32.55 5.04 32.55 4.98 32.61 4.69 33.85 4.67 34 4.63 34.14 4.55 34.28 4.41 34.4 4.18 34.51 3.97 34.55 3.75 34.55 2.16 34.38 1.45 34.48 0.79 34.68 0.61 34.77 0.39 34.95 0.21 35.16 0.16 35.22 0.15 35.24 0.14 35.27 0.13 35.35 0.14 35.51 0.19 35.72 0.32 36.09 0.44 36.31 0.54 36.46 0.62 36.54 0.77 36.63 1.02 36.76 1.35 36.88 1.79 36.95 2.15 36.97 2.72 36.89 2.85 36.9 2.95 36.92 3.03 36.96 3.09 37.01 3.13 37.1 3.13 37.25 3.09 37.54 3.03 37.77 2.96 37.96 2.58 38.66 2.47 38.91 2.46 39.04 2.46 39.18 2.53 39.55 2.54 39.69 2.49 39.85 2.32 40.07 2.27 40.17 2.27 40.28 2.35 40.4 2.44 40.47 2.56 40.52 2.66 40.59 2.71 40.69 2.7 40.81 2.66 40.89 2.6 40.95 1.67 41.53 1.31 41.68 0.77 41.81 0.68 41.85 0.6 41.91 0.54 41.99 0.51 42.09 0.5 42.2 0.54 42.48 0.55 42.62 0.53 42.76 0.49 42.86 0.45 42.92 0.36 43.01 0.33 43.06 0.29 43.12 0.28 43.19 0.29 43.31 0.42 43.56 0.61 43.83 1.01 44.3 1.17 44.55 1.27 44.74 1.28 44.89 1.28 45.04 1.23 45.44 1.18 45.7 1.18 45.83 1.2 45.93 1.25 46.02 1.37 46.09 1.59 46.15 1.89 46.16 2.56 46.12 2.86 46.15 3 46.2 3.08 46.24 3.25 46.45 3.4 47.06 3.29 47.4 3.08 47.66 2.55 48.14 2.5 48.22 2.48 48.29 2.49 48.38 2.52 48.49 2.56 48.58 2.61 48.66 2.7 48.72 2.79 48.8 2.87 48.92 3.11 50.02 3.16 50.51 3.12 51.18 3.13 51.37 3.15 51.5 3.18 51.55 3.22 51.59 3.26 51.61 3.39 51.64 3.46 51.68 3.52 51.75 3.57 51.89 3.56 52.01 3.52 52.12 3.4 52.29 3.34 52.42 3.15 53.35 3.07 53.62 3.03 53.7 2.82 53.89 2.68 54.07 2.6 54.13 2.5 54.16 2.29 54.16 2.19 54.18 2.1 54.21 2 54.3 1.91 54.44 1.82 54.68 1.81 54.87 1.84 55.04 2 55.32 2.05 55.44 2.11 55.62 2.19 55.79 2.7 56.54 2.86 56.7 2.95 56.75 3.11 56.8 3.19 56.83 3.83 57.41 3.92 57.5 3.96 57.62 3.96 57.78 3.94 57.97 3.96 58.08 4.03 58.16 4.26 58.27 4.38 58.35 4.47 58.49 4.54 58.75 4.57 59.06 4.6 59.22 4.66 59.34 4.71 59.39 4.77 59.43 4.85 59.48 5.18 59.59 5.37 59.63 5.55 59.64 5.68 59.67 6.04 59.86 6.13 59.94 6.21 60.04 6.29 60.24 6.44 60.48 6.53 60.57 6.56 60.62 6.57 60.65 6.56 60.73 6.5 60.94 6.48 61.1 6.5 61.34 6.54 61.5 6.59 61.63 6.91 62.17 7.06 62.38 7.16 62.49 7.29 62.6 7.43 62.7 7.58 62.76 7.88 62.81 8.01 62.81 8.31 62.75 8.43 62.77 8.53 62.83 8.8 63.13 9.75 63.76 10.41 64.09 10.59 64.15 11.09 64.24 11.36 64.25 11.61 64.24 11.78 64.19 11.93 64.1 12.06 63.99 12.38 63.63 12.75 63.28 12.84 63.25 13.43 63.31 13.57 63.3 14.33 63.1 14.41 63.04 14.45 62.97 14.47 62.88 14.48 62.68 14.51 62.59 14.54 62.5 14.58 62.43 14.62 62.38 14.68 62.33 14.75 62.3 14.84 62.28 16.29 62.28 16.37 62.29 16.44 62.32 16.54 62.38 16.59 62.44 16.61 62.48 16.61 62.52 16.6 62.55 16.57 62.59 16.53 62.62 16.48 62.65 16.43 62.67 16.39 62.67 16.36 62.69 16.34 62.73 16.35 62.8 16.42 62.94 17.24 64.24 17.81 64.84 18.27 65.14 18.55 65.27 19.3 65.81 19.43 65.87 19.55 65.89 19.79 65.86 19.92 65.88 20.08 65.96 20.19 66.08 20.29 66.25 20.43 66.41 21.01 66.92 21.25 67.06 21.45 67.15 21.61 67.15 21.73 67.14 21.91 67.1 22.01 67.05 22.1 66.98 22.16 66.91 22.26 66.83 22.37 66.78 22.5 66.76 22.65 66.76 23 66.83 23.18 66.89 23.29 66.95 23.35 67 23.36 67.05 23.34 67.11 23.31 67.18 23.25 67.27 23.22 67.36 23.22 67.48 23.35 68.01 23.41 68.12 23.51 68.18 23.6 68.2 23.71 68.2 23.8 68.18 23.88 68.16 23.95 68.11 24.08 68.02 24.14 68 24.23 68.02 24.31 68.08 24.39 68.11 24.46 68.11 24.52 68.06 24.59 68 24.67 67.95 24.78 67.92 24.88 67.94 25.09 68.05 25.16 68.07 25.22 68.05 25.27 68 25.34 67.96 25.43 67.93 25.56 67.93 25.91 68.06 26.07 68.09 26.25 68.1 26.36 68.1 27.1 68.22 27.75 68.02 28.78 68.34 29.26 68.36 29.42 68.33 29.92 68.19 30.02 68.21 30.09 68.28 30.14 68.46 30.17 68.65 30.24 68.84 30.3 68.98 30.41 69.1 30.49 69.1 30.56 69.06 30.62 69.01 30.73 68.97 31.38 68.93 31.68 68.95 31.87 69.02 32.6 69.52 32.94 69.84 33.08 69.92 33.25 69.95 33.63 69.91 33.75 69.98 33.84 70.11 33.91 70.27 34.03 70.42 34.19 70.47 34.32 70.45 34.53 70.32 34.73 70.15 35.05 69.97 35.45 69.88 36.2 69.89 36.54 69.95 36.77 70.06 37.05 70.49 37.19 70.61 37.4 70.65 37.61 70.61 37.65 70.59 37.68 70.57 37.77 70.53 37.85 70.51 38.03 70.64 38.47 70.8 39.36 70.82 39.56 70.73 39.67 70.66 39.7 70.61 39.72 70.57 39.77 70.51 39.93 70.39 40.17 70.31 41.09 70.2 41.24 70.11 41.32 69.97 41.35 69.8 41.35 69.65 41.38 69.56 41.42 69.47 41.54 69.43 41.62 69.47 41.77 69.66 41.88 69.7 42.01 69.65 42.1 69.57 42.22 69.5 42.66 69.37 42.8 69.31 42.94 69.21 43.2 68.98 43.32 68.9 43.47 68.86 43.59 68.89 43.7 68.96 43.95 69.3 44.06 69.41 44.17 69.49 44.39 69.61 44.49 69.69 44.55 69.8 44.63 70.08 44.68 70.18 44.77 70.25 45.58 70.61 46.11 70.97 46.19 71.04 46.25 71.13 46.29 71.22 46.31 71.32 46.37 72 46.39 72.12 46.41 72.22 46.44 72.26 46.46 72.3 46.56 72.39 46.82 72.52 47.34 72.97 47.48 73.03 47.8 73.1 49 73.14 49.08 73.17 49.15 73.22 49.21 73.32 49.32 73.55 49.4 73.65 49.49 73.73 49.62 73.78 50.03 73.87 50.15 73.95 50.22 74.06 50.25 74.32 50.28 74.42 50.34 74.51 50.39 74.61 50.4 74.71 50.37 74.82 50.28 74.94 50.24 75.03 50.23 75.11 50.27 75.18 50.33 75.24 50.37 75.3 50.38 75.36 50.36 75.42 50.29 75.46 49.98 75.53 49.95 75.55 49.86 75.65 49.81 75.74 49.78 75.86 49.8 75.99 50.05 76.48 50.1 76.65 50.13 77.12 50.17 77.27 50.24 77.41 50.34 77.53 50.65 77.77 50.91 78.03 50.99 78.08 51.08 78.08 51.24 78.05 51.5 77.95 51.8 77.89 52.04 77.88 52.23 77.9 52.91 78.04 53.04 78.13 53.15 78.25 53.25 78.42 53.32 78.51 53.41 78.55 53.52 78.52 53.69 78.42 53.82 78.37 53.95 78.35 54.37 78.44 54.81 78.44 55.45 78.34 55.59 78.34 55.73 78.36 55.87 78.4 56.01 78.49 56.12 78.6 56.19 78.75 56.22 78.93 56.24 79.11 56.26 79.26 56.33 79.4 56.47 79.6 56.52 79.71 56.56 79.85 56.62 79.98 56.7 80.08 56.83 80.11 56.98 80.06 57.14 79.89 57.19 79.78 57.2 79.69 57.16 79.65 57.06 79.56 57.02 79.48 57.02 79.41 57.03 79.28 57.06 79.14 57.11 79 57.15 78.82 57.16 78.67 57.14 78.47 57.08 78.3 57 78.15 56.89 78.03 56.59 77.83 56.45 77.71 56.4 77.54 56.43 77.32 56.63 77.09 56.7 76.97 56.73 76.87 56.75 76.81 56.87 76.7 57.08 76.6 57.55 76.44 57.79 76.47 58 76.62 58.43 77.33 58.68 77.6 58.86 77.74 59.11 77.9 59.27 77.97 59.91 78.13 60.27 78.17 60.56 78.23 60.66 78.24 60.79 78.28 61.18 78.58 61.4 78.69 61.5 78.71 61.62 78.68 61.76 78.58 61.89 78.34 61.9 78.13 61.85 77.94 61.76 77.78 61.59 77.52 61.53 77.39 61.5 77.28 61.53 77.13 61.63 76.97 61.8 76.72 61.84 76.56 61.81 76.43 61.46 76.12 61.38 76.02 61.37 75.93 61.41 75.85 61.54 75.8 61.81 75.83 61.96 75.81 62.38 75.63 62.53 75.6 62.67 75.6 62.78 75.64 62.89 75.64 63.04 75.6 63.46 75.38 63.6 75.33 63.76 75.32 64.3 75.43 64.65 75.45 64.8 75.42 64.94 75.34 65.08 75.2 65.11 74.97 65.15 74.91 65.28 74.87 65.5 74.92 65.62 74.89 65.75 74.8 65.9 74.55 65.93 74.42 65.91 74.35 65.85 74.33 65.79 74.32 65.75 74.31 65.71 74.28 65.68 74.2 65.66 74.08 65.66 73.92 65.74 73.53 65.83 73.25 65.93 73.06 66.05 72.93 66.25 72.92 66.42 72.96 66.63 72.97 66.77 72.92 66.87 72.77 66.86 72.68 66.75 72.52 66.75 72.41 66.91 72.05 66.93 71.88 66.91 71.74 66.83 71.67 66.72 71.62 66.55 71.59 66.43 71.55 66.34 71.47 66.34 71.36 66.41 71.23 66.52 71.07 66.58 70.93 66.61 70.8 66.61 70.69 66.63 70.6 66.68 70.59 66.77 70.57 66.97 70.57 67.81 70.76 68.32 70.76 68.44 70.79 68.55 70.86 68.74 71.07 68.82 71.14 68.9 71.16 69 71.13 69.08 71.05 69.13 70.92 69.16 70.8 69.2 70.71 69.28 70.65 69.43 70.61 69.44 70.6 69.45 70.59 69.5 70.51 69.59 70.24 69.61 70.17 69.18 70.01 68.81 69.73 68.79 69.69 68.7 69.47 68.67 69.4 68.6 69.38 68.42 69.4 68.35 69.37 68.3 69.32 67.52 68.85 67.36 68.68 67.31 68.65 67.22 68.62 67.19 68.55 67.19 68.46 67.17 68.38 66.89 68.01 66.83 67.84 66.77 67.02 66.72 66.84 66.64 66.67 66.65 66.63 66.66 66.57 66.75 66.33 66.86 66.18 66.97 66.06 67.08 65.99 67.54 65.81 67.65 65.74 67.75 65.65 67.8 65.56 67.82 65.49 67.84 65.38 67.84 65.19 67.81 65.03 67.77 64.91 67.64 64.6 67.6 64.44 67.6 64.32 67.63 64.12 67.7 63.9 67.76 63.77 67.81 63.7 68.43 63.01 68.53 62.84 68.69 62.5 68.77 62.36 68.89 62.27 69.04 62.22 69.2 62.2 69.35 62.17 69.49 62.08 69.63 61.96 69.74 61.83 69.78 61.75 69.79 61.68 69.75 61.63 69.68 61.59 69.59 61.55 69.14 61.45 69.03 61.38 68.94 61.31 68.88 61.25 68.82 61.19 68.74 61.16 68.47 61.18 68.31 61.17 68.13 61.11 67.98 61.02 67.88 60.94 67.81 60.84 67.78 60.77 67.74 60.66 67.66 60.18 67.61 60.02 67.53 59.92 67.42 59.87 67.2 59.84 67.13 59.81 67.05 59.74 66.88 59.53 66.85 59.43 66.84 59.32 66.88 59.17 66.93 58.87 66.92 58.27 66.89 58.05 66.83 57.85 66.69 57.52 66.67 57.38 66.69 57.25 66.74 57.11 66.75 57.01 66.82 56.93 67.01 56.88 67.38 56.81 68.73 56.32 68.84 56.23 68.89 56.05 68.89 55.9 68.91 55.75 68.95 55.66 68.97 55.63 68.99 55.61 69.13 55.58 69.44 55.57 69.5 55.7 69.66 55.89 69.74 56.02 69.8 56.16 69.81 56.31 69.82 56.75 69.83 56.88 69.86 56.98 69.91 57.04 69.98 57.05 70.48 56.99 70.95 56.81 71.58 56.44 71.81 56.2 71.97 56.1 72.03 56.08 72.21 56.03 72.29 56.03 73.78 56.23 73.91 56.29 74.11 56.46 74.2 56.62 74.25 56.74 74.25 56.86 74.25 56.95 74.27 57.05 74.31 57.11 74.42 57.16 74.53 57.18 74.71 57.15 75.23 57 75.33 57 75.45 57.02 75.6 57.08 75.72 57.15 75.84 57.23 76.86 58.21 77.42 58.88 77.48 58.99 77.5 59.07 77.48 59.15 77.44 59.2 77.38 59.24 77.32 59.29 77.27 59.38 77.27 59.49 77.31 59.57 77.38 59.63 77.5 59.69 77.56 59.75 77.62 59.85 77.78 60.34 77.83 60.44 77.9 60.53 78.07 60.64 78.12 60.68 78.17 60.75 78.29 61.03 78.31 61.14 78.32 61.3 78.36 61.6 78.42 61.87 78.51 62.08 78.53 62.15 78.48 62.62 78.49 62.74 78.55 62.84 78.75 63.11 78.82 63.22 79.02 63.68 79.15 63.9 79.31 64.05 79.61 64.25 80.75 64.77 81.11 64.86 81.23 64.92 82.07 65.47 82.28 65.65 82.37 65.86 82.44 66.08 82.64 66.55 82.71 66.67 82.82 66.76 82.96 66.82 83.15 66.84 83.32 66.84 83.44 66.86 83.6 67.02 83.72 67.11 83.97 67.19 84.66 67.28 84.79 67.33 84.95 67.41 85.28 67.67 85.42 67.74 85.73 67.86 85.9 67.94 86.25 68.18 86.38 68.2 86.44 68.17 86.51 68.05 86.79 67.16 86.81 67.03 86.81 66.9 86.78 66.65 86.8 66.52 86.84 66.42 86.92 66.34 87.02 66.29 87.25 66.24 87.36 66.17 87.45 66.07 87.5 65.94 87.53 65.82 87.55 65.52 87.58 65.43 87.61 65.36 87.66 65.36 87.74 65.4 87.89 65.61 87.99 65.81 88.1 65.96 88.25 66.11 88.37 66.2 88.44 66.23 88.5 66.25 88.55 66.25 88.88 66.17 89.04 66.2 89.17 66.28 89.48 66.78 89.93 67.16 90 67.25 90.03 67.35 90.11 67.81 90.12 67.95 90.1 68.12 90.03 68.4 89.98 68.5 89.84 68.74 89.8 68.83 89.78 68.91 89.83 69.04 89.97 69.14 90.3 69.25 90.53 69.27 90.65 69.25 90.71 69.16 90.74 69.04 90.8 68.63 90.86 68.46 90.92 68.37 91.01 68.31 91.15 68.27 91.39 68.24 91.69 68.25 91.81 68.23 91.93 68.17 92.08 68.06 92.13 68.04 92.49 68.36 92.59 68.48 92.63 68.57 92.88 68.79 92.96 68.93 92.99 69.06 93.01 69.19 93.05 69.33 93.11 69.41 93.19 69.47 93.25 69.53 93.28 69.63 93.33 69.75 93.44 69.85 93.48 69.92 93.49 69.98 93.43 70.13 93.39 70.19 93.35 70.24 93.31 70.27 92.95 70.52 92.83 70.62 92.8 70.67 92.75 70.75 92.71 70.86 92.69 70.95 92.71 71.05 92.87 71.27 93.24 71.56 93.35 71.42 93.73 71.21 93.79 71.17 93.84 71.09 94 70.59 94.11 70.35 94.13 70.23 94.13 70.2 94.13 70.19 94.15 70.05 94.16 69.81 94.18 69.67 94.22 69.56 94.3 69.44 94.41 69.33 94.48 69.2 94.5 69.09 94.44 68.92 94.42 68.86 94.44 68.79 94.53 68.76 94.63 68.77 95.03 68.91 95.79 68.99 95.88 69.01 96.05 69.08 96.14 69.13 96.23 69.21 96.29 69.27 96.35 69.31 96.43 69.35 96.51 69.36 96.58 69.34 96.67 69.3 96.77 69.27 97.03 69.23 97.14 69.2 97.24 69.14 97.59 68.86 97.72 68.81 97.82 68.81 97.89 68.83 97.98 68.89 98.11 68.94 98.17 68.95 98.25 68.94 98.36 68.92 98.46 68.87 98.61 68.74 98.75 68.53 99 68.05 99.16 67.56 99.16 67.45 99.15 67.21 99.12 67.06 99.07 66.94 99 66.85 98.89 66.75 98.44 66.52 98.39 66.47 98.34 66.4 98.28 66.25 98.24 66.1 98.22 65.92 98.22 65.62 98.25 65.41 98.3 65.18 98.53 64.5 98.55 64.36 98.61 64.25 98.72 64.12 99.02 63.94 99.23 63.85 99.66 63.72 99.89 63.62 100.01 63.63 100.12 63.69 100.21 63.8 100.31 63.86 100.42 63.81 100.5 63.64 100.51 63.5 100.54 63.4 100.61 63.33 100.76 63.29 100.91 63.29 101.06 63.33 101.2 63.4 101.57 63.69 101.86 63.99 102.14 64.35 102.29 64.47 102.44 64.48 102.57 64.37 103 63.51 103.18 63.24 103.25 63.11 103.27 62.97 103.22 62.8 103.13 62.7 102.86 62.56 102.75 62.44 102.71 62.31 102.72 62.15 102.78 61.82 102.87 61.6 102.97 61.45 103.14 61.3 103.45 61.14 103.6 60.94 103.7 60.35 103.5 60.35 103.44 60.37 103.38 60.4 103.32 60.45 103.24 60.55 103.19 60.58 103.11 60.6 102.54 60.6 102.4 60.58 102.32 60.53 102.17 59.85 102.01 59.34 101.91 59.13 101.76 58.88 101.58 58.71 101.5 58.61 101.44 58.59 101.33 58.59 101.24 58.64 101.06 58.77 100.99 58.8 100.92 58.84 100.9 58.86 100.68 59.1 100.6 59.15 100.53 59.19 100.44 59.22 100.33 59.25 100.1 59.27 99.86 59.25 99.62 59.17 99.22 58.96 99.09 58.9 98.97 58.9 98.89 58.94 98.71 59.09 98.6 59.1 98.52 59 98.5 58.74 98.56 58.29 98.56 58.08 98.53 57.87 98.47 57.58 98.33 57.26 98.26 57.13 98.11 57.02 98.03 57.01 97.8 57.02 97.71 56.99 97.54 56.87 97.46 56.86 97.44 56.86 97.38 56.84 97.29 56.83 97.25 56.82 96.96 56.57 96.73 56.33 96.55 55.98 96.27 55.33 95.92 54.75 95.42 54.06 95.35 53.86 95.33 53.69 95.34 53.54 95.51 52.98 95.55 52.82 95.62 52.65 95.73 52.49 96.11 52.19 96.33 51.89 96.63 51.72 96.85 51.8 97.47 52.2 97.68 52.3 97.88 52.35 98.49 52.4 98.66 52.46 98.81 52.53 98.93 52.58 99.07 52.6 99.14 52.59 99.21 52.59 99.32 52.59 99.41 52.62 99.52 52.76 99.58 52.79 99.69 52.82 99.76 52.88 99.82 52.95 99.89 53.01 99.98 53.03 100.24 53.07 100.75 53.26 101.06 53.3 101.14 53.34 101.21 53.39 101.27 53.42 101.34 53.42 101.51 53.41 101.62 53.42 101.95 53.52 102.31 53.7 102.33 53.83 102.39 53.89 102.47 53.95 102.54 54.04 102.51 54.16 102.6 54.25 102.89 54.39 103.11 54.45 103.15 54.5 103.17 54.56 103.2 54.58 103.29 54.53 103.36 54.73 103.55 54.89 103.72 54.94 103.78 54.88 103.91 54.76 104.08 54.63 104.17 54.54 104.29 54.39 104.35 54.29 104.41 54.2 104.49 54.13 104.62 54.15 104.98 54.29 105.13 54.28 105.24 54.21 105.28 54.1 105.3 54 105.34 53.91 105.42 53.86 105.56 53.87 105.66 53.83 105.74 53.74 105.75 53.64 105.72 53.52 105.73 53.42 105.79 53.33 105.98 53.27 106.09 53.22 106.16 53.15 106.21 52.93 106.3 52.83 106.46 52.78 106.73 52.78 106.85 52.74 106.92 52.66 106.98 52.38 107.05 52.26 107.12 52.19 107.28 52.12 107.34 52.08 107.37 52.02 107.38 51.95 107.36 51.85 107.34 51.75 107.3 51.66 107.06 51.26 106.92 50.95 106.89 50.84 106.87 50.74 106.84 50.66 106.83 50.62 106.79 50.57 106.44 50.33 106.17 50.2 106.09 50.18 106.01 50.17 105.68 50.21 105.6 50.2 105.53 50.17 105.44 50.13 105.33 50.06 105.22 49.98 105.12 49.87 105.04 49.76 104.99 49.65 104.97 49.57 104.94 49.45 104.93 49.14 104.9 49.02 104.84 48.93 104.73 48.9 104.65 48.92 104.58 48.97 104.33 49.23 104.25 49.28 104.15 49.31 104.04 49.32 103.93 49.29 103.83 49.23 103.73 49.15 103.66 49.06 103.58 48.95 103.53 48.85 103.49 48.74 103.48 48.62 103.51 48.51 103.59 48.39 103.69 48.33 103.93 48.26 104.05 48.19 104.14 48.11 104.27 47.92 104.32 47.9 104.52 48.03 104.69 48.03 104.78 47.98 104.86 47.88 104.89 47.77 104.92 47.66 104.92 47.55 104.92 47.44 104.89 47.33 104.86 47.2 104.83 47.07 104.88 46.9 105 46.72 105.47 46.33 105.55 46.26 105.59 46.15 105.64 46.08 105.71 46.05 105.93 46.03 106.07 46.01 106.27 45.92 106.4 45.83 106.52 45.72 106.77 45.44 107.2 45.1 107.35 45.03 107.63 44.98 107.81 44.92 107.9 44.78 108.05 44.41 108.25 44.09 108.39 43.93 108.71 43.72 108.75 43.58 108.72 43.41 108.59 43.26 108.37 43.03 108.31 42.91 108.28 42.78 108.23 42.68 108.16 42.63 108.04 42.63 107.91 42.64 107.79 42.62 107.75 42.52 107.79 42.36 107.98 42.08 108.07 41.91 108.11 41.74 108.02 41.48 107.99 41.33 108.06 41.19 108.2 41.12 108.4 41.09 108.79 41.11 108.99 41.08 109.14 41.04 109.37 40.79 109.6 40.36 109.68 40.26 109.82 40.13 109.92 40.06 110.05 40.01 110.23 39.98 110.41 40.01 110.97 40.19 111.33 40.22 111.46 40.13 111.61 39.69 111.63 39.46 111.62 39.15 111.54 38.71 111.36 38.21 111.3 37.97 111.27 37.73 111.4 37.01 111.44 36.88 111.48 36.88 111.58 36.9 111.65 36.95 111.73 36.98 111.86 36.96 111.94 36.9 112.17 36.67 112.59 36.66 112.77 36.7 112.89 36.81 113.11 36.77 113.75 36.95 113.79 36.87 113.81 36.8 113.81 36.71 113.8 36.52 113.7 36.05 113.69 35.92 113.71 35.81 113.76 35.7 113.92 35.43 113.95 35.37 113.95 35.32 113.94 35.26 113.93 35.23 113.91 35.2 113.82 35.08 113.72 34.98 113.55 34.86 113.43 34.74 113.38 34.66 113.36 34.6 113.35 34.52 113.37 34.41 113.39 34.34 114.11 33.16 114.18 33.07 114.29 32.99 114.08 32.79"/></g></g></svg>