<svg xmlns="http://www.w3.org/2000/svg" viewBox="0 0 58.33 52.99"><defs><style>.cls-1{fill:#878787;stroke:#f9f9f9;stroke-linecap:round;stroke-linejoin:round;stroke-width:0.25px;fill-rule:evenodd;}</style></defs><g id="Layer_2" data-name="Layer 2"><g id="China_-_Provinces" data-name="China - Provinces"><path id="Liaoning" class="cls-1" d="M36.49,48.88l0,0-.07.06-.2,0v.06l.07,0,.07,0,0,.06v.06l-.09,0,0,.07,0,.14,0,.07.09.08.1-.05.1-.09.09-.11v-.14L36.52,49Zm-6.61-1.2.08-.11-.17.06-.23.14-.21.16-.08.16.11.21.18-.06.18-.1.1.09.12-.07-.05-.07-.07-.23v-.07Zm2.26-.31-.22,0v.07l.4,0,.11,0,0,.08v.13l0,.09.3-.18.11-.13,0-.15-.19-.06Zm.18-.32-.18-.11L32,46.87l-.49-.06-.32-.14h-.35l.24.28.44.14.48,0ZM21.91,45.11,22,45l-.07-.14-.17-.13-.07,0-.21,0-.3-.08h-.1l-.08.06,0,.08,0,.08,0,.08L20.8,45l-.07,0-.07,0-.24.11,0,.06,0,.17v.22l.05.05.07,0,.19-.07.15-.18.11-.21.12-.14.09,0h.1l.1,0,.05.1,0,.09-.06.08-.15.12L21,45.7v.1l.14.05.42,0,.16,0,.1-.13,0-.26v-.07l0-.08,0-.07-.08,0v-.08Zm13-1.17L34.7,44l0,.28.13.17.22,0,.2-.12.09-.23L35.12,44ZM58.2,26.38,58,26.16l0-.06v-.16l0-.13,0-.09v-.07l0-.12,0-.11,0-.05-.05,0-.08,0-.15,0-.06,0-.06-.05L57.41,25l-.15-.08,0-.06,0-.13v-.17l0-.12,0-.11,0-.08-.3-.48-.25-.23-.05-.07-.78-1.82-.05-.15-.07-.34,0-.47,0-.18v0h0l0,0h-.1l-.36.16-.11,0-.22,0-.3-.1,0,0h0v-.09l.1-.25,0-.07,0-.24v-.09l0-.11L54.19,19l0-.12v-.28l.13-.65v-.16l0-.07-.09-.2v-.07l0,0,.39-.22,0,0,.09-.08,0,0,0-.05v-.09l0-.12v-.06l0-.07,0-.05,0,0,.19-.13,0,0,0-.05,0,0,0-.05.09-.26.07-.1.08-.08,0,0,0,0,.06-.19.1-.18,0-.08v-.07l0,0,0,0-.07,0-.61-.2h-.16l0,0-.06,0h0l0,0-.19,0-.07,0,0,0,0-.06,0-.28v0l-.06-.14,0,0-.07-.09,0,0,0-.06v-.13l0-.29v-.18l0-.12,0-.06,0,0-.07,0-.39-.08-.22-.09,0,0-.09-.07,0-.06,0-.07v-.12l0-.07,0-.05.14-.09,0,0,0-.06,0-.06,0-.07v-.13l-.18-.24-.72-.76-.08-.51v-.16l0-.07v-.2l0-.06-.06-.06-.3-.22L52.09,10l0,0-.15-.33,0-.06,0,0,0,0h-.08l-.16.05h-.12l0,0,0-.06V9.29l0-.07,0-.06.08-.08,0-.05,0,0,.08-.3V8.53l0-.12,0-.09,0-.16,0-.11-.07-.16-.07-.06-.07,0-.34,0-.09,0-.05,0,0,0,0,0,0-.05,0-.07,0-.09,0-.24V6.83l.1-.82V5.83l0-.31V5.36l.1-.43.06-.38V4.47l0-.09-.08-.09,0-.09-.61,0-.12,0-.16.1-.56.53-.07.1,0,.12,0,.13,0,.15v.17h0l0,.08-.3.4-.94,1-.2.16-.13.07-.07,0L47.17,7l-.06,0-.07,0H46.9l-.3-.06-.05-.16V6.63l0-.09,0,0,.05,0,.16-.09.08-.06.1-.1,0-.07,0-.06-.29-.14-.11-.06,0-.07,0-.09-.05-.19V5.4l0-.08,0-.06.24-.34,0-.07,0-.08.05-.16V4.52l0-.06-.17-.15L46,3.89l-.05-.05-.07-.09,0-.07V3.19l0-.12L45.73,3l-.06-.06-.05,0-.28-.1-.14-.12-.06,0H45l-.18,0h-.07l-.08,0-.08-.07-.23-.27-.06-.06-.11-.07-.05,0-.07,0H44l-.32,0-.14,0-.06,0L43.42,2l-.67-.72L42.12.75,41.74.33l-.1-.07L41.53.2,41.25.13,41,.55,40.9.72l0,.05,0,.09-.11.46v.07l.06.1v.17h0v.24l-.11.3v.06l0,0,0,.08-.07.12v.42l0,.06,0,0-.06.07v.09l0,.07,0,0,0,.05V3.5l0,0-.1.17,0,.07L40.29,4l0,.22,0,.29,0,.07-.07.06-2.17.79h-.09l-.36,0-.14.07-.19.13-.57.5-.09.12-.19.91-.17.34-.07.1-.5.37,0,0-.07,0-.1,0h-.19l-.42,0-.08,0-.07,0-.24.14-.06.05-.19.21,0,0-.14,0L33,8.6l-.17,0-.12-.05-1.31-.78-.32-.25-.06,0-.42-.18-.71,0-.07,0-.06,0-.07.09,0,.08,0,.07v.2l0,.12.08.21.05.1.36.57.05.1v.25l0,.07,0,.06,0,.05-.07.1,0,0-.11,0-.84.25H29l-.12,0-.1-.06-.56-.43-.05,0-.07,0-.34,0L27.58,9l-.48-.27-.05,0H27L26.29,9l-.14.12L26,9.27,26,9.38l0,.12,0,.07,0,.3v.2l-.16.51-.06.11,0,.05,0,0-1,.6-.09.09-.09.15-.05,0-.08,0-.25,0h-.16l-.24,0h-.09l-.05,0-.09-.07-.07-.08-.18-.34v0l0-.15,0-.05L23,11l0,0-.05,0-.05,0h-.12l-.41.15h-.19l-.05,0H22l-.12,0-.19.1-.2.06-.12,0-.12.08L18.47,14l-.16.11h-.14l-.24-.13-.05,0-.11-.13-.13-.18,0-.05h-.17l-.62.35-.87.43-.06,0-.22.24-.38.33-.14.09-.1.05-1,.13-.06,0,0,0,0,.05,0,0,0,.06v.2l0,.12V16l-.18.46,0,0-.07.1-.08.11-.15.12-.76.44-.07.06-.18.22-.06.12-.1.21-.25.35-.74.71-.27.31-.05.12,0,.13,0,.12,0,.33,0,.12,0,.06,0,.05,0,0-.05,0-.13,0h-.14l-.13,0-.06,0,0,0,0-.05,0-.05L10,20v-.14l.08-.8v-.29l0-.21v-.06l0-.06,0-.05L10,18.31,9.67,18l0-.05,0-.06v-.42l0-.06,0-.06,0,0-.08-.09-.57-.31h0l0-.05,0,0v-.64l-.05-.07-.56-.56,0,0,0-.05,0-.06v-.07l0-.06,0,0L8.39,15l.11-.12v-.15l-.07-.13-.06-.06-.07,0-.5-.15-.71-.07-.14,0-.14-.06-.06-.05,0-.06v-.06l0-.21v-.06l0-.06,0-.06,0-.06-.21-.23,0-.05v-.12l0-.13V13l-.07-.13-.15-.18-.25-.2-.11-.06H5.7l0,.05h0l0,.09-.1.32-.13.23-.06.07-.13.1h0L5,13.3H5l0,.05,0,0-.09.05,0,0-.09,0h-.1l-.17,0h0l0,0-.07,0-.15.19-.15.13-.12.18-.14.15h0l0,0-.13.22,0,.05,0,.07v.12l0,.05,0,0,.09.07.4.53,0,0,.05,0,.23.1,0,0,.05,0,0,0,0,.05,0,.06,0,.12,0,.21v.13l0,.15,0,.14,0,.11L4.3,17l-.12.14,0,.05,0,.05,0,.07v.19l0,.06v.06l0,.47,0,.25v.06l0,.08,0,.07L4,18.66l0,0v.37l0,.12,0,.07v.4l0,.11v.09L4,20v.35l0,.3v.09l.25.33,0,.1,0,.12.21,1,.07.53v.14l0,.29,0,.14,0,.13-.09.23-.08.15L3.34,25l-.13.46-.15.28-.28.34-.1.08-.24.14-.19.17L2,26.76,1.8,27l-.14.11-.14.05H1.28l-.17,0-.23.16-.08.15v.19l.09.09.12.05.15,0,.13.05.14.08,0,0v0l0,0v.21l0,.08,0,.06-.11.08-.08,0H1.12l-.13,0-.21-.1H.69l-.11.08-.07.38-.14.33-.16.26,0,.06,0,.07,0,.09v.21l0,.05,0,.05,1.57,1.74.08.07,0,0,0,0H2l.06,0,.1,0,.22-.07,0,0,0,0,.26-.3.09-.07,0,0,.05,0H3l.06,0,0,.09v.16L3,32v.09l0,.14.29.49.12.18.16.08.12,0,.07.05.11.14h.07l.21,0H5.3l.54-.13H6l.1.06,0,.09,0,.08v.06l0,.07.13.18,0,.11,0,.1,0,.11,0,.22v.34l0,.07,0,.06v.06l0,.14V35l0,.12,0,.12v.06l.09.2.15.27.11.15.05.1,0,.05v.06l-.06.44v.16l0,.07h.12L7,36.72l.2,0h.13l.11,0,.1,0,.1.06,0,.06v.07l0,.22,0,.32v.14l-.06.21V38l0,.09.09.16,0,.09.06.05.22.13.2.16.06.06,0,.06,0,0,.09.19v0h0l0,.07,0,.08.21-.09.31,0v-.14l0-.27.29-.22L10.79,38l.31-.12.23-.13.05,0h0l.27-.09.17-.1.13,0,.23-.18.17-.18L12.6,37l.2,0,.3,0h.35l.13-.08.18-.14.17-.19.1-.19,0-.27-.05-.2v-.38l.27-.19.26-.11.22-.15,0-.18-.17,0-.17,0-.07-.08,0-.21.14-.1.19,0,.11-.09v-.3l.06-.17.14-.1h.1l.22-.1.05-.07,0-.14.08-.21.18-.16.59-.54.15-.06.09-.09.08-.21.07-.24,0-.18,0-.19.19-.1.17.05.14,0,.09,0,.23-.05.15,0,.18-.2.28-.06.21-.05L18.27,31,18.14,31l-.16,0-.16,0-.14,0,0-.17.07-.11.11-.1.09-.1v-.11l0-.14.06-.13L18,30l.07,0,.12,0,.21.07.1.13.07.19.15-.07,0-.16.12-.11v-.39l0,0,.19-.09,0,0,.07-.1.09-.09.1-.08.11-.07.17-.17.21-.09.2,0,.17.22.12-.15.05.11.08.08.09,0h.12l.14-.12.18-.2.2-.12.2.1.08.07.2.06.09.05,0,.08,0,.09,0,.08.08.06.25,0,.25.05.16.14.32.24.06,0,.17-.05.83,0h.38l.16-.25.09-.19.09-.21,0-.3.25-.28.16-.15.35-.24.06.06-.14.25-.08.1-.09,0-.1.07,0,.16.06.16,0,.06,0,.6.06.3.17.19.22.08,1.27.69.15.12.35.39.11.21.13,0,.19-.18.09.16,0,.37-.26.32.11.22.22.19.41.09.42.39.16.22.06.23-.12.15v.17l-.08.08-.11.05-.12.08,0,.07v.19l-.07,0h-.32l.06.51-.26.31-.43.29-.19.17,0,.2V36l0,.15,0,.14-.09.24-.28.2-.17.14-.19.09h-.2l.12.33-.09.36-.52.24,0,.27-.41.39-.45.21.09,0h.22l.09,0,0,.09v.11l-.05.08-.16.06-.16.16-.22.06,0,.08v.1l0,.1-.21.2-.17,0-.17,0-.23,0-.19,0-.41.28-.16.27-.42.14-.26,0-.21.41-.33.15v.06l.05.19.09.1,0,.15-.08.09-.15.08,0,0,0,0v0l.23.19.13.29.1.08h0l.06,0,.06,0,.07.06,0,.09,0,.06,0,0,0,0,0,0-.08.08,0,0,0,0,.08.08,0,0,0,.08v.05l0,0-.06.05-.23-.38-.29.08.06.14-.18.19-.57.15h-.46l-.17.05-.13.12-.26.25-.1.22-.08,0-.09,0,0,.09,0,.1.07,0h.31l.08,0,.14.09.06,0,.11,0,.17-.15.12,0,.38,0,.17,0,.14.08.21.38.26.92.28.26.19,0,1.42-.1-.08-.26.31,0,.72.14.15,0,.27-.11.15,0,.12-.07.08-.1.07,0,.1.2-.23,0-.42.27-.23.06-.39-.07h-.1l-.12.06-.1.11-.19.27.06.12,0,.08-.15.16-.31.24-.19.09-.09,0-.05-.08h0l-.21,0-.18.12.12.12.24.18-.06.13-.2,0v0l0,.12,0,.05-.13.09.12.13.19.08.1,0,.06.19.27.24.08.19-.14.33-.35.2-.72.21-.5.32-.16.05h-.33l-.08,0-.08-.15-.05-.06-.06,0-.18,0-.19.06-.15.13-.06.15,0,.12L21,50l0,.08-.05.1-.11,0h-.24l-.3.2-.19,0-.12,0H20l-.08,0-.11-.1-.08,0-.42.08-.09,0-.19.25-.08.16L19,51h.48l0,.14-.11.12-.21.18,0,.19.06.13.08.1.06.1,0,.21-.05.08-.08,0-.08.11.15.1.07.18.1.16.22.07.16-.08.39-.51H20l.16-.24.21,0,.22.08.48-.29.3,0,.88.08.11-.06.05-.12h.07l.34-.33.23,0,.62,0,.18-.14.17.09.07-.11V51L24,50.85l-.14-.13-.15,0h-.35l-.21-.1,0,0,0-.09.1,0,.2,0,.16,0,0,0,0-.12,0-.1,0-.08-.05,0h-.12l.3-.13h.08l.25,0,.24.06v-.08l-.16-.12,0-.11.17,0,.23.13.12.16.21.37.3.27.1,0,.1-.07.14-.12.06-.09v-.11l-.13-.17-.35-.2-.09-.23.24,0,.2.07.36.2,0-.13-.06-.11-.09-.08-.12,0,.14-.08.1,0,.11.07.11,0,.14,0,.1-.1.08-.1.06,0,.45,0,.08-.08-.1-.25.07-.09.07,0h.07l.07,0,.46-.4.13-.05h.16l-.1-.09-.12,0h-.26v0l.06-.12,0-.15,0-.13.71-.54.34-.37.05-.27,0-.07v-.08l.13.07.08-.12.06-.16.05-.08.12,0,.12-.09.13-.11.09-.11.1-.06.23-.08.1-.17.15,0,.28,0,.19,0,.22-.11.37-.29.05,0h.08l0-.05v-.08l0,0,0-.05v0l.08-.06.05,0,.07.08.09.09.41-.44,0-.19.05-.07.11,0,.1.09,0,.05.09,0,.07-.06.12-.13.49-.24.09,0,.07-.13.51-.49.19.13.62-.15.16.09.24-.27,0-.15-.16-.1v-.08h.12l.08-.06,0-.07,0,0h.06l.11,0,.08,0,.16,0,.35-.12.07,0,.17.27h.38l.41-.15.36-.23,0-.07,0-.12-.07-.06,0,0H37L36.82,42h-.07l0,0,0-.11,0-.11h.11l.22.07.14-.06,0-.15-.09-.16L37,41.29l0-.1,0-.07.05,0,.07,0v.07l0,.11.06,0,.07-.14.1.07.15.21.1.09.21-.09H38l.19-.05.14-.22,0-.09,0-.06.07,0h0l0,.13,0,.07,0,.05,0,.06v.67l.15.09.15-.11.3-.47.12-.12.15-.08.16,0,.08.05,0,.07,0,.06,0,0,.08.06v0l.23-.15L40,41.3,40,41l.17-.59,0-.19,0-.16.08-.12.14,0-.11.45.22.23.42.29.45.13.29-.21h.06l.16.09.22.06h.23l.19,0,.08-.05.09-.08.1,0,.1.07.11.15.06.06.09,0,.11-.06.36-.1.12-.05.09-.07.18-.17.25.2.16-.1.15-.21.4-.18.54-.53.06,0h.11l.06-.05,0-.07,0-.15.05-.07.37-.42.07-.13,0-.11,0-.28,0-.32v-.14l.1-.1.13-.13,1.19-1.14,0,0,.09,0,0,0v-.17l0-.06.13-.12.34-.21.14-.16.12-.09.43-.09.16-.08.09-.18.07-.25.08-.23.13-.1.2,0,.17-.12.41-.41.29-.38.06-.13,0-.06.08.07.08.12,0,.05.07,0,.08,0,.2,0,.23,0,.17,0L52,34l.13,0,0-.11-.06-.13L52,33.61l-.11-.14v-.15l.08-.13.21-.08.2-.07.14-.08.21-.1.15-.1.17-.12.24-.11.29-.09.22-.1.11,0,.08-.08.05-.11,0-.12.13-.06h.13l.13,0,.11,0,.16,0h.06l.08,0,.1.1.05,0h.19l0-.09v-.14h0l0-.16.06-.05.15,0,.07-.05,0-.07v-.16l0-.08.08-.13.08-.06.11,0h.35l.11,0L56.4,31v-.23l0-.22.1-.07.13,0,.11.1.07.1v0h.49l.12-.08-.08-.16-.24-.3.33-.41.17-.12h0l0-.16,0-.11,0-.09-.08,0-.12,0h-.54l-.07,0-.07,0L56.59,29l.1-.13.05,0,.09-.06,0,0,.12-.13.06-.09.06-.12.07-.1,0,0,0,0,.18-.12,0,0,.08-.09,0-.05,0-.06,0-.06.08-.35.1-.25v-.36l0-.09,0-.06.31-.22,0-.05Z"/></g></g></svg>