<svg xmlns="http://www.w3.org/2000/svg" viewBox="0 0 191.28 167.62"><defs><style>.cls-1{fill:#878787;stroke:#f9f9f9;stroke-linecap:round;stroke-linejoin:round;stroke-width:0.25px;fill-rule:evenodd;}</style></defs><g id="Layer_2" data-name="Layer 2"><g id="China_-_Provinces" data-name="China - Provinces"><polygon id="Xinjiang" class="cls-1" points="191.08 77.74 191.02 77.55 190.91 76.12 190.85 75.85 190.75 75.62 190.55 75.36 187.31 72.14 187.02 71.76 186.86 71.33 186.78 70.85 186.75 70.32 186.67 69.9 185.5 67.35 184.63 64.58 184.18 63.56 183.97 63.31 183.67 63.22 183.23 63.2 182.43 62.99 182.36 62.87 182.36 62.59 182.44 61.92 182.38 61.34 182.39 61.22 182.43 61.11 182.54 60.88 182.6 60.56 182.7 60.37 182.95 60.03 183.02 59.8 182.87 59.72 179.99 60.09 179.63 60.04 178.89 59.64 177.34 59.15 177.15 59.06 177.03 58.91 176.94 58.71 176.81 58.53 176.23 57.98 175.16 57.31 174.9 57.18 174.37 57.18 174.13 57.09 174 56.9 173.77 56.39 173.62 56.18 172.93 55.42 172.82 55.34 172.68 55.28 172.54 55.27 172.16 55.45 171.78 55.45 171.08 55.35 170.68 55.2 170.24 54.71 168.89 52.82 168.68 52.63 167.31 51.92 166.43 51.87 166.26 51.81 165.93 51.6 165.76 51.52 165.56 51.51 165.16 51.58 164.95 51.56 164.29 51.25 164.07 51.22 163.54 51.28 163.34 51.3 163.18 51.25 163.02 51.23 162.85 51.24 162.69 51.28 162.44 51.27 162.2 51.17 161.74 50.89 161.62 50.88 161.34 50.94 161.22 50.95 160.83 50.89 159.87 51.16 159.31 51.19 158.5 51.37 158.36 51.37 157.98 51.21 157.84 51.19 157.43 51.25 157.29 51.25 156.91 51.11 156.76 51.11 156.35 51.22 156.14 51.17 155.42 50.65 155.15 50.52 154.87 50.45 154.59 50.44 154.3 50.47 153.83 50.56 152.39 50.48 152.2 50.5 151.86 50.62 151.68 50.64 150.85 50.43 150.75 50.45 150.68 50.49 150.6 50.5 150.5 50.42 149.95 49.71 149.8 49.61 149.62 49.62 149.47 49.72 149.34 49.87 149.19 49.99 149.03 49.99 148.21 49.8 147.67 49.52 147.54 49.4 147.36 49.12 147.25 49 146.97 48.84 146.59 48.76 146.21 48.75 145.91 48.79 145.33 49.14 145.06 49.13 144.92 48.79 144.95 48.59 144.99 48.47 145 48.33 144.9 48.13 144.75 48.02 144.41 47.87 144.37 47.73 144.36 47.33 144.26 47.01 144.13 46.69 144.05 46.34 143.92 46.09 143.37 45.69 143.19 45.48 143.57 42.65 143.69 42.38 145.44 40.01 145.91 39.56 146 39.49 146.14 39.14 146.16 38.59 146.09 38.04 145.91 37.71 145.69 37.38 145.27 36.01 145.25 35.76 145.33 35.58 145.58 35.25 145.91 34.37 146 34.15 146.13 33.66 146.24 33.44 146.42 33.01 146.5 32.74 146.52 32.55 146.39 32.39 146.21 32.32 146.09 32.21 146.1 31.9 146.22 31.38 146.24 31.05 146.25 30.89 146.16 30.43 145.91 30.02 145.61 29.72 145.49 29.54 145.45 29.29 145.47 29.2 145.57 29.01 145.59 28.91 145.56 28.79 145.5 28.72 145.43 28.66 145.37 28.57 145.28 28.35 145.23 28.14 145.16 27.93 145.03 27.74 144.86 27.58 144.68 27.47 144.49 27.42 144.29 27.42 143.96 27.35 143.7 27.07 141.66 23.45 141.64 23.36 141.66 23.27 141.72 23.19 141.8 23.01 141.84 22.8 141.82 22.6 141.72 22.44 141.49 22.28 141.43 21.95 141.45 21.55 141.43 21.18 141.31 21.01 141.04 20.79 140.93 20.62 140.68 20 140.57 19.82 140.47 19.57 140.56 19.39 140.66 19.26 140.62 19.13 140.44 18.98 140.26 18.88 139.49 18.66 139.1 18.49 138.73 18.24 138.42 17.91 138.32 17.74 138.22 17.5 138.16 17.23 138.2 17.01 138.27 16.74 138.23 16.51 138.1 16.37 137.75 16.36 137.42 16.26 137.28 16.33 137.22 16.48 137.2 16.65 137.18 16.82 137.07 16.97 136.8 17.06 135.91 17.14 135.64 17.06 135.55 16.92 135.47 16.56 135.41 16.39 135.27 16.26 134.97 16.19 134.84 16.12 134.74 15.96 134.67 15.75 134.6 15.57 134.48 15.5 134.34 15.46 134.23 15.35 134.17 15.17 134.17 14.96 134.13 14.62 133.88 14.48 133.56 14.5 133.32 14.58 132.91 14.6 132.77 14.58 132.43 14.39 132.31 14.39 132.14 14.47 131.73 14.8 131.59 14.96 131.38 15.12 131.17 15.16 130.74 15.07 129.96 15.07 129.72 14.96 129.72 14.96 129.72 14.96 128.77 13.66 128.64 13.54 128.41 13.48 127.92 13.55 127.7 13.54 127.45 13.36 126.89 12.79 126.66 12.7 126.44 12.73 126.28 12.67 125.95 12.39 125.82 12.21 125.76 11.99 125.72 11.75 125.65 11.51 125.63 11.26 125.75 10.79 125.69 10.57 125.16 9.94 124.97 9.85 124.8 9.87 124.63 9.93 124.44 9.92 124.16 9.74 123.73 9.17 123.5 8.98 122.92 8.68 122.77 8.65 122.48 8.68 122.34 8.67 122.19 8.6 121.92 8.38 121.69 8.26 121.55 8.1 121.47 8.05 121.38 8.04 121.18 8.09 121.08 8.09 120.8 7.93 120.54 7.64 120.46 7.33 120.74 7.12 120.86 7.02 120.93 6.88 120.97 6.74 121.03 6.65 121.41 6.39 121.48 6.28 121.44 5.96 121.23 5.69 120.74 5.35 120.55 5.28 120.17 5.31 119.62 5.05 119.44 4.94 119.31 4.78 119.28 4.67 119.27 4.4 119.23 4.28 119.16 4.2 119.07 4.14 118.89 4.06 118.75 3.91 118.73 3.69 118.79 3.45 118.9 3.26 119.57 2.93 119.88 2.65 119.87 2.19 119.74 2.04 119.58 1.98 119.45 1.88 119.4 1.6 119.44 1.33 119.52 1.15 119.56 0.96 119.54 0.66 119.42 0.28 119.4 0.13 118.56 0.21 116.96 0.71 116.87 0.72 116.8 0.7 116.75 0.72 116.68 0.93 116.64 1.01 116.59 1.07 116.54 1.13 116.23 1.29 115.91 1.34 115.59 1.28 115.27 1.16 114.24 0.85 113.91 0.68 113.53 0.59 112.35 1.06 112.1 1.04 111.61 0.88 111.37 0.9 111.19 1.04 111.01 1.5 110.86 1.71 110.54 1.99 110.4 2.15 110.27 2.37 110.15 2.63 110.11 2.83 110.13 3.05 110.19 3.36 110.39 3.79 110.65 4.04 110.79 4.29 110.58 4.69 110.42 4.88 110.36 5 110.38 5.15 110.47 5.69 110.47 5.86 110.41 6.01 109.78 6.89 109.37 7.29 109.24 7.45 109.14 7.65 108.99 8.09 108.9 8.24 108.75 8.37 107.78 8.77 106.96 8.71 106.74 8.8 106.56 8.97 106.23 9.38 105.77 9.62 104.21 9.48 102.35 9.75 102.04 9.97 101.8 10.37 100.69 13.1 100.48 14.49 100.36 14.96 100.21 15.29 100.11 15.56 100.09 15.87 100.77 19.55 100.77 19.97 100.64 20.8 100.67 21.18 100.67 21.18 100.81 21.55 101.39 22.52 101.47 22.78 101.43 23.02 101.37 23.24 101.39 23.45 101.47 23.68 101.47 23.87 101.38 24.28 101.34 24.53 101.31 24.72 101.2 24.82 100.82 24.86 100.62 24.93 100.44 25.06 100.36 25.26 100.34 25.5 100.29 25.68 100.22 25.85 100.11 26.02 100.03 26.24 100.01 26.47 99.95 26.62 99.4 26.6 98.32 26.77 97.83 26.71 97.67 26.74 97.49 26.84 97.38 26.97 97.17 27.34 97 27.52 96.42 27.95 96.17 28.23 96.07 28.3 95.69 28.39 95.57 28.45 95.43 28.59 95.24 28.96 95.06 29.09 94.43 29.23 93.81 29.48 93.58 29.52 93.42 29.44 93.38 29.27 93.46 29.09 93.58 28.89 93.67 28.7 93.69 28.26 93.52 27.89 93.25 27.62 92.95 27.45 92.55 27.42 91.75 27.63 91.37 27.56 90.92 27.34 90.78 27.32 90.64 27.34 90.64 27.34 89.61 27.25 88.71 27.34 88.71 27.34 88.7 27.34 88.7 27.34 88.17 27.65 87.96 27.69 87.37 27.57 86.58 27.57 83.39 26.43 81.95 25.47 81.62 25.31 80.85 25.14 80.68 25.04 80.25 24.66 80.05 24.58 79.82 24.55 79.59 24.57 79.38 24.62 79.17 24.72 79.1 24.86 79.11 25.36 79.09 25.5 79 25.76 78.97 25.9 78.98 26.03 79.04 26.27 79.03 26.4 78.9 26.86 78.86 27.1 78.89 27.34 78.93 27.55 78.92 27.76 78.86 27.96 77.64 30.53 76.87 33.44 76.53 34.16 76.48 34.37 76.38 35.03 76.25 35.41 75.7 36.33 75.36 37.04 75.14 37.82 74.92 39.49 74.92 39.49 74.7 40.59 74.59 40.93 74.35 41.51 73.72 42.6 73.42 43.78 73.15 44.41 73.09 44.75 73.04 45 73.34 45.48 73.34 45.48 73.34 45.48 73.64 45.62 74.9 45.81 75.76 46.17 75.9 46.4 75.94 46.84 75.91 47.31 75.75 48.39 75.51 49.24 75.12 49.88 74.59 49.97 74.18 49.72 73.46 48.91 73.07 48.64 72.65 48.59 72.2 48.71 70.6 49.52 70.18 49.63 69.84 49.47 69.68 49.28 69.55 49.2 68.98 49.1 68.86 49.02 68.82 48.86 68.81 48.59 68.76 48.18 68.62 47.69 68.41 47.33 68.12 47.31 67.79 47.21 67.43 47.37 66.75 47.86 63.41 48.91 62.73 49.3 62.39 49.43 62 49.43 60.98 49.84 60.76 49.85 60.07 49.63 59.66 49.64 58.32 50.14 57.74 50.08 57.55 50.11 57.38 50.25 57.22 50.67 57.09 50.8 56.88 50.83 56.25 50.79 55.65 51.03 55.05 50.93 54.68 50.96 54.33 51.12 54.01 51.42 54.01 51.42 53.18 52.15 52.79 52.35 52.62 52.48 52.49 52.84 52.71 53.12 53.74 53.78 54.14 53.81 55.64 53.49 55.87 53.51 56.02 53.59 56.45 53.93 57.81 54.46 57.94 54.55 57.99 54.7 57.94 54.86 57.81 54.95 57.26 55.08 56.97 55.22 56.8 55.43 56.79 55.56 56.83 55.67 56.98 55.88 57.03 56.02 57 56.16 56.87 56.41 56.65 57.3 56.59 57.78 56.6 58.2 56.94 59.92 56.94 60.38 56.72 61.22 56.66 61.65 56.71 61.87 56.83 62.03 57.1 62.3 57.2 62.5 57.25 62.69 57.27 62.91 57.27 63.14 57.27 63.14 57.36 63.39 57.5 63.66 57.81 64.11 58.8 66.72 59.79 69.33 59.77 69.71 59.64 70.07 59.21 70.85 59.34 71.03 59.65 71.12 59.98 71.28 60.09 71.44 60.15 71.64 60.18 71.86 60.19 72.09 60.23 72.3 60.43 72.67 60.47 72.88 60.42 73.13 60.3 73.3 60.13 73.4 59.95 73.44 59.78 73.39 59.35 73.07 59 73.06 58.64 73.23 57.99 73.72 57.25 74.04 56.9 74.27 56.79 74.59 56.95 74.88 57.23 75.11 57.81 75.39 58.19 75.45 58.37 75.55 58.47 75.75 58.41 75.98 58.23 76.1 57.81 76.15 57.17 76.39 57.02 76.52 56.61 76.68 56.47 76.7 56.18 76.62 56.03 76.61 55.9 76.69 55.72 76.98 55.53 77.66 55.4 78 55.09 78.47 55.02 78.64 54.99 78.89 55.03 79.07 55.1 79.25 55.17 79.69 55.27 79.87 55.49 80.19 55.58 80.39 55.59 80.53 55.54 80.67 55.45 80.9 55.46 81.03 55.65 81.93 55.7 82.11 55.79 82.27 55.91 82.44 56.06 83.25 56 83.5 55.9 83.63 55.58 83.8 55.63 83.97 55.66 84.34 55.7 84.52 55.78 84.69 55.89 84.83 55.97 84.98 55.97 85.2 55.75 85.56 55.34 85.7 53.23 85.67 52.8 85.79 52.49 85.91 52.36 86.02 52.24 86.19 52.17 86.38 52.07 86.8 51.99 87 51.69 87.29 51.32 87.34 50.92 87.33 50.55 87.42 50.08 87.76 49.53 87.97 48.87 88.42 48.7 88.49 48.5 88.49 47.97 88.32 47.79 88.37 47.64 88.47 47.25 88.84 47.06 88.97 46.88 89.05 46.49 89.14 46.16 89.27 45.22 89.95 44.71 90.05 44.56 90.13 43.8 90.66 42.67 91.11 42.55 91.17 42.44 91.27 42.38 91.39 42.31 91.67 42.23 91.78 41.93 91.92 41.31 92.05 40.53 92.65 40.2 92.8 40.05 92.9 39.91 93.08 39.88 93.28 40.02 93.7 40.05 93.91 39.96 94.1 39.81 94.22 39.48 94.42 39.34 94.56 39.13 94.87 38.97 95.18 38.74 95.61 38.63 95.79 38.51 95.93 37.66 96.66 37.51 96.72 37.34 96.7 37.01 96.55 35.91 96.39 35.61 96.4 35.33 96.49 34.22 97.08 34.09 97.13 33.94 97.14 33.51 97.12 32.86 97.31 32.62 97.3 32.37 97.17 31.9 96.97 31.43 96.87 31.16 96.88 30.68 97.03 29.63 96.97 29.38 96.88 28.93 96.65 28.7 96.61 27.8 96.81 27.47 96.95 27.25 97.17 27.13 97.34 26.82 97.57 26.68 97.71 26.6 97.92 26.63 98.13 26.69 98.35 26.71 98.57 26.64 98.79 26.51 98.93 26.18 99.11 25.9 99.36 25.68 99.7 25.54 100.09 25.48 101.21 25.45 101.39 25.36 101.55 24.91 101.89 24.7 102.23 24.43 103 24.24 103.32 24.01 103.54 23.28 104.02 23.02 104.28 22.88 104.33 22.76 104.2 22.62 103.52 22.54 103.34 22.3 103.26 22.05 103.53 21.8 103.89 21.52 104.06 21.36 104.03 21.05 103.85 20.88 103.8 20.68 103.82 19.93 104.18 19.82 104.34 19.73 104.52 19.59 104.71 19.42 104.82 19.24 104.86 19.06 104.85 18.52 104.71 18.33 104.7 18.15 104.72 17.77 104.88 17.58 104.9 17.43 104.75 17.36 104.56 17.23 104.07 17.21 103.86 17.28 103.65 17.39 103.5 17.47 103.36 17.45 103.16 17.37 103.04 17.13 102.82 17.04 102.68 16.98 102.47 16.94 101.85 16.79 101.38 16.55 101.15 16.25 101.15 15.9 101.36 14.06 102.83 13.98 102.88 13.88 102.9 13.78 102.94 13.73 103.03 13.7 103.13 13.64 103.22 13.48 103.26 13.32 103.18 13.17 103.07 13.01 103.01 12.8 103.05 12.39 103.23 12.18 103.26 11.87 103.19 11.57 103.06 10.84 102.56 10.65 102.47 10.47 102.49 10.45 102.53 10.34 102.68 10.31 102.79 10.3 102.83 10.23 103.03 10.13 103.27 10.07 103.48 10.13 103.65 10.53 104.02 10.63 104.16 10.7 104.52 10.44 104.59 9.73 104.41 9.54 104.4 9.38 104.47 8.95 104.9 8.81 105.01 8.49 105.18 8.21 105.39 7.46 106.21 6.57 106.93 6.26 107.07 6 107.11 5.75 107.06 5.46 106.95 5.17 106.89 4.87 106.93 4.58 107.05 4.31 107.23 4.05 107.35 3.5 107.43 3.27 107.61 3.18 107.73 3.11 107.86 3.06 108 3.04 108.16 2.99 108.42 2.85 108.6 2.69 108.77 2.57 108.98 2.5 109.44 2.46 109.56 2.4 109.65 2.15 109.86 2.05 110.01 1.98 110.21 1.94 110.42 1.95 110.63 2.03 110.85 2.15 110.92 2.29 110.95 2.45 111.05 2.57 111.24 2.62 111.47 2.66 111.94 2.85 112.52 2.81 112.64 2.62 112.75 2.48 112.86 2.38 113.02 2.28 113.26 2.19 113.64 2.11 113.79 1.96 113.87 0.38 114.08 0.37 114.3 0.46 114.91 0.47 115.14 0.45 115.31 0.19 116.06 0.13 116.38 0.17 116.69 0.37 117.04 0.72 117.39 0.8 117.54 0.88 117.91 0.93 118.08 1.02 118.22 1.52 118.6 1.8 118.91 1.92 118.99 2 119.17 2.03 119.35 1.99 119.51 1.86 119.65 1.68 119.71 1.28 119.71 1.09 119.8 0.97 119.92 0.85 120.09 0.78 120.29 0.81 120.48 0.91 120.64 1.15 120.91 1.25 121.06 1.27 121.27 1.22 121.74 1.25 121.91 1.55 122.41 1.61 122.57 1.69 123.01 1.76 123.18 1.92 123.36 2.07 123.45 2.37 123.57 2.52 123.65 2.77 123.88 2.9 123.96 3.71 123.99 3.85 123.95 3.96 123.78 3.89 123.61 3.78 123.43 3.77 123.23 3.84 123.17 4.17 123.06 4.23 122.99 4.24 122.9 4.24 122.81 4.26 122.72 4.38 122.55 4.5 122.47 4.64 122.47 5.16 122.65 5.32 122.68 5.51 122.67 6.09 122.47 6.27 122.5 7.46 123.08 8.88 123.63 9.04 123.76 9.17 123.91 9.31 124.02 9.5 124.05 9.69 124.03 9.84 124.07 9.98 124.17 10.11 124.34 10.11 124.34 10.11 124.35 10.11 124.35 10.19 124.46 10.25 124.52 10.39 124.6 10.45 124.67 10.48 124.76 10.49 124.86 10.55 125.16 10.55 125.37 10.5 125.57 10.4 125.74 10.04 126.14 9.96 126.31 9.93 126.5 9.94 127.52 10.1 128.74 10.26 129.04 10.85 129.37 10.96 129.66 10.92 130.33 10.94 130.62 10.94 130.69 10.96 130.74 11.06 130.8 11.13 130.86 11.11 130.94 10.97 131.17 10.91 131.2 10.87 131.25 10.9 131.4 10.94 131.47 11 131.53 11.43 131.77 11.53 131.87 11.56 132.06 11.53 132.16 11.47 132.27 11.34 132.45 11.28 132.55 11.26 132.64 11.24 132.74 11.21 132.82 11.11 132.98 10.99 133.12 10.9 133.27 10.87 133.47 10.95 133.84 11.14 134.14 11.39 134.37 12.15 134.82 12.3 134.95 12.73 135.51 12.97 135.74 13.23 135.93 12.82 136.07 12.62 136.16 12.52 136.34 12.5 136.73 12.43 136.86 11.65 137.15 11.45 137.19 11.29 137.28 11.21 137.46 11.12 137.63 10.95 137.71 10.29 137.88 10.13 137.89 10.04 137.83 9.71 137.11 9.65 137.03 9.52 137.01 9.41 137.09 9.33 137.19 9.14 137.37 9.09 137.4 8.93 137.41 8.89 137.46 8.86 137.53 8.75 137.64 8.73 137.68 8.69 137.72 8.62 137.74 8.57 137.72 8.47 137.61 8.41 137.58 8.3 137.6 7.93 137.7 7.66 137.71 7.55 137.77 7.46 137.93 7.39 138.14 7.29 138.28 7.17 138.35 6.99 138.37 6.67 138.33 6.55 138.38 6.54 138.59 6.67 138.81 6.94 139 7.46 139.26 7.61 139.44 7.71 139.64 7.82 139.82 8.01 139.91 8.18 139.82 8.72 139.69 9.02 139.56 9.15 139.59 9.27 139.76 9.5 139.96 10.11 139.97 10.38 140.19 10.38 140.19 10.62 140.56 10.69 140.69 10.74 141.01 10.78 141.1 10.9 141.06 10.95 140.96 11.02 140.66 11.1 140.53 11.22 140.44 11.37 140.37 11.66 140.3 11.98 140.3 12.7 140.19 12.85 140.22 12.97 140.29 13.21 140.51 13.49 140.67 14.48 140.88 14.8 141.01 15.03 141.24 15.16 141.55 15.22 141.95 15.24 142.38 15.3 142.77 15.48 143.03 15.99 143.05 16.04 142.98 16.07 142.87 16.12 142.77 16.64 142.57 17.31 142.7 17.97 143.03 18.49 143.39 18.98 143.84 19.2 144.1 20.05 145.74 20.05 145.75 20.09 145.91 20.14 146.17 19.98 146.99 19.98 147.4 20.05 147.56 20.26 147.82 20.35 147.96 20.37 148.15 20.26 148.23 20.11 148.3 20 148.44 19.99 148.55 20.06 148.73 20.05 148.84 20.01 148.93 19.95 148.98 19.53 149.25 19.42 149.35 19.36 149.52 19.41 149.87 19.59 150.2 19.85 150.45 20.11 150.57 20.76 150.61 21 150.75 21.21 151.13 21.28 151.52 21.32 151.95 21.41 152.32 21.64 152.53 21.84 152.54 22.24 152.43 22.43 152.41 22.6 152.44 22.73 152.49 22.86 152.49 23.17 152.27 23.32 152.27 23.47 152.3 23.63 152.27 23.69 152.21 23.79 152.03 23.87 151.97 23.96 151.94 24.05 151.92 24.24 151.92 24.44 151.85 24.75 151.53 24.91 151.58 24.99 151.92 24.87 152.75 25.04 153.09 25.32 153.25 25.92 153.48 26.2 153.68 26.4 153.96 26.5 154.08 26.65 154.16 26.77 154.17 26.82 154.18 27.16 154.16 27.32 154.22 27.44 154.35 27.63 154.64 27.77 154.75 27.92 154.82 28.1 154.86 28.44 154.87 28.79 154.81 28.96 154.8 29.13 154.85 29.23 154.95 29.41 155.18 29.52 155.28 29.82 155.41 30.13 155.44 30.74 155.36 31 155.39 31.2 155.49 31.59 155.82 31.86 155.96 32.1 155.99 32.63 155.91 32.94 155.9 33 155.91 34.18 156.1 34.42 156.06 34.65 155.93 34.91 155.73 35.02 155.69 35.13 155.69 35.35 155.72 35.48 155.95 35.64 156.17 35.83 156.32 36.05 156.38 36.3 156.28 36.67 155.86 36.91 155.74 37.4 155.76 37.5 156.16 37.35 156.72 37.11 157.24 37.04 158.04 37.33 158.81 38.12 160.22 38.2 160.6 38.27 161.37 38.39 161.72 38.73 162.16 38.8 162.34 39.32 164.26 39.51 164.61 39.84 164.92 40.21 165.07 42.13 165.4 42.61 165.6 43.33 166.16 43.76 166.73 44.07 166.92 44.46 167.03 44.77 167.17 45.01 167.4 45.06 167.49 45.06 167.49 45.3 167.39 45.41 167.31 45.65 167.09 45.74 167.04 47.14 166.49 47.26 166.47 47.43 166.48 48.26 166.57 48.48 166.54 48.62 166.49 49.06 166.26 49.22 166.21 49.46 166.16 49.72 166.16 50.48 166.29 50.91 166.46 51.34 166.72 51.38 166.74 51.44 166.76 51.53 166.77 51.65 166.78 51.77 166.77 51.88 166.74 51.97 166.69 52.08 166.57 52.66 165.66 52.8 165.36 53.09 164.6 53.29 164.28 53.33 164.21 53.45 164 53.48 163.87 53.51 163.63 53.49 163.48 53.46 163.35 53.42 163.26 53.11 162.84 53.07 162.75 53.04 162.64 52.99 162.26 52.96 162.15 52.81 161.87 52.81 161.75 52.84 161.61 52.98 161.42 53.08 161.32 53.19 161.25 53.3 161.21 53.41 161.18 53.82 161.11 53.9 161.09 53.98 161.04 54.06 160.98 54.13 160.89 54.18 160.78 54.21 160.61 54.19 160.48 54.15 160.38 54.09 160.29 54.03 160.22 53.97 160.13 53.93 160.04 53.93 159.91 53.98 159.77 54.12 159.57 54.63 158.96 55.08 158.55 55.2 158.38 55.29 158.2 55.79 156.95 55.95 156.67 55.99 156.52 56.02 156.34 56.02 155.99 56 155.81 55.98 155.66 55.98 155.61 55.99 155.53 56.11 155.39 56.43 155.55 56.49 155.58 56.88 155.93 57.07 156.11 57.89 156.66 58.11 156.74 58.35 156.79 59.32 156.86 59.44 156.89 59.49 156.91 59.85 157.14 60.06 157.24 60.17 157.27 60.24 157.28 60.45 157.28 60.78 157.23 60.91 157.23 61.02 157.24 61.16 157.28 61.31 157.34 61.83 157.69 62.03 157.79 62.1 157.8 62.2 157.8 62.36 157.76 62.45 157.73 62.5 157.68 62.51 157.61 62.48 157.3 62.48 157.23 62.49 157.16 62.52 157.07 62.56 156.96 62.63 156.87 62.72 156.82 62.82 156.81 62.97 156.87 63.1 156.97 63.3 157.17 63.7 157.43 63.97 157.55 64.16 157.58 64.38 157.58 65.2 157.39 65.37 157.4 65.71 157.46 65.91 157.53 66.08 157.62 66.78 158.22 66.89 158.29 67.04 158.35 67.27 158.37 68.17 158.28 69.96 157.8 70.61 157.53 70.7 157.47 70.78 157.39 70.84 157.31 70.91 157.19 70.96 157.03 71.07 156.5 71.1 156.43 71.15 156.35 71.23 156.27 71.32 156.21 72.46 155.62 73.02 155.21 73.1 155.13 73.15 155.05 73.19 154.94 73.22 154.82 73.23 154.45 73.27 154.3 73.35 154.2 73.44 154.13 73.62 154.06 73.73 154.01 73.96 153.84 74.07 153.77 74.19 153.72 74.44 153.75 76.23 154.12 76.56 154.13 76.73 154.06 77.18 153.78 77.33 153.73 77.52 153.71 78.02 153.74 78.25 153.79 78.45 153.89 78.62 154.06 78.72 154.22 78.79 154.43 78.81 154.64 78.71 155.51 78.71 155.63 78.72 155.7 78.75 155.77 78.86 155.87 79.04 155.99 79.34 156.14 79.52 156.28 79.67 156.45 79.81 156.57 80.01 156.66 80.3 156.63 80.75 156.47 80.89 156.46 81.05 156.48 81.32 156.56 81.6 156.69 81.74 156.73 81.95 156.76 82.78 156.77 83.17 156.85 83.52 157.04 83.73 157.1 84.15 157.12 86.29 156.96 87.25 156.54 87.45 156.51 87.58 156.51 87.71 156.54 87.81 156.58 88.33 156.87 88.5 156.93 88.68 156.95 88.84 156.94 89.18 156.81 92.11 155.06 92.29 154.99 93.9 154.64 94.49 154.3 95.13 153.73 97.03 153.11 97.25 153.1 97.57 153.13 97.65 153.16 97.9 153.29 97.95 153.31 98.04 153.31 98.15 153.29 98.42 153.21 98.64 153.12 98.85 153.06 99.04 153.04 99.37 153.06 99.48 153.08 99.56 153.11 100.17 153.45 100.2 153.48 100.22 153.54 100.33 153.85 100.37 153.94 100.42 154.01 100.48 154.06 100.56 154.07 100.66 154.05 100.79 153.99 100.97 153.87 101.78 153.01 101.89 152.94 102.02 152.9 102.22 152.87 103.57 152.99 103.75 152.96 103.94 152.88 104.05 152.8 104.1 152.75 104.4 152.32 104.78 151.97 104.89 151.81 105.09 151.39 105.11 151.34 105.17 150.97 105.22 150.78 105.24 150.73 105.28 150.68 105.5 150.53 105.58 150.43 105.66 150.32 105.73 150.17 105.77 150.03 105.86 149.54 105.9 149.42 105.94 149.33 106.04 149.24 106.12 149.18 106.22 149.12 106.45 149.02 107.51 148.77 107.61 148.72 107.68 148.67 107.76 148.59 107.83 148.47 107.93 148.35 108.02 148.26 108.14 148.21 108.33 148.2 109.11 148.29 109.71 148.25 109.95 148.2 110.15 148.13 110.77 147.84 111.04 147.79 112.56 147.69 112.64 147.65 112.81 147.58 113.08 147.5 114.06 147.41 114.18 147.38 115.45 146.66 115.61 146.64 115.86 146.7 116.34 146.91 116.75 147.04 116.87 147.06 117.34 147.07 118.98 146.8 119.7 146.77 120 146.71 120.31 146.57 120.46 146.46 120.67 146.24 120.75 146.18 120.83 146.13 120.89 146.1 120.94 146.09 121.6 146.14 122.19 146.09 123.27 145.88 124.29 145.82 124.8 145.88 124.93 145.92 125.06 145.99 125.11 146.04 125.14 146.08 125.16 146.11 125.19 146.15 125.23 146.18 125.28 146.21 125.33 146.24 126.92 146.71 127.89 146.66 127.98 146.68 128.09 146.73 128.35 146.9 128.99 147.56 129.13 147.64 129.19 147.67 129.28 147.69 129.67 147.72 129.99 147.79 130.26 147.81 131.05 147.77 131.21 147.8 135.02 149.68 136.61 149.85 136.83 149.85 137.05 149.81 137.28 149.7 137.41 149.58 137.49 149.44 137.53 149.3 137.56 149.15 137.84 147.91 137.9 147.85 137.97 147.85 138.1 147.94 138.31 148.12 138.43 148.24 138.55 148.41 138.84 148.97 138.89 149.05 138.95 149.11 139.02 149.16 139.12 149.19 140.18 149.33 142.95 149.38 143.12 149.43 144.69 150.42 144.89 150.48 145.07 150.49 145.23 150.46 145.41 150.39 146.17 149.98 146.52 149.87 146.89 149.81 147.05 149.76 147.16 149.69 147.22 149.59 147.26 149.45 147.27 149.28 147.26 149.07 147.11 148.48 146.82 147.83 146.63 147.28 146.32 145.76 146.18 145.31 146.12 145.25 146.07 145.21 146 145.16 145.89 145.12 145.59 145.03 144.93 144.94 144.78 144.9 144.49 144.74 144.11 144.41 143.69 143.93 143.62 143.83 143.58 143.73 143.57 143.68 143.5 143.28 143.49 142.79 143.52 142.47 143.57 142.26 143.61 142.14 143.71 142 144.15 141.56 144.51 141.07 144.66 140.93 144.76 140.89 145.21 140.77 145.24 140.77 145.81 140.87 145.97 140.87 146.12 140.85 146.58 140.71 147.47 140.22 147.72 140.12 148.53 139.99 148.63 139.95 148.71 139.88 148.79 139.76 148.83 139.68 148.85 139.58 148.85 139.4 148.83 139.16 148.81 139.02 148.77 138.89 148.72 138.78 148.66 138.7 148.09 138.09 147.49 136.99 147.39 136.74 147.18 135.74 147.11 135.53 147.01 135.33 146.88 135.14 146.8 135.06 146.74 135.01 145.76 134.68 145.61 134.6 145.27 134.32 145 134 144.73 133.75 143.4 133.09 142.5 132.44 141.39 131.94 141.33 131.9 141.27 131.84 141.19 131.72 141.16 131.63 141.13 131.54 141.13 131.43 141.13 131.36 141.15 131.29 141.17 131.22 141.45 130.66 141.49 130.49 141.51 130.27 141.49 129.96 141.45 129.76 141.41 129.64 139.35 126.14 139.11 125.57 139.01 125.25 138.99 125 139.06 124.86 139.17 124.75 139.31 124.66 139.45 124.61 139.75 124.56 139.88 124.56 140.35 124.64 140.42 124.64 140.92 124.43 141.09 124.32 141.18 124.24 141.74 123.93 142.23 123.52 142.34 123.4 142.59 123.21 142.98 123.02 143.03 122.99 143.06 122.95 143.09 122.9 143.1 122.83 143.12 122.63 143.14 122.56 143.17 122.48 143.21 122.42 143.26 122.39 143.31 122.38 143.65 122.45 143.9 122.43 145.24 122.13 145.48 122.11 146.22 122.16 147.12 121.97 147.79 121.71 148.01 121.67 148.59 121.66 148.99 121.5 149.83 121.03 150.03 120.94 150.24 120.89 151.39 120.79 153.51 120.26 154.3 119.92 155.54 119.56 156.6 119.04 157.31 118.39 157.4 118.33 157.59 118.25 157.82 118.19 158.74 118.12 161.32 117.56 162.1 117.3 162.26 117.27 162.37 117.28 162.36 117.15 162.41 115.57 162.51 114.69 162.52 114.3 162.5 114.16 162.47 114.04 160.99 110.15 160.94 109.83 160.93 109.59 160.94 109.42 160.97 109.29 161.03 109.12 162.13 107.22 162.19 107.07 162.23 106.8 162.28 103.46 162.41 102.92 162.82 102.75 163.21 102.73 165.31 102.95 165.58 102.87 166.24 102.42 167.13 102.09 167.39 101.94 167.75 101.65 168.52 100.6 168.9 99.93 169.28 99.05 171.39 95.94 176.17 90.59 180.17 88.31 183.81 87.55 186.16 87.85 186.45 87.82 186.71 87.71 186.94 87.56 187.67 86.84 188.38 85.99 188.42 85.9 188.45 85.79 188.45 85.59 188.42 85.44 188.29 85.01 188.25 84.78 188.23 84.37 188.44 80.29 188.53 79.82 188.6 79.61 188.69 79.46 188.84 79.3 191.15 77.75 191.08 77.74"/></g></g></svg>