<svg xmlns="http://www.w3.org/2000/svg" viewBox="0 0 41.52 52.47"><defs><style>.cls-1{fill:#878787;stroke:#f9f9f9;stroke-linecap:round;stroke-linejoin:round;stroke-width:0.25px;fill-rule:evenodd;}</style></defs><g id="Layer_2" data-name="Layer 2"><g id="China_-_Provinces" data-name="China - Provinces"><polygon id="Jiangxi" class="cls-1" points="41.37 16.41 41.31 16.16 41.3 15.29 41.28 15.27 41.25 15.23 41.13 15.14 41.09 15.09 41.08 15.05 41.08 15.03 41.09 15.02 41.16 14.97 41.2 14.93 41.24 14.86 41.23 14.81 41.21 14.76 41.04 14.54 41.02 14.5 40.98 14.43 40.88 14.03 40.88 13.95 40.89 13.84 40.97 13.48 40.99 13.32 40.98 13.23 40.97 13.17 40.94 13.13 40.91 13.09 40.87 13.06 40.83 13.04 40.7 12.87 40.52 12.18 40.3 12.04 40.1 11.95 40 11.88 39.94 11.83 39.92 11.78 39.87 11.59 39.85 11.48 39.83 11.4 39.78 11.31 39.68 11.13 39.62 11.05 39.56 10.99 39.51 10.98 39.31 10.95 39.28 10.91 39.28 10.86 39.31 10.76 39.32 10.7 39.3 10.66 39.28 10.64 39.09 10.54 38.48 10.03 37.93 9.78 37.83 9.55 37.76 9.45 37.66 9.38 37.48 9.19 37.42 9.06 37.39 8.98 37.39 8.92 37.4 8.89 37.79 8.26 37.81 8.19 37.86 7.96 37.83 7.63 38.02 7.52 38.37 7.47 38.45 7.45 38.51 7.41 38.56 7.33 38.76 7.1 38.84 6.99 38.91 6.85 38.93 6.79 38.94 6.73 38.94 6.67 38.93 6.62 38.9 6.42 38.86 6.36 38.48 6.12 38.4 5.99 38.39 5.83 38.35 5.64 38.35 5.57 38.37 5.52 38.38 5.49 38.39 5.46 38.38 5.41 38.35 5.3 38.31 5.24 38.27 5.19 38.23 5.17 37.81 5.05 37.57 4.88 37.41 4.81 37.34 4.79 37.28 4.79 37.05 4.82 36.91 4.86 36.64 4.98 36.55 5.01 36.31 4.96 35.88 4.82 35.78 4.8 35.72 4.81 35.44 4.91 35.1 4.95 34.94 4.94 34.8 4.88 34.74 4.83 34.63 4.7 34.45 4.46 34.41 4.43 34.35 4.4 34.25 4.38 34.12 4.38 34.06 4.39 33.72 4.42 33.66 4.41 33.54 4.38 33.48 4.35 33.43 4.3 33.37 4.21 33.31 4.08 33.27 4.04 33.23 4 33.04 3.87 32.66 3.36 32.56 3.13 32.52 3.06 32.42 2.93 32.38 2.85 32.36 2.78 32.36 2.72 32.41 2.3 32.4 2.26 32.36 2.23 32.27 2.23 32.22 2.23 32.18 2.25 31.99 2.36 31.95 2.37 31.9 2.35 31.86 2.28 31.82 2.22 31.77 2.18 31.69 2.17 31.63 2.18 31.57 2.19 31.41 2.29 31.36 2.31 31.31 2.31 31.25 2.31 31.19 2.3 31.13 2.28 31.07 2.25 31 2.21 30.92 2.14 30.9 2.09 30.88 2.03 30.88 1.94 30.9 1.88 30.95 1.75 30.96 1.7 30.93 1.62 30.9 1.57 30.62 1.38 30.53 1.37 30.42 1.38 30.32 1.4 30.18 1.46 30.09 1.5 30.05 1.53 30 1.6 29.8 1.94 29.68 2.11 29.57 2.21 29.54 2.24 29.53 2.28 29.56 2.33 29.61 2.36 29.72 2.39 29.75 2.42 29.78 2.46 29.9 2.73 29.9 2.79 29.87 2.89 29.8 3.05 29.78 3.15 29.77 3.22 29.78 3.28 29.78 3.33 29.72 3.41 29.67 3.46 29.2 3.68 28.86 3.82 28.73 3.9 28.69 3.93 28.63 4 28.4 4.41 28.07 4.9 28 4.97 27.96 5 27.91 5.02 27.85 5.04 27.6 5.06 27.53 5.04 27.45 5.01 27.23 4.83 27.18 4.8 27.12 4.79 27.04 4.82 27.01 4.87 26.99 4.92 26.98 4.95 26.96 4.99 26.94 5.02 26.89 5.05 26.84 5.06 26.77 5.03 26.69 4.97 26.58 4.8 26.53 4.71 26.43 4.59 26.2 4.42 26.11 4.34 26.07 4.3 26.05 4.25 26.05 4.2 26.06 4.13 26.13 3.98 26.28 3.48 26.34 3.38 26.4 3.32 26.45 3.33 26.5 3.35 26.59 3.4 26.63 3.42 26.68 3.41 26.71 3.38 26.74 3.34 26.81 3.13 26.84 3.08 26.87 3.05 26.91 3.02 26.95 3 27.01 3 27.06 3.02 27.09 3.05 27.13 3.08 27.16 3.11 27.2 3.11 27.24 3.09 27.28 3.06 27.31 3.02 27.86 2.11 28.04 1.57 28.05 1.5 28.05 1.44 28.04 1.36 28.02 1.3 28 1.26 27.94 1.18 27.25 0.46 27.14 0.37 26.81 0.2 26.63 0.18 26.5 0.13 26.41 0.15 26.18 0.16 26.07 0.18 25.96 0.25 25.69 0.5 25.6 0.57 25.58 0.61 25.55 0.65 25.48 0.71 25.44 0.76 25.37 0.89 25.22 1.11 25.12 1.41 25.04 1.57 24.92 1.69 24.75 1.78 24.53 1.82 24.09 1.82 23.88 1.86 23.61 2.03 23.11 2.51 22.84 2.7 22.59 2.77 22.35 2.77 21.85 2.7 21.54 2.73 21.27 2.82 20.72 3.09 20.6 3.13 19.68 3.25 19.4 3.19 18.46 2.51 18.4 2.44 18.31 2.19 18.25 2.08 18.14 2.01 17.43 2 16.71 2.07 16.47 2.04 16.3 1.98 16.16 2.22 15.96 2.54 15.9 2.67 15.85 3.11 15.82 3.21 15.78 3.31 15.72 3.44 15.52 3.73 15.19 4.06 15.1 4.13 14.73 4.32 14.61 4.36 14.5 4.38 14.45 4.36 14.4 4.34 14.26 4.21 14.22 4.18 14.12 4.14 13.72 4.04 12.95 3.97 12.9 3.98 12.88 4.01 12.93 4.07 12.97 4.11 13.02 4.14 13.12 4.18 13.16 4.21 13.2 4.25 13.25 4.41 13.28 4.46 13.32 4.51 13.36 4.54 13.38 4.58 13.4 4.64 13.3 4.88 13.29 4.96 13.28 5.1 13.25 5.28 13.18 5.41 13.09 5.37 13.02 5.3 13 5.26 12.94 5.07 12.92 5.02 12.89 4.99 12.85 4.96 12.8 4.94 12.75 4.93 12.41 4.97 12.11 4.91 11.99 4.9 11.93 4.92 11.87 4.96 11.8 5.04 11.77 5.09 11.76 5.15 11.72 5.31 11.69 5.42 11.67 5.45 11.66 5.47 11.65 5.48 11.6 5.48 11.5 5.48 11.49 5.47 11.45 5.44 11.34 5.28 11.31 5.25 11.27 5.24 11.22 5.26 11.2 5.32 11.2 5.38 11.2 5.43 11.21 5.47 11.21 5.49 11.21 5.51 11.2 5.55 11.18 5.59 11.15 5.63 10.98 5.79 10.88 5.9 10.86 5.95 10.84 6 10.76 6.35 10.72 6.45 10.7 6.5 10.66 6.53 10.63 6.57 10.55 6.63 10.31 6.76 10.19 6.81 10.08 6.81 10.01 6.8 9.97 6.76 9.95 6.71 9.93 6.62 9.91 6.57 9.88 6.54 9.83 6.53 9.78 6.54 9.56 6.6 9.2 6.66 7.77 7.22 7.72 7.23 7.66 7.23 7.6 7.22 7.56 7.19 7.52 7.16 7.45 7.1 7.41 7.07 7.35 7.07 7.28 7.08 7.01 7.14 6.82 7.15 6.71 7.12 6.66 7.1 6.61 7.08 6.58 7.05 6.49 6.94 6.42 6.87 6.37 6.85 6.32 6.84 6.26 6.83 6.18 6.87 6.09 6.94 5.95 7.12 5.89 7.22 5.87 7.31 5.86 7.44 5.86 7.56 5.9 7.88 5.89 7.91 5.88 7.95 5.83 7.98 5.72 8 5.58 8.02 5.53 8.03 5.13 8.21 5.08 8.23 5.03 8.24 4.56 8.26 4.36 8.32 3.8 8.69 3.01 9.63 2.96 10.36 2.98 10.51 3.03 10.68 3.11 10.74 3.22 10.77 3.44 10.81 3.54 10.84 3.69 10.97 3.75 11 3.81 11.03 3.86 11.04 3.93 11.09 3.97 11.15 4 11.22 4.05 11.34 4.09 11.41 4.15 11.48 4.25 11.55 4.77 11.78 4.87 11.86 4.92 11.92 4.96 12 5 12.19 5.03 12.28 4.86 12.98 4.85 13.09 4.87 13.2 4.87 13.38 4.84 13.64 4.78 13.93 4.68 14.08 4.31 14.41 4.54 14.55 4.69 14.69 4.78 14.82 4.85 14.87 5.08 14.93 5.32 14.95 5.34 15.02 5.35 15.13 5.28 15.39 5.26 15.51 5.27 15.6 5.3 15.63 5.34 15.66 5.59 15.76 5.67 15.81 5.69 15.83 5.71 15.85 5.73 15.89 5.78 16.03 5.79 16.08 5.8 16.14 5.79 16.2 5.78 16.27 5.74 16.37 5.53 16.74 5.48 16.85 5.44 16.92 5.38 16.99 5.24 17.1 5.16 17.15 5.09 17.18 4.6 17.32 4.56 17.36 4.54 17.42 4.52 17.52 4.5 17.66 4.48 17.73 4.43 17.78 4.29 17.9 4.2 17.96 4.07 18.02 4.03 18.07 4 18.13 3.97 18.23 3.96 18.38 3.96 18.5 3.94 18.75 3.92 18.87 3.9 18.92 3.74 19.08 3.13 19.56 2.93 19.64 2.46 19.68 2.36 19.71 2.27 19.74 2.06 19.86 2.02 19.88 1.97 19.89 1.73 19.9 1.67 19.91 1.62 19.94 1.57 19.98 1.47 20.11 1.37 20.32 1.36 20.35 1.35 20.52 1.41 21.05 1.41 21.24 1.38 21.32 1.32 21.47 1.28 21.54 1.15 21.7 0.86 22.16 0.77 22.27 0.56 22.6 0.36 23.23 0.29 23.38 0.15 23.63 0.13 23.68 0.13 23.77 0.13 23.9 0.18 24.03 0.21 24.1 0.25 24.15 0.27 24.22 0.33 24.82 0.43 25.24 0.45 25.55 0.46 25.65 0.47 25.72 0.51 25.79 0.55 25.82 0.62 25.89 1.04 26.08 1.11 26.09 1.19 26.08 1.31 26.04 1.43 25.96 1.57 25.84 1.65 25.79 1.7 25.77 1.88 25.71 2.01 25.69 2.1 25.7 2.17 25.74 2.35 25.85 2.58 25.93 2.6 26.06 2.58 26.15 2.58 26.32 2.59 26.43 2.57 26.54 2.55 26.61 2.35 27.03 2.29 27.11 1.98 27.46 1.87 27.61 1.78 27.79 1.76 27.84 1.75 28.26 1.76 28.33 1.78 28.39 1.83 28.45 1.88 28.46 1.93 28.45 1.97 28.42 2 28.39 2.04 28.36 2.07 28.35 2.1 28.37 2.13 28.41 2.15 28.45 2.22 28.69 2.24 28.73 2.29 28.81 2.35 28.88 2.39 28.91 2.49 29 2.52 29.04 2.56 29.11 2.63 29.3 2.68 29.38 2.71 29.41 2.76 29.44 2.86 29.48 2.9 29.5 2.93 29.54 2.94 29.59 2.93 29.68 2.87 29.79 2.8 29.92 2.78 29.97 2.76 30.02 2.73 30.35 2.71 30.41 2.68 30.46 2.66 30.5 2.49 30.66 2.44 30.74 2.42 30.79 2.43 30.97 2.59 31.95 2.69 32.39 2.75 32.46 2.82 32.53 2.89 32.58 2.96 32.62 2.99 32.63 3.04 32.64 3.41 32.68 3.56 32.73 3.74 32.82 3.78 32.85 3.81 32.89 3.86 32.96 3.89 33 3.92 33.03 3.97 33.05 4.07 33.08 4.19 33.1 4.42 33.11 4.54 33.12 4.57 33.21 4.56 33.35 4.47 33.7 4.45 33.86 4.45 33.96 4.47 34.01 4.47 34.06 4.47 34.12 4.45 34.19 4.4 34.28 4.26 34.48 4.06 34.71 4 34.78 3.98 34.84 3.95 34.92 3.93 35.05 3.93 35.12 3.94 35.25 3.94 35.31 3.84 35.71 3.82 35.87 3.79 35.94 3.73 36.03 3.32 36.55 3.25 36.69 3.2 36.92 3.33 36.98 3.38 36.99 3.44 37 3.49 36.99 3.53 36.97 3.57 36.95 3.61 36.92 3.7 36.82 3.74 36.79 3.77 36.76 3.81 36.75 3.84 36.75 3.88 36.76 3.98 36.85 4.01 36.87 4.06 36.89 4.12 36.91 4.17 36.91 4.22 36.9 4.28 36.89 4.36 36.85 4.71 36.56 4.88 36.48 4.98 36.45 5.08 36.44 5.14 36.43 5.19 36.44 5.23 36.46 5.29 36.53 5.34 36.55 5.5 36.58 5.55 36.61 5.58 36.65 5.63 36.77 5.64 36.82 5.64 36.87 5.62 36.92 5.58 36.98 5.5 37.06 5.3 37.2 5.24 37.23 4.81 37.37 4.77 37.4 4.73 37.45 4.68 37.55 4.64 37.61 4.56 37.67 4.5 37.69 4.35 37.71 4.32 37.72 4.28 37.75 4.23 37.8 4.18 37.86 4.05 38.04 3.99 38.15 3.96 38.3 3.96 38.64 3.98 39.11 3.97 39.18 3.95 39.27 3.9 39.41 3.83 39.52 3.66 39.7 3.55 39.85 3.46 40.03 3.34 40.38 3.05 40.82 3.01 40.91 3.01 41.01 3.02 41.15 3.07 41.44 3.1 41.56 3.14 41.65 3.27 41.78 3.51 41.98 3.59 42.1 3.63 42.19 3.66 42.28 3.68 42.38 3.67 42.45 3.65 42.55 3.52 42.8 3.34 43.03 3.29 43.18 3.22 43.61 3.29 43.62 3.37 43.66 3.66 43.84 3.7 43.85 3.75 43.85 3.79 43.83 3.86 43.76 3.89 43.74 3.93 43.73 3.97 43.76 3.99 43.81 3.98 43.91 3.94 44.09 3.94 44.16 3.97 44.25 4.02 44.39 4.05 44.57 4.04 44.67 4.03 44.73 3.93 44.9 3.89 44.99 3.86 45.1 3.87 45.16 3.88 45.21 3.94 45.25 3.99 45.27 4.05 45.28 4.1 45.28 4.15 45.27 4.2 45.26 4.38 45.18 4.71 44.94 4.79 44.9 4.89 44.88 5.01 44.88 5.07 44.88 5.12 44.9 5.25 44.96 5.3 44.98 5.53 45.02 5.87 45.02 6.17 45.05 6.22 45.05 6.27 45.04 6.32 45.03 6.35 45 6.52 44.86 6.56 44.84 6.66 44.8 6.8 44.77 6.89 44.74 6.98 44.7 7.05 44.65 7.24 44.45 7.34 44.29 7.4 44.22 7.43 44.19 7.47 44.16 7.52 44.15 7.58 44.16 7.63 44.17 7.79 44.21 7.85 44.22 7.9 44.22 7.95 44.21 7.99 44.19 8.02 44.18 8.04 44.16 8.07 44.13 8.18 43.98 8.21 43.95 8.25 43.93 8.3 43.91 8.41 43.91 8.47 43.91 8.53 43.93 8.57 43.95 8.61 43.99 8.63 44.06 8.64 44.12 8.67 44.33 8.7 44.42 8.72 44.47 8.75 44.5 8.78 44.54 8.88 44.63 9.04 44.73 9.13 44.78 9.59 44.93 9.63 44.95 9.67 44.98 9.73 45.04 9.76 45.08 9.79 45.12 9.81 45.17 9.83 45.24 9.85 45.35 9.85 45.44 9.84 45.48 9.59 46.14 9.56 46.24 9.57 46.29 9.59 46.33 9.62 46.37 9.65 46.4 9.89 46.5 9.93 46.52 9.96 46.55 9.97 46.6 9.95 46.65 9.88 46.7 9.83 46.73 9.77 46.75 9.61 46.76 9.5 46.77 9.46 46.79 9.42 46.81 9.22 47 9.15 47.05 9.05 47.08 8.69 47.14 8.51 47.2 8.47 47.22 8.43 47.24 8.16 47.48 7.81 47.7 7.72 47.74 7.63 47.76 7.58 47.78 7.54 47.8 7.47 47.85 7.39 47.9 7.34 47.91 7.3 47.93 7.25 47.98 7.21 48.04 7.15 48.17 7.11 48.27 7.08 48.39 7.07 48.7 7.05 48.81 6.99 48.9 6.91 49.01 6.82 49.11 6.71 49.26 6.66 49.34 6.56 49.64 6.52 49.73 6.47 49.82 6.36 49.97 6.23 50.09 6.09 50.2 5.44 50.55 5.37 50.6 5.3 50.66 5.27 50.7 5.25 50.74 5.25 50.78 5.29 50.83 5.36 50.88 5.62 50.97 5.87 51 5.91 51.01 5.96 51.05 6.01 51.11 6.1 51.24 6.18 51.38 6.22 51.43 6.26 51.46 6.48 51.56 6.77 51.67 6.87 51.74 6.92 51.82 7.04 52.13 7.11 52.24 7.17 52.29 7.24 52.33 7.31 52.34 7.39 52.34 7.43 52.34 7.48 52.32 7.52 52.3 7.55 52.27 7.61 52.2 7.72 52.04 7.78 51.98 7.88 51.89 7.96 51.85 8.01 51.83 8.24 51.83 8.43 51.87 8.54 51.87 8.61 51.87 8.7 51.83 9.05 51.61 9.11 51.59 9.22 51.56 9.28 51.57 9.32 51.59 9.34 51.63 9.38 51.72 9.39 51.76 9.44 51.8 9.5 51.84 9.63 51.88 9.71 51.88 9.76 51.86 9.8 51.84 9.83 51.81 9.86 51.77 9.88 51.73 9.91 51.62 9.95 51.33 9.98 51.25 10.04 51.19 10.18 51.13 10.27 51.11 10.35 51.12 10.44 51.16 10.56 51.19 10.71 51.21 10.76 51.23 10.8 51.26 10.83 51.29 10.85 51.33 10.88 51.42 10.92 51.47 10.97 51.5 11.07 51.53 11.13 51.53 11.18 51.52 11.22 51.49 11.25 51.45 11.3 51.38 11.54 50.96 11.63 50.85 11.66 50.83 11.71 50.8 11.76 50.78 12.38 50.63 12.42 50.61 12.46 50.59 12.49 50.56 12.53 50.52 12.56 50.48 12.62 50.44 12.67 50.44 12.71 50.45 12.76 50.46 13 50.62 13.08 50.64 13.18 50.65 13.39 50.65 13.5 50.64 13.58 50.62 13.7 50.56 13.73 50.53 14.23 50.08 14.33 50.02 14.44 49.96 14.51 49.94 14.57 49.92 14.63 49.92 14.68 49.92 14.73 49.93 14.83 49.97 14.96 50.05 15.01 50.08 15.05 50.06 15.07 50.02 15.09 49.92 15.14 49.89 15.52 49.77 15.75 49.73 15.8 49.74 15.86 49.76 15.9 49.78 15.97 49.83 16.03 49.9 16.3 50.32 16.33 50.36 16.39 50.41 16.44 50.45 16.76 50.64 16.8 50.67 16.83 50.7 16.86 50.73 16.91 50.81 16.96 50.95 17.15 51.24 17.25 51.34 17.69 51.56 17.78 51.65 17.96 51.85 18.02 51.9 18.09 51.92 18.14 51.92 18.56 51.8 18.67 51.78 18.8 51.79 18.85 51.78 18.91 51.75 18.93 51.71 18.93 51.67 18.79 51.21 18.77 51 18.79 50.64 18.78 50.59 18.77 50.54 18.75 50.5 18.73 50.46 18.56 50.24 18.54 50.2 18.52 50.16 18.51 50.12 18.51 50.07 18.52 50.01 18.56 49.86 18.58 49.77 18.58 49.68 18.55 49.48 18.56 49.41 18.59 49.32 18.68 49.16 18.75 49.09 18.83 49.03 18.99 48.94 19.03 48.92 19.24 48.89 19.47 48.9 19.65 48.94 19.72 48.94 19.8 48.93 19.84 48.89 19.84 48.85 19.82 48.81 19.72 48.66 19.68 48.58 19.67 48.51 19.4 48.18 19.39 48.12 19.39 48.05 19.43 48.03 19.49 48.03 19.56 48.02 19.61 47.97 19.66 47.84 19.68 47.75 19.65 47.69 19.6 47.59 19.57 47.48 19.57 47.09 19.55 47.02 19.48 46.86 19.29 46.15 19.28 46.03 19.29 45.95 19.43 45.84 19.71 45.68 19.78 45.62 19.84 45.55 20.06 45.17 20.12 45.1 20.25 44.98 20.29 44.92 20.33 44.84 20.4 44.68 20.43 44.59 20.43 44.51 20.41 44.24 20.41 44.15 20.43 44.03 20.55 43.61 20.61 43.16 20.64 43.11 20.72 42.95 20.78 42.8 20.81 42.76 20.93 42.59 20.97 42.51 20.99 42.44 20.98 42.39 20.96 42.34 20.87 42.18 20.85 42.13 20.84 42.06 20.83 41.94 20.84 41.87 20.86 41.81 20.89 41.78 20.98 41.62 21.05 41.43 21.1 41.35 21.14 41.29 21.22 41.25 21.27 41.23 21.35 41.19 21.38 41.15 21.4 41.11 21.52 40.82 21.55 40.78 21.58 40.74 21.61 40.71 21.65 40.69 21.74 40.66 21.85 40.64 21.9 40.62 21.95 40.58 21.96 40.54 21.95 40.49 21.93 40.46 21.83 40.36 21.78 40.29 21.74 40.2 21.71 40.04 21.72 39.87 21.73 39.79 21.75 39.74 21.98 39.48 22.13 39.36 22.16 39.33 22.24 39.29 22.38 39.24 22.77 39.21 22.86 39.18 22.91 39.17 22.95 39.15 23.17 38.99 23.32 38.92 23.38 38.86 23.43 38.76 23.66 38.31 23.95 37.93 24.11 37.29 24.13 37.08 24.12 37.03 24.1 36.98 24.05 36.9 24.03 36.83 24.01 36.71 24.02 36.57 24.02 36.48 24.01 36.42 23.97 36.23 23.94 36.01 23.94 35.9 23.96 35.83 24.32 35.35 24.44 35.22 24.48 35.19 24.61 35.04 24.82 34.71 24.85 34.69 24.89 34.67 24.94 34.66 24.99 34.66 25.04 34.68 25.07 34.71 25.13 34.78 25.18 34.86 25.2 34.9 25.23 34.93 25.27 34.96 25.32 34.98 25.37 34.99 25.42 34.98 25.47 34.95 25.53 34.91 25.6 34.82 25.63 34.75 25.65 34.68 25.68 34.45 25.81 33.92 25.81 33.86 25.81 33.84 25.8 33.83 25.77 33.82 25.6 33.8 25.55 33.78 25.5 33.76 25.43 33.7 25.38 33.63 25.16 33.26 25.12 32.98 25.12 32.75 25.1 32.63 25.08 32.55 25.06 32.51 24.99 32.42 24.95 32.36 24.89 32.23 24.87 32.16 24.85 32.08 24.85 32.01 24.85 31.9 24.86 31.82 24.88 31.76 24.93 31.68 25.04 31.52 25.07 31.4 25.19 30.41 25.21 30.36 25.26 30.28 25.58 29.94 25.73 29.71 25.76 29.66 25.81 29.63 25.84 29.6 26.01 29.51 26.05 29.49 26.23 29.3 26.28 29.27 26.32 29.27 26.42 29.36 26.46 29.37 26.5 29.36 26.67 29.29 26.83 29.19 27 29.11 27.05 29.1 27.16 29.08 27.57 29.08 27.62 29.07 27.72 29.04 27.89 28.96 27.98 28.93 28.04 28.92 28.09 28.93 28.25 28.97 28.31 28.98 28.36 28.98 28.41 28.95 28.45 28.92 28.88 28.52 29.01 28.43 29.34 28.15 29.55 27.57 29.65 27.41 29.86 27.22 29.92 27.15 30.05 26.93 30.3 26.58 30.32 26.52 30.32 26.46 30.3 26.35 30.26 26.3 30.17 26.23 30.14 26.2 30.13 26.15 30.13 26.03 30.12 25.98 30.1 25.95 30.06 25.94 30.02 25.96 29.98 25.99 29.94 26 29.9 25.99 29.87 25.96 29.85 25.92 29.82 25.65 29.83 25.58 29.86 25.5 30.01 25.25 30.04 25.2 30.05 25.14 30.05 25.04 30.04 24.98 30.02 24.93 29.91 24.65 29.88 24.56 29.86 24.33 29.86 24.22 29.89 23.97 29.95 23.84 30.44 23.01 30.59 22.83 30.89 22.37 31.3 22 31.37 21.95 31.41 21.91 31.44 21.8 31.46 21.67 31.39 21.11 31.46 21.04 31.51 21.03 31.59 21.03 31.66 21.05 31.76 21.09 31.94 21.03 32.41 20.67 32.53 20.52 32.57 20.48 32.71 20.43 32.86 20.38 33 20.31 33.07 20.25 33.2 20.1 33.27 20.04 33.32 20.01 33.38 20 33.48 20.02 33.53 20.04 33.57 20.08 33.59 20.12 33.61 20.16 33.65 20.32 33.66 20.37 33.68 20.41 33.74 20.48 33.84 20.58 33.89 20.66 33.91 20.69 33.94 20.79 33.95 20.83 34 20.91 34.08 21.03 34.15 21.09 34.24 21.14 34.57 21.29 34.69 21.32 34.89 21.34 34.92 21.35 34.97 21.37 35.11 21.48 35.16 21.51 35.21 21.52 35.26 21.52 35.32 21.5 35.4 21.45 35.5 21.33 35.56 21.26 35.59 21.2 35.61 21.14 35.62 21.08 35.6 20.86 35.61 20.8 35.63 20.68 35.67 20.58 35.7 20.54 35.76 20.46 35.82 20.4 35.86 20.38 35.91 20.36 36.22 20.29 36.33 20.28 36.38 20.27 36.44 20.25 36.76 20.08 36.95 20.02 37 20.01 37.05 20.01 37.24 20.02 37.3 20.02 37.49 19.93 37.56 19.91 37.62 19.91 37.91 19.96 37.97 19.94 38.02 19.9 38.11 19.78 38.13 19.76 38.13 19.74 38.15 19.71 38.19 19.67 38.28 19.63 38.35 19.59 38.44 19.43 38.49 19.38 38.58 19.34 38.64 19.34 38.71 19.35 38.82 19.37 38.88 19.37 38.93 19.37 39.03 19.34 40.02 18.95 40.35 18.92 40.4 18.91 40.45 18.88 40.48 18.82 40.5 18.69 40.51 18.47 40.59 18.15 40.59 18.07 40.57 18.01 40.38 17.87 40.35 17.83 40.33 17.79 40.32 17.74 40.32 17.68 40.38 17.59 40.5 17.46 40.82 17.21 41.14 17.03 41.35 16.73 41.37 16.67 41.39 16.61 41.37 16.41"/></g></g></svg>