<svg xmlns="http://www.w3.org/2000/svg" viewBox="0 0 174.19 90.34"><defs><style>.cls-1{fill:#878787;stroke:#f9f9f9;stroke-linecap:round;stroke-linejoin:round;stroke-width:0.25px;fill-rule:evenodd;}</style></defs><g id="Layer_2" data-name="Layer 2"><g id="China_-_Provinces" data-name="China - Provinces"><polygon id="Tibet" class="cls-1" points="173.96 71.84 173.91 71.68 173.72 71.39 173.68 71.28 173.68 70.9 173.65 70.72 173.56 70.52 173.65 70.23 173.5 69.18 173.5 68.85 173.47 68.8 173.35 68.66 173.28 68.44 173.08 68.15 173.04 68 173.05 67.63 173.16 66.98 173.18 66.93 173.26 66.9 173.27 66.87 173.26 66.82 173.18 66.75 173.16 66.71 173.2 66.37 173.3 66.05 173.62 65.45 173.51 65.17 173.46 64.87 173.44 64.1 173.4 63.98 173.04 63.24 172.82 60.19 172.79 60.08 172.71 60.01 172.63 59.95 172.59 59.9 172.57 59.8 172.58 59.03 172.54 58.9 172.53 58.8 172.5 58.6 172.36 58.22 172.36 58.03 172.46 57.91 172.62 57.86 172.76 57.78 172.82 57.6 172.77 57.4 172.63 57.28 172.3 57.1 172.15 56.96 171.75 56.47 171.48 56.23 171.37 56.11 171.26 55.9 171.36 55.74 171.46 55.52 171.52 55.27 171.5 55.03 171.45 54.98 171.26 54.87 171.18 54.8 171.01 54.55 170.85 54.37 170.81 54.3 170.57 53.73 170.23 53.43 170.12 53.39 169.9 53.34 169.82 53.29 169.96 53.11 169.89 52.45 169.97 52.13 170.11 51.93 170.21 51.86 170.34 51.82 170.49 51.86 170.75 52.11 170.83 52.16 170.9 52.23 171.1 52.56 171.15 52.66 171.2 52.7 171.32 52.62 171.5 52.43 171.73 52.04 172.1 51.62 172.19 51.49 172.04 51.38 172.01 51.36 171.82 51.07 169.73 49.09 169.59 48.93 169.53 48.77 169.51 48.49 169.49 48.4 169.45 48.33 169.4 48.28 169.36 48.25 169.31 48.2 168.97 47.61 168.69 47.45 168.5 47.09 168.33 46.99 168.41 46.88 168.41 46.74 168.29 46.35 168.28 46.34 168.31 46.32 168.41 46.21 168.49 46.06 168.56 45.81 168.59 45.54 168.56 45.31 168.43 45.12 168.06 44.76 167.99 44.53 167.9 44.36 167.36 43.88 167.04 43.27 166.61 42.67 166.55 42.46 166.54 42.23 166.55 41.82 166.49 41.64 166.33 41.53 165.97 41.38 165.9 41.32 165.84 41.25 165.79 41.2 165.71 41.18 165.52 41.19 165.44 41.16 165.4 41.08 165.32 40.98 164.88 40.57 163.81 40.24 163.55 40.03 163.4 40.1 163.23 40.08 162.37 39.78 162.36 39.85 162.26 40.12 162.21 40.2 162.2 40.21 162.19 40.22 162.05 40.26 161.96 40.32 161.92 40.41 161.89 40.53 161.84 40.66 161.76 40.74 161.66 40.77 161.58 40.75 161.5 40.68 161.31 40.47 161.21 40.4 161.09 40.37 160.57 40.37 159.73 40.18 159.53 40.18 159.44 40.2 159.4 40.21 159.38 40.3 159.37 40.41 159.34 40.54 159.28 40.68 159.17 40.84 159.1 40.97 159.1 41.08 159.19 41.15 159.31 41.2 159.49 41.23 159.6 41.28 159.67 41.35 159.69 41.49 159.67 41.66 159.51 42.02 159.51 42.13 159.63 42.29 159.63 42.38 159.53 42.53 159.39 42.58 159.18 42.57 159.01 42.52 158.81 42.54 158.69 42.66 158.59 42.86 158.5 43.14 158.42 43.53 158.42 43.69 158.44 43.81 158.47 43.89 158.51 43.92 158.55 43.93 158.61 43.94 158.67 43.96 158.69 44.03 158.66 44.16 158.51 44.41 158.38 44.5 158.26 44.53 158.04 44.48 157.91 44.52 157.87 44.58 157.84 44.81 157.7 44.95 157.57 45.03 157.41 45.06 157.06 45.04 156.52 44.93 156.37 44.94 156.22 44.98 155.8 45.21 155.65 45.25 155.54 45.24 155.43 45.21 155.29 45.21 155.14 45.24 154.72 45.42 154.57 45.44 154.3 45.41 154.17 45.46 154.13 45.54 154.15 45.63 154.22 45.73 154.57 46.04 154.6 46.17 154.56 46.33 154.39 46.58 154.29 46.74 154.26 46.88 154.29 47 154.35 47.13 154.53 47.39 154.61 47.55 154.66 47.74 154.65 47.95 154.52 48.19 154.38 48.29 154.26 48.32 154.16 48.3 153.94 48.19 153.55 47.9 153.43 47.85 153.32 47.84 153.03 47.78 152.68 47.74 152.03 47.58 151.87 47.51 151.62 47.35 151.45 47.21 151.19 46.94 150.76 46.23 150.56 46.08 150.31 46.05 149.84 46.2 149.63 46.31 149.51 46.42 149.5 46.48 149.46 46.58 149.39 46.7 149.19 46.93 149.16 47.15 149.22 47.32 149.35 47.44 149.66 47.65 149.76 47.76 149.85 47.91 149.9 48.08 149.93 48.28 149.91 48.43 149.87 48.61 149.82 48.75 149.79 48.89 149.78 49.02 149.79 49.09 149.82 49.17 149.92 49.26 149.96 49.3 149.95 49.39 149.9 49.49 149.74 49.67 149.59 49.72 149.46 49.69 149.38 49.59 149.32 49.46 149.28 49.32 149.23 49.21 149.09 49.01 149.02 48.87 149 48.73 148.99 48.54 148.96 48.36 148.88 48.21 148.77 48.1 148.63 48.01 148.5 47.97 148.36 47.95 148.21 47.95 147.58 48.05 147.13 48.05 146.71 47.96 146.58 47.98 146.46 48.03 146.29 48.13 146.17 48.16 146.08 48.12 146.01 48.03 145.91 47.86 145.8 47.74 145.67 47.65 145 47.51 144.8 47.49 144.56 47.5 144.26 47.56 144 47.66 143.84 47.69 143.76 47.69 143.67 47.64 143.41 47.38 143.1 47.13 143 47.02 142.93 46.88 142.89 46.73 142.86 46.26 142.81 46.09 142.56 45.6 142.54 45.47 142.57 45.35 142.62 45.26 142.71 45.16 142.75 45.15 143.05 45.07 143.12 45.03 143.15 44.97 143.13 44.91 143.09 44.85 143.03 44.79 143 44.72 143 44.64 143.04 44.55 143.13 44.43 143.16 44.32 143.15 44.22 143.1 44.12 143.04 44.03 143.01 43.93 142.98 43.67 142.91 43.56 142.79 43.48 142.39 43.4 142.25 43.34 142.16 43.26 142.08 43.16 141.97 42.93 141.91 42.83 141.84 42.78 141.76 42.75 140.56 42.71 140.24 42.64 140.1 42.58 139.59 42.13 139.32 42 139.22 41.91 139.2 41.87 139.18 41.83 139.15 41.73 139.13 41.61 139.07 40.93 139.05 40.83 139.01 40.73 138.95 40.65 138.87 40.58 138.34 40.22 137.53 39.86 137.44 39.79 137.39 39.69 137.32 39.41 137.25 39.3 137.15 39.23 136.94 39.1 136.83 39.02 136.72 38.91 136.46 38.57 136.35 38.5 136.23 38.47 136.08 38.51 135.96 38.59 135.7 38.82 135.56 38.91 135.42 38.98 134.98 39.12 134.87 39.18 134.77 39.26 134.64 39.31 134.53 39.27 134.38 39.09 134.3 39.04 134.19 39.09 134.14 39.16 134.11 39.26 134.11 39.41 134.09 39.58 134 39.72 133.85 39.81 132.94 39.92 132.69 39.99 132.54 40.12 132.48 40.18 132.46 40.22 132.43 40.26 132.32 40.34 132.12 40.43 131.23 40.41 130.79 40.25 130.61 40.12 130.53 40.14 130.44 40.18 130.41 40.2 130.37 40.22 130.16 40.26 129.95 40.22 129.81 40.1 129.53 39.67 129.31 39.56 128.96 39.5 128.21 39.49 127.81 39.58 127.49 39.76 127.29 39.93 127.08 40.06 126.95 40.08 126.79 40.03 126.67 39.88 126.6 39.73 126.52 39.59 126.39 39.52 126.01 39.56 125.84 39.53 125.7 39.45 125.36 39.13 124.64 38.63 124.44 38.56 124.14 38.54 123.49 38.58 123.39 38.62 123.32 38.67 123.25 38.71 123.17 38.71 123.06 38.59 123 38.45 122.94 38.26 122.9 38.07 122.85 37.89 122.78 37.82 122.68 37.8 122.18 37.94 122.02 37.97 121.54 37.95 120.51 37.63 119.86 37.83 119.12 37.71 119.02 37.71 118.83 37.7 118.67 37.67 118.32 37.54 118.19 37.54 118.1 37.57 118.03 37.61 117.98 37.66 117.93 37.68 117.85 37.66 117.64 37.55 117.54 37.53 117.43 37.55 117.35 37.61 117.28 37.67 117.22 37.72 117.15 37.72 117.07 37.69 116.99 37.63 116.91 37.61 116.84 37.63 116.72 37.72 116.64 37.77 116.56 37.79 116.47 37.81 116.36 37.81 116.27 37.79 116.17 37.73 116.11 37.62 115.98 37.09 115.98 36.97 116.02 36.88 116.07 36.79 116.11 36.72 116.12 36.66 116.11 36.61 116.06 36.56 115.94 36.5 115.76 36.44 115.41 36.37 115.26 36.37 115.13 36.39 115.02 36.44 114.93 36.52 114.86 36.59 114.77 36.66 114.67 36.7 114.49 36.75 114.38 36.76 114.22 36.76 114.01 36.67 113.78 36.53 113.19 36.02 113.06 35.86 112.95 35.69 112.84 35.57 112.68 35.48 112.55 35.47 112.31 35.49 112.19 35.48 112.06 35.42 111.31 34.88 111.03 34.75 110.57 34.45 110 33.85 109.18 32.55 109.11 32.41 109.11 32.34 109.12 32.3 109.15 32.28 109.19 32.27 109.25 32.26 109.29 32.23 109.33 32.2 109.36 32.16 109.37 32.13 109.37 32.09 109.35 32.05 109.3 31.99 109.2 31.93 109.13 31.9 109.05 31.89 107.61 31.89 107.51 31.91 107.44 31.94 107.39 31.99 107.34 32.04 107.3 32.11 107.27 32.2 107.25 32.29 107.23 32.49 107.21 32.58 107.18 32.65 107.09 32.71 106.33 32.91 106.19 32.92 105.6 32.86 105.52 32.89 105.14 33.24 104.82 33.6 104.69 33.71 104.54 33.8 104.37 33.85 104.12 33.86 103.85 33.85 103.35 33.76 103.17 33.7 102.52 33.37 101.57 32.74 101.29 32.44 101.19 32.38 101.07 32.36 100.77 32.42 100.64 32.42 100.34 32.37 100.19 32.31 100.05 32.21 99.93 32.1 99.83 31.99 99.67 31.78 99.35 31.24 99.3 31.11 99.26 30.95 99.24 30.71 99.26 30.55 99.32 30.34 99.33 30.26 99.32 30.23 99.29 30.18 99.2 30.09 99.06 29.86 98.97 29.65 98.89 29.55 98.81 29.47 98.44 29.28 98.31 29.25 98.13 29.24 97.94 29.2 97.61 29.09 97.53 29.04 97.47 29 97.42 28.95 97.36 28.83 97.33 28.67 97.3 28.36 97.23 28.09 97.14 27.96 97.02 27.88 96.79 27.77 96.72 27.69 96.7 27.58 96.72 27.39 96.72 27.23 96.68 27.11 96.6 27.02 95.95 26.44 95.87 26.41 95.71 26.36 95.63 26.31 95.46 26.14 94.95 25.4 94.87 25.23 94.81 25.05 94.76 24.93 94.61 24.65 94.57 24.48 94.58 24.29 94.67 24.05 94.76 23.91 94.86 23.82 94.95 23.79 95.05 23.77 95.26 23.77 95.37 23.73 95.44 23.68 95.58 23.5 95.79 23.31 95.84 23.23 95.91 22.96 96.1 22.03 96.16 21.9 96.28 21.73 96.32 21.62 96.33 21.5 96.29 21.36 96.22 21.29 96.16 21.25 96.02 21.22 95.98 21.2 95.94 21.16 95.91 21.11 95.89 20.98 95.88 20.79 95.92 20.12 95.87 19.63 95.63 18.53 95.55 18.41 95.46 18.33 95.38 18.26 95.32 18.19 95.28 18.1 95.25 17.99 95.24 17.9 95.26 17.83 95.31 17.75 95.84 17.27 96.05 17.01 96.16 16.67 96.02 16.06 95.84 15.85 95.77 15.81 95.62 15.76 95.32 15.72 94.65 15.77 94.35 15.76 94.13 15.7 94.01 15.63 93.96 15.54 93.94 15.44 93.94 15.31 93.99 15.05 94.05 14.65 94.05 14.5 94.03 14.35 93.94 14.16 93.77 13.91 93.37 13.44 93.18 13.17 93.05 12.92 93.05 12.8 93.06 12.73 93.09 12.67 93.12 12.62 93.21 12.53 93.25 12.47 93.29 12.37 93.31 12.23 93.3 12.09 93.26 11.81 93.27 11.7 93.3 11.6 93.36 11.52 93.44 11.46 93.53 11.42 94.07 11.29 94.43 11.14 95.36 10.56 95.42 10.5 95.46 10.42 95.47 10.3 95.42 10.2 95.32 10.13 95.21 10.07 95.11 10.01 95.03 9.89 95.03 9.78 95.08 9.68 95.25 9.46 95.3 9.3 95.3 9.16 95.22 8.79 95.22 8.65 95.23 8.52 95.34 8.27 95.72 7.57 95.79 7.38 95.86 7.15 95.89 6.86 95.89 6.71 95.85 6.62 95.8 6.57 95.71 6.53 95.61 6.51 95.48 6.5 94.91 6.58 94.55 6.56 94.11 6.49 93.78 6.37 93.53 6.24 93.38 6.15 93.3 6.07 93.2 5.92 93.08 5.7 92.95 5.33 92.9 5.12 92.89 4.96 92.91 4.88 92.92 4.85 92.92 4.83 92.97 4.77 93.15 4.56 93.38 4.38 93.55 4.29 94.21 4.08 94.92 3.99 91.11 2.11 90.95 2.08 90.16 2.12 89.89 2.1 89.57 2.03 89.18 2 89.09 1.98 89.02 1.95 88.89 1.86 88.25 1.21 87.99 1.03 87.88 0.99 87.79 0.97 86.82 1.02 85.23 0.55 85.17 0.52 85.13 0.49 85.09 0.46 85.06 0.42 85.04 0.39 85.01 0.35 84.96 0.3 84.83 0.23 84.7 0.19 84.19 0.13 83.17 0.19 82.09 0.4 81.5 0.44 80.84 0.4 80.78 0.41 80.73 0.43 80.64 0.49 80.57 0.55 80.36 0.76 80.21 0.88 79.9 1.01 79.6 1.08 78.88 1.11 77.24 1.38 76.77 1.37 76.65 1.35 76.24 1.22 75.76 1 75.51 0.95 75.35 0.96 74.08 1.69 73.96 1.72 72.98 1.81 72.71 1.89 72.53 1.96 72.46 2 70.94 2.09 70.66 2.14 70.05 2.44 69.85 2.51 69.61 2.56 69.01 2.6 68.23 2.51 68.04 2.52 67.92 2.57 67.83 2.66 67.73 2.78 67.66 2.9 67.58 2.98 67.51 3.03 67.41 3.08 66.35 3.33 66.12 3.43 66.02 3.48 65.94 3.54 65.84 3.64 65.8 3.73 65.76 3.85 65.67 4.33 65.63 4.48 65.56 4.63 65.48 4.74 65.39 4.83 65.18 4.99 65.14 5.04 65.12 5.09 65.07 5.27 65 5.65 64.99 5.7 64.79 6.12 64.68 6.28 64.3 6.63 64 7.05 63.95 7.11 63.84 7.18 63.65 7.27 63.47 7.29 62.12 7.18 61.92 7.2 61.78 7.25 61.68 7.32 60.87 8.18 60.69 8.3 60.56 8.36 60.46 8.38 60.38 8.37 60.32 8.32 60.27 8.25 60.23 8.15 60.12 7.84 60.1 7.79 60.06 7.76 59.46 7.42 59.38 7.39 59.27 7.37 58.94 7.34 58.75 7.36 58.53 7.42 58.32 7.52 58.05 7.6 57.94 7.62 57.85 7.62 57.8 7.6 57.55 7.46 57.47 7.44 57.15 7.41 56.93 7.42 55.03 8.04 54.39 8.61 53.8 8.95 52.19 9.3 52.01 9.37 49.08 11.12 48.74 11.25 48.58 11.26 48.4 11.24 48.23 11.18 47.71 10.89 47.61 10.85 47.48 10.82 47.35 10.82 47.15 10.84 46.19 11.27 44.05 11.43 43.63 11.41 43.42 11.35 43.07 11.16 42.68 11.07 41.84 11.07 41.64 11.04 41.5 11 41.22 10.87 40.95 10.79 40.78 10.77 40.65 10.78 40.2 10.94 39.91 10.96 39.71 10.88 39.57 10.76 39.42 10.59 39.24 10.44 38.94 10.3 38.76 10.18 38.65 10.08 38.62 10 38.61 9.94 38.61 9.82 38.7 8.95 38.69 8.74 38.62 8.53 38.52 8.37 38.35 8.2 38.15 8.1 37.92 8.04 37.42 8.01 37.23 8.04 37.08 8.09 36.63 8.37 36.46 8.44 36.13 8.43 34.34 8.06 34.09 8.03 33.97 8.07 33.85 8.14 33.63 8.32 33.52 8.37 33.33 8.44 33.25 8.51 33.17 8.61 33.13 8.76 33.12 9.13 33.09 9.25 33.05 9.36 33 9.44 32.92 9.52 32.36 9.92 31.22 10.52 31.13 10.58 31.05 10.66 31 10.74 30.97 10.81 30.86 11.34 30.8 11.5 30.75 11.62 30.68 11.7 30.6 11.77 30.51 11.83 29.86 12.11 28.07 12.59 27.17 12.68 26.94 12.66 26.79 12.6 26.68 12.53 25.98 11.93 25.81 11.84 25.61 11.77 25.27 11.71 25.1 11.7 24.28 11.89 24.06 11.89 23.87 11.86 23.59 11.74 23.2 11.48 23 11.28 22.87 11.18 22.72 11.12 22.61 11.13 22.53 11.18 22.46 11.27 22.41 11.38 22.39 11.47 22.38 11.54 22.38 11.61 22.41 11.92 22.4 11.99 22.34 12.04 22.26 12.07 22.1 12.11 22 12.11 21.93 12.1 21.73 12 21.21 11.65 21.06 11.59 20.91 11.55 20.81 11.54 20.68 11.54 20.35 11.59 20.14 11.59 20.07 11.58 19.95 11.54 19.75 11.45 19.39 11.22 19.34 11.2 19.22 11.17 18.25 11.1 18.01 11.05 17.79 10.96 16.97 10.42 16.77 10.24 16.39 9.89 16.33 9.86 16.01 9.7 15.89 9.84 15.88 9.91 15.88 9.96 15.9 10.12 15.92 10.3 15.92 10.64 15.89 10.83 15.84 10.98 15.69 11.26 15.19 12.51 15.1 12.69 14.97 12.86 14.53 13.27 14.02 13.87 13.88 14.08 13.83 14.22 13.83 14.35 13.87 14.44 13.93 14.53 13.99 14.6 14.05 14.68 14.09 14.79 14.11 14.92 14.08 15.09 14.03 15.2 13.96 15.29 13.87 15.35 13.79 15.39 13.72 15.42 13.3 15.49 13.19 15.52 13.09 15.56 12.98 15.63 12.87 15.73 12.74 15.92 12.71 16.05 12.71 16.18 12.86 16.46 12.89 16.56 12.94 16.95 12.96 17.06 13.01 17.15 13.32 17.56 13.36 17.66 13.39 17.79 13.4 17.94 13.38 18.18 13.34 18.31 13.23 18.52 13.19 18.59 12.99 18.91 12.7 19.67 12.56 19.97 11.98 20.88 11.87 21 11.78 21.05 11.67 21.08 11.55 21.09 11.43 21.08 11.34 21.07 11.28 21.04 11.24 21.03 10.81 20.77 10.38 20.6 9.62 20.47 9.36 20.47 9.12 20.52 8.96 20.57 8.52 20.8 8.38 20.84 8.16 20.88 7.33 20.78 7.16 20.78 7.04 20.8 5.64 21.35 5.55 21.4 5.31 21.62 5.2 21.7 4.96 21.8 4.96 21.8 5.12 22.11 5.2 22.34 5.22 22.58 5.2 22.81 5.12 23.04 4.51 23.64 3.69 23.99 3.06 24.43 2.98 25.29 3.39 26.52 3.53 27.16 3.59 27.81 3.48 29.73 3.65 30.32 3.85 30.65 4.61 31.38 4.63 31.39 5.09 32.16 5.23 32.24 5.54 32.33 5.68 32.4 5.83 32.49 5.93 32.62 5.97 32.81 5.98 33.05 6.05 33.1 6.34 32.97 6.61 32.99 7.25 33.34 7.54 33.44 8.21 33.46 8.5 33.61 8.52 33.98 8.45 34.13 8.27 34.41 8.21 34.59 8.17 35.12 8.12 35.31 8.12 35.68 8.29 35.94 8.78 36.38 8.94 36.69 9 36.99 9.09 37.28 9.32 37.54 9.52 37.77 9.56 38.09 9.48 38.45 9.32 38.77 8.97 39.2 8.15 39.86 7.79 40.27 7.64 40.31 7.47 40.26 7.3 40.17 7.13 40.14 6.92 40.17 6.67 40.25 6.43 40.36 6.27 40.49 6.18 40.71 6.09 41.3 5.95 41.49 5.88 41.5 5.65 41.44 5.56 41.43 5.44 41.46 5.23 41.56 5.12 41.59 4.84 41.74 4.58 41.65 4.33 41.44 4.11 41.2 3.4 40.59 3.26 40.28 3.11 39.76 3.1 39.62 3.14 39.44 3.21 39.27 3.23 39.1 3.11 38.93 2.91 38.85 2.75 38.93 2.51 39.23 2.36 39.36 2.22 39.44 1.88 39.52 0.68 39.56 0.35 39.64 0.16 39.74 0.13 39.94 0.36 40.45 0.69 40.94 0.72 41.04 0.69 41.1 0.63 41.16 0.59 41.24 0.57 41.37 0.59 41.42 0.61 41.47 0.81 42.37 0.8 42.59 0.76 42.77 0.77 42.89 0.86 42.92 0.86 42.92 0.93 42.94 1.23 43.11 1.42 43.37 1.56 43.67 2.38 44.79 2.62 44.99 2.99 45.21 3.09 45.3 3.18 45.51 3.15 45.69 2.97 46.11 2.92 46.3 2.86 46.72 2.81 46.91 2.58 47.25 2.56 47.41 2.77 47.64 2.76 47.73 2.74 47.82 2.75 47.92 2.79 47.99 2.89 48.12 2.96 48.29 3 48.36 3.06 48.42 3.14 48.44 3.29 48.43 3.6 48.75 3.8 49.01 3.76 49.13 3.62 49.29 2.8 49.97 2.76 50.18 3.08 50.38 3.33 50.6 3.31 50.92 3.18 51.3 3.13 51.68 3.15 51.85 3.18 51.94 3.25 52 3.51 52.13 3.61 52.14 3.83 52.08 4.05 52.11 4.16 52.1 4.29 52.04 4.3 52.02 4.4 51.93 4.49 51.79 4.63 51.49 4.77 51.56 4.98 51.77 5.12 51.82 5.22 51.6 5.28 51.17 5.44 50.79 5.85 50.71 5.97 50.78 6.21 50.98 6.49 51.15 6.54 51.29 6.57 51.44 6.66 51.59 6.73 51.62 6.89 51.63 6.95 51.67 6.98 51.78 6.98 51.87 6.96 51.96 6.95 52.06 6.98 52.14 7.11 52.25 7.16 52.32 7.16 52.4 7.14 52.48 7.13 52.57 7.16 52.67 7.29 52.77 7.43 52.8 7.55 52.88 7.6 53.08 7.6 53.27 7.63 53.44 7.69 53.6 7.8 53.74 8.01 53.85 8.24 53.92 8.44 54.03 8.53 54.18 8.58 54.27 8.63 54.59 8.69 54.72 8.8 54.75 8.93 54.72 9.06 54.72 9.19 54.74 9.32 54.81 9.35 54.85 9.38 54.89 9.4 54.95 9.42 55 9.49 55.13 9.62 55.28 9.76 55.4 9.89 55.46 10.07 55.51 10.17 55.55 10.27 55.53 10.61 55.31 10.76 55.28 11.1 55.26 11.52 55.15 11.7 55.17 12.31 55.32 12.46 55.39 12.56 55.52 12.71 55.8 12.9 56.02 12.99 56.08 13.03 56.1 13.16 56.19 13.76 56.43 13.95 56.59 14.08 56.83 14.24 57.04 14.48 57.14 14.63 57.11 14.89 56.96 15.03 56.96 15.13 57.04 15.36 57.4 15.6 57.53 15.65 57.62 15.45 58 15.39 58.05 15.32 58.06 15.24 58.06 15.16 58.07 15.11 58.11 15.11 58.23 15.2 58.35 15.31 58.47 15.39 58.58 15.42 58.77 15.37 58.92 15.29 59.06 15.22 59.23 15.53 59.16 15.83 59.17 16.45 59.35 17.28 59.83 17.7 59.99 17.98 60.17 18.12 60.21 18.29 60.18 18.41 60.14 18.54 60.13 18.71 60.2 19.54 60.66 19.78 60.85 19.88 60.98 20.05 61.3 20.15 61.44 20.27 61.54 20.99 61.85 21.63 62.03 21.9 62.17 22.07 62.45 22.13 62.59 22.07 62.74 22.16 62.81 22.27 62.98 22.36 63.16 22.47 63.48 22.66 63.8 22.73 63.94 22.81 64.37 22.82 64.39 22.92 64.47 23.15 64.42 23.34 64.41 23.73 64.59 23.92 64.56 24.01 64.42 24 64.15 24.11 64.07 24.26 64.03 24.34 63.96 24.35 63.94 24.39 63.87 24.42 63.72 24.41 63.65 24.34 63.5 24.34 63.43 24.43 63.37 24.56 63.36 24.7 63.36 24.81 63.35 24.94 63.25 25.04 63.12 25.1 62.96 25.14 62.66 25.24 62.48 25.27 62.39 25.27 62.31 25.21 62.15 25.2 62.07 25.19 61.73 25.22 61.58 25.31 61.44 25.35 61.3 25.33 61.15 25.35 61.03 25.52 60.98 25.68 61.04 25.99 61.34 26.16 61.43 26.38 61.47 26.47 61.43 26.57 61.06 26.61 60.98 26.67 60.94 26.83 60.91 26.94 60.86 26.99 60.78 27.01 60.7 27.07 60.63 27.25 60.61 27.44 60.67 28.46 61.13 28.64 61.18 28.83 61.15 29.01 61.08 29.19 61.05 29.55 61.21 29.84 61.19 30 61.22 30.08 61.27 30.18 61.42 30.23 61.47 30.32 61.48 30.4 61.45 30.48 61.41 30.56 61.38 30.91 61.36 31.11 61.38 31.24 61.45 31.28 61.6 31.18 62.15 31.21 62.41 31.3 62.58 31.45 62.69 31.67 62.77 31.8 62.89 31.76 63.07 31.57 63.44 31.57 63.57 31.63 63.77 31.71 63.97 31.79 64.08 31.96 64.1 32.11 64.05 32.26 64.02 32.64 64.25 32.81 64.28 32.98 64.28 33.17 64.33 33.24 64.39 33.34 64.55 33.41 64.61 33.55 64.63 33.68 64.61 33.8 64.61 33.93 64.69 34.04 64.83 34.18 64.97 34.33 65.08 34.49 65.16 34.89 65.29 35.04 65.38 35.68 66.18 35.83 66.28 35.92 66.28 36.09 66.23 36.18 66.23 36.28 66.3 36.28 66.38 36.24 66.47 36.22 66.59 36.29 66.75 36.8 67.15 36.96 67.39 37.05 67.48 37.15 67.53 37.25 67.56 37.34 67.62 37.4 67.74 37.51 67.91 37.69 67.85 37.88 67.71 38.04 67.64 38.12 67.67 38.24 67.82 38.31 67.87 38.4 67.88 38.59 67.85 38.68 67.87 39.16 68.29 39.23 68.39 39.34 68.62 39.43 68.69 39.55 68.68 39.6 68.58 39.63 68.44 39.67 68.34 39.73 68.32 39.95 68.26 40.15 68.24 40.25 68.25 40.34 68.28 40.46 68.37 40.49 68.42 40.52 68.55 40.54 68.59 40.6 68.63 40.75 68.68 40.81 68.72 41.01 68.92 41.07 69.04 41.09 69.19 41.07 69.27 41.02 69.32 40.97 69.38 40.96 69.5 41.1 69.7 41.64 69.59 41.87 69.82 41.89 70 41.87 70.14 41.88 70.26 42.13 70.47 42.15 70.57 42.14 70.69 42.19 70.82 42.28 70.92 42.39 70.97 42.48 71.04 42.55 71.31 42.65 71.39 42.88 71.49 43.03 71.59 43.11 71.74 43.19 72.09 43.2 72.3 43.22 72.4 43.28 72.48 43.38 72.52 43.6 72.55 43.69 72.62 43.78 72.68 44.13 72.75 44.25 72.75 44.38 72.7 44.39 72.69 44.45 72.56 44.49 72.39 44.55 72.24 44.72 72.07 44.92 72 45.14 71.99 45.35 72.01 45.54 71.99 45.92 71.8 46.12 71.74 46.18 71.71 46.25 71.58 46.3 71.53 46.56 71.46 46.72 71.44 46.82 71.44 46.92 71.47 47 71.51 47.05 71.58 47.07 71.71 47.18 71.66 47.28 71.63 47.38 71.65 47.46 71.75 47.57 71.86 47.72 71.84 47.88 71.78 48.03 71.78 48.11 71.87 48.16 72.13 48.22 72.23 48.34 72.26 48.47 72.24 48.58 72.26 48.63 72.39 48.58 72.55 48.47 72.7 48.39 72.86 48.44 73.04 48.62 73.22 48.67 73.29 48.7 73.38 48.75 73.68 48.94 73.8 49.13 73.86 49.22 73.98 49.01 74.8 49.17 75.05 49.25 75.19 49.68 75.44 50.25 75.55 50.35 75.6 50.44 75.67 50.58 75.91 50.75 76.06 50.83 76.15 50.95 76.58 51.06 76.77 51.27 76.83 51.46 76.83 51.6 76.89 51.74 76.97 51.91 77.03 52.37 77.11 52.45 77.15 52.53 77.32 52.59 77.39 52.75 77.45 52.91 77.48 53.01 77.56 52.97 78 53.07 78.08 53.46 78.1 53.62 78.18 53.84 78.43 53.98 78.55 54.09 78.59 54.19 78.61 54.66 78.58 54.76 78.59 54.9 78.64 54.99 78.65 55.07 78.63 55.13 78.57 55.24 78.34 55.29 78.29 55.54 78.15 55.62 78.13 55.69 78.09 55.75 78.02 55.83 77.85 55.88 77.77 55.94 77.72 56.13 77.67 56.3 77.74 56.61 77.96 57.02 78.09 57.08 78.2 56.99 78.68 56.96 78.75 56.91 78.84 56.85 78.89 56.7 78.95 56.65 79.02 56.64 79.07 56.64 79.25 56.59 79.38 56.37 79.51 56.32 79.6 56.39 80.12 56.39 80.31 56.36 80.59 56.34 80.71 56.4 80.85 56.59 80.96 56.8 80.97 56.97 80.88 57.13 80.85 57.4 81.1 57.55 81.16 57.71 81.19 57.85 81.2 57.96 81.18 58.2 81.07 58.29 81.05 58.4 81.1 58.48 81.19 58.57 81.26 58.71 81.27 58.84 81.21 59.04 81 59.15 80.92 59.29 80.92 59.42 80.96 59.66 81.09 59.84 81.06 60.04 81.05 60.23 81.08 60.41 81.12 60.58 81.24 60.7 81.36 60.8 81.35 61.03 81 61.1 80.95 61.27 80.89 61.33 80.83 61.34 80.75 61.34 80.66 61.37 80.58 61.48 80.56 61.53 80.76 61.54 81.18 61.67 81.43 61.83 81.63 62.02 81.81 62.24 81.95 62.61 82.12 62.79 82.23 62.91 82.37 62.94 82.47 62.98 82.68 63.13 82.88 63.15 82.97 63.14 83.06 63.14 83.17 63.21 83.39 63.3 83.52 63.59 83.78 63.7 83.95 63.69 84.14 63.66 84.33 63.65 84.52 63.75 84.76 63.9 84.81 64.28 84.77 64.49 84.79 64.52 84.79 64.58 84.78 64.69 84.72 64.96 84.46 65.01 84.42 65 84.32 64.96 84.26 64.9 84.2 64.86 84.13 64.86 84.02 64.88 83.94 64.88 83.87 64.81 83.78 64.81 83.78 64.81 83.78 64.81 83.78 64.72 83.72 64.71 83.66 64.73 83.6 64.73 83.53 64.76 83.37 64.77 83.31 64.75 83.24 64.65 83.1 64.64 83 65.37 82.25 65.54 82.28 65.62 82.47 65.63 82.7 65.58 82.89 65.51 83.05 65.52 83.14 65.59 83.21 65.65 83.32 65.7 83.59 65.76 83.71 65.89 83.78 65.89 83.78 65.89 83.78 66.06 83.83 66.23 83.85 66.39 83.88 66.53 83.99 66.73 84.24 66.81 84.3 66.89 84.32 66.96 84.29 67.03 84.25 67.11 84.24 67.18 84.28 67.47 84.51 67.63 84.58 67.74 84.57 68.05 84.41 68.23 84.32 68.34 84.18 68.4 84 68.4 84 68.39 83.78 68.39 83.61 68.44 83.51 68.52 83.41 68.58 83.28 68.6 83.14 68.6 82.99 68.63 82.85 68.7 82.75 68.84 82.72 68.95 82.8 69.07 82.91 69.2 82.97 69.32 82.94 69.51 82.77 69.61 82.72 69.77 82.73 69.93 82.8 70.08 82.89 70.2 83 70.24 83.12 70.2 83.4 70.27 83.53 70.52 83.62 71.11 83.59 71.34 83.78 71.34 83.78 71.42 84.01 71.56 84.16 71.74 84.25 71.95 84.27 72.2 84.23 72.3 84.2 72.36 84.18 72.5 84.19 72.71 84.31 72.97 84.59 73.43 85.2 73.76 85.38 73.98 85.39 74.41 85.34 74.89 85.47 75.09 85.35 75.27 85.18 75.5 85.1 75.69 85.15 75.65 85.28 75.55 85.44 75.55 85.58 75.7 85.58 76.44 85.37 76.77 85.29 76.91 85.27 77.08 85.32 77.12 85.36 77.15 85.44 77.19 85.52 77.26 85.57 77.4 85.58 77.66 85.44 77.79 85.4 77.99 85.43 78.15 85.49 78.33 85.57 78.55 85.55 78.8 85.43 79 85.25 79.15 85.02 79.28 84.76 79.38 84.61 79.47 84.6 79.64 84.69 80.29 84.72 80.38 84.75 80.56 84.84 80.66 84.86 80.78 84.84 81 84.75 81.09 84.74 81.29 84.8 81.65 85 81.83 85.04 81.72 84.87 81.66 84.64 81.68 84.41 81.81 84.23 81.91 84.2 82.11 84.23 82.21 84.23 82.31 84.2 82.5 84.12 84.02 83.89 84.2 83.78 84.2 83.78 84.2 83.78 84.67 83.43 84.83 83.39 85.06 83.46 85.18 83.36 85.3 83.17 85.48 82.99 85.83 82.72 85.97 82.73 86.14 82.94 86.31 83.07 86.8 83.14 87.02 83.21 87.39 83.46 87.58 83.63 87.7 83.78 87.7 83.78 87.7 83.78 87.72 83.94 87.64 84.25 87.65 84.41 87.72 84.53 87.92 84.75 87.99 84.89 88.02 85.06 88.01 85.21 87.6 86.99 87.42 87.3 87.28 87.64 87.12 87.88 87.06 88.02 87.07 88.15 87.2 88.34 87.2 88.49 87.17 88.78 87.22 89.06 87.33 89.31 87.52 89.52 87.63 89.59 87.72 89.64 87.81 89.69 87.99 89.93 88.1 90.02 88.33 90.18 88.52 90.04 88.82 90.06 89 90.21 89.21 90.04 89.08 89.81 88.93 89.45 88.82 89.08 88.88 88.85 88.95 88.65 89.09 88.52 89.07 88.47 89.03 88.38 89.01 88.28 89.05 88.16 89.17 88.09 89.28 87.98 89.26 87.88 89.37 87.73 89.52 87.7 89.57 87.56 89.66 87.43 89.77 87.36 90 87.26 90.09 87.28 90.12 87.29 90.15 87.3 90.24 87.33 90.28 87.36 90.3 87.25 90.54 86.89 90.9 86.27 90.96 86.11 91.05 85.89 91.12 85.55 91.41 85.36 91.75 85.2 92.06 84.97 92.34 84.59 92.74 83.84 92.77 83.78 92.77 83.78 92.97 83.44 93.08 83.28 93.22 83.15 93.39 83.09 93.56 82.95 93.95 82.46 94.1 82.36 94.25 82.31 95.26 82.13 95.58 81.98 95.73 81.72 95.79 81.56 95.92 81.46 96.2 81.28 96.27 81.19 96.4 81.01 96.48 80.93 96.57 80.88 96.63 80.91 96.92 80.74 97.23 80.81 97.39 80.72 97.55 80.69 98.22 80.46 98.66 80.56 98.91 80.68 99.11 80.65 99.3 80.43 99.52 80.34 99.82 80.56 99.82 80.9 100.07 81.26 100.39 81.31 100.6 80.9 100.87 80.9 101.12 81.05 101.45 81.05 101.87 81.37 102.23 81.4 102.56 81.52 102.64 81.83 102.39 81.93 102.23 82.24 101.95 82.27 101.7 82.55 101.61 83.05 101.76 83.03 101.91 83.03 102.45 83.11 102.64 83.06 102.84 83.04 103.09 82.91 103.23 82.88 103.36 82.91 103.73 83.15 103.96 83.21 104.25 83.28 104.77 83.31 105.26 83.42 105.69 83.78 105.81 83.9 106.09 84.04 106.45 84.08 106.8 84 107.02 83.78 107.02 83.78 107.02 83.78 107.14 83.6 107.49 83.19 107.65 83.06 107.87 83.02 108.08 83.05 108.28 83.04 108.45 82.86 108.62 83.2 108.88 83.44 109.53 83.78 109.68 83.83 109.76 83.86 109.89 83.88 110.19 83.88 110.53 84.02 110.87 84.06 111.06 84.11 111.23 84.2 111.37 84.3 111.5 84.52 111.46 84.7 111.36 84.89 111.29 85.12 111.28 85.34 111.33 86 112.51 85.96 112.86 86.05 113.15 86.23 113.28 86.28 113.64 86.26 114.01 86.33 114.2 86.31 114.51 86.17 114.99 85.67 115.3 85.52 115.47 85.5 116.17 85.56 116.27 85.55 116.33 85.52 116.38 85.42 116.36 85.33 116.33 85.25 116.33 85.16 116.42 85 116.5 85.03 116.58 85.16 116.72 85.51 116.83 85.68 116.96 85.75 117.07 85.58 117.17 85.31 117.22 85.32 117.26 85.47 117.35 85.59 117.5 85.58 117.56 85.42 117.61 85.22 117.71 85.09 117.8 85.11 117.91 85.35 118 85.42 118.09 85.4 118.4 85.18 118.8 85.05 118.92 84.97 119.15 84.72 119.25 84.67 119.45 84.63 119.68 84.53 119.97 84.31 120.18 84.03 120.21 83.78 120.21 83.78 120.21 83.78 120.21 83.78 120.3 83.49 120.3 83.37 120.19 83.27 119.9 83.24 119.77 83.19 119.76 83.05 119.91 82.73 120.1 82.47 120.35 82.26 120.87 81.91 120.95 81.88 120.98 81.92 121 82 121.04 82.04 121.17 82.05 121.29 82.03 121.42 81.99 121.55 81.91 121.67 81.79 121.87 81.5 121.99 81.37 122.15 81.28 122.47 81.17 122.59 81.06 122.81 80.81 123.58 80.26 123.78 80.03 123.94 79.71 124.06 79.36 124.11 79.04 124.38 78.82 124.65 78.6 125.02 78.4 125.46 78.01 125.78 77.81 126.55 77.36 127.43 77.29 127.9 77.36 128.05 77.35 128.2 77.28 128.34 77.15 128.46 77.06 128.58 77.1 128.72 77.17 128.86 77.12 129.44 76.6 129.57 76.53 130.07 76.37 130.13 76.31 130.16 76.21 130.25 76.18 130.35 76.18 130.43 76.16 130.46 76.08 130.44 76.03 130.41 75.97 130.41 75.9 130.51 75.82 130.68 75.79 130.85 75.79 130.98 75.8 131.13 75.71 131.29 75.63 131.42 75.53 131.86 75.35 132.33 75.21 132.65 74.9 133.29 74.87 133.64 74.45 134.11 74 133.79 73.66 133.47 73.3 133.6 72.82 133.91 72.84 134.01 72.8 134.1 72.71 134.24 72.46 134.32 72.36 134.52 72.25 134.74 72.22 135.18 72.22 135.37 72.17 135.51 72.12 135.63 72.02 136.08 71.33 136.23 71.2 136.48 71.18 136.8 71.3 137.1 71.51 137.54 72.03 137.63 72.19 137.58 72.56 137.71 72.64 137.9 72.64 138.03 72.62 138.36 72.61 138.67 72.7 139.3 72.99 139.49 73.04 139.43 72.96 139.29 72.8 139.2 72.61 139.35 72.7 139.49 72.76 139.98 72.89 140.41 73.14 140.56 73.2 141.19 73.31 141.26 73.33 141.33 73.38 141.37 73.45 141.38 73.53 141.4 73.61 141.47 73.66 141.95 73.73 141.89 73.16 142.16 72.93 142.7 72.9 143.02 72.99 143.15 72.54 143.32 72.45 143.34 72.82 143.5 73.06 143.57 72.92 143.88 72.97 143.96 72.91 143.97 72.69 143.88 72.34 143.91 72.23 144.2 72.2 144.22 72.13 144.21 72.03 144.23 71.95 144.32 71.88 144.39 71.87 144.47 71.87 144.56 71.84 145.01 72.05 145.6 72.14 145.86 71.61 145.83 70.98 146.1 70.93 146.26 70.86 146.83 71.13 147.59 70.8 148.09 70.75 148.6 70.7 149.17 70.71 149.24 70.84 149.37 71.33 149.46 71.49 149.7 71.78 149.95 71.92 150.22 71.92 150.53 71.73 150.69 71.6 150.8 71.56 150.91 71.61 151.05 71.77 151.05 71.9 150.85 72.22 150.72 72.51 150.63 72.59 149.74 72.84 149.6 72.92 149.52 73.05 149.44 73.19 149.62 73.97 150.33 73.49 150.92 73.3 151.05 73.88 151.82 74.28 151.76 74.41 151.77 74.51 151.84 74.58 151.96 74.59 152.11 74.73 152.18 74.91 152.26 75.32 152.37 75.52 152.81 76.06 152.95 76.54 152.99 77 152.19 77.62 151.63 77.94 151.9 78.38 151.56 78.81 151.85 79.1 152.13 79.74 152.28 79.67 152.32 79.1 152.4 78.67 152.66 78.19 153.12 77.95 153.84 78.14 154.43 78.81 155.02 79.2 155.4 79.67 155.51 80.37 155.81 80.54 156.08 80.6 156.35 80.54 156.64 80.35 157.03 80.18 157.34 80.26 157.9 80.75 157.99 80.78 158.07 80.78 158.13 80.81 158.22 81.05 158.29 81.13 158.76 81.5 159.08 81.67 159.17 81.5 159.47 81.33 159.54 81.23 159.59 81.03 159.71 81 159.86 81.02 160.03 81.02 160.13 80.91 160.16 80.72 160.16 80.36 160.15 80.28 160.12 80.19 160.1 80.1 160.14 80.02 160.28 79.88 160.32 79.8 160.35 79.69 160.46 79.54 160.59 79.2 160.68 79.04 160.8 78.71 160.95 78.63 161.13 78.75 161.32 79.04 161.52 79.16 161.75 79.01 161.99 78.89 162.24 79.11 162.58 80.11 162.79 80.39 163.06 80.47 163.58 80.22 163.9 80.36 164.29 80.9 164.58 81.07 164.7 81.18 164.71 81.34 164.63 81.61 164.68 81.7 165.02 81.76 165.17 81.84 165.72 82.37 165.9 82.25 166.54 81.92 166.69 81.81 166.84 81.65 166.95 81.46 167.03 81.25 167.13 80.74 167.27 80.37 167.5 80.47 167.59 80.55 167.66 80.64 167.89 80.99 168.2 81.36 168.38 81.49 168.51 81.54 168.78 81.43 168.87 81.38 169.44 80.89 169.59 80.72 169.91 80.25 170.04 79.97 170.13 79.71 170.16 79.53 170.17 79.38 170.15 79.25 170.13 79.13 170.09 78.99 169.9 78.62 169.74 78.2 169.67 77.79 169.66 77.57 169.7 77.37 169.77 77.25 169.85 77.14 169.95 77.05 170.4 76.75 170.44 76.69 170.45 76.62 170.45 76.55 170.34 76.09 170.31 76.01 170.27 75.96 170.24 75.89 170.23 75.8 170.24 75.71 170.26 75.66 170.25 75.61 170.14 75.46 170.12 75.39 170.12 74.89 170.09 74.79 170.15 74.67 170.18 74.57 170.22 74.52 170.34 74.48 170.88 74.37 170.99 74.34 171.07 74.29 171.14 74.22 171.19 74.2 171.24 74.2 171.29 74.2 171.33 74.22 171.34 74.22 171.35 74.23 171.35 74.23 171.64 75.32 171.82 75.79 171.9 75.95 171.98 76.01 172.09 76.03 172.29 75.98 172.41 75.93 172.69 75.74 172.73 75.68 172.74 75.57 172.71 75.48 172.63 75.37 172.47 75.19 172.39 75.07 172.37 74.97 172.38 74.84 172.46 74.6 172.58 74.36 172.68 74.26 172.72 74.23 173.09 74.02 173.18 73.91 173.22 73.81 173.22 73.68 173.2 73.53 173.15 73.34 173.11 73.22 173.01 73.03 172.96 72.89 172.92 72.71 172.94 72.5 172.99 72.39 173.07 72.3 173.13 72.27 173.2 72.25 173.39 72.25 173.51 72.23 173.66 72.17 174.02 72.1 174.06 72.09 174.06 72.09 173.96 71.84"/></g></g></svg>