<svg xmlns="http://www.w3.org/2000/svg" viewBox="0 0 38.75 44.39"><defs><style>.cls-1{fill:#878787;stroke:#f9f9f9;stroke-linecap:round;stroke-linejoin:round;stroke-width:0.25px;fill-rule:evenodd;}</style></defs><g id="Layer_2" data-name="Layer 2"><g id="China_-_Provinces" data-name="China - Provinces"><path id="Fujian" class="cls-1" d="M13.78,42.62l-.17.1-.11-.08-.13,0,0-.16-.08,0h-.15l-.11.06,0,.19h0v.17l-.29.27v.09l0,0,.08,0,.06,0,.1,0,.09,0,.06,0-.2.52-.27.24-.14.2H13l.48-.09L13.41,44l-.08-.06,0-.18,0-.17.1-.12.1,0,.19.07.1-.05,0-.24.06-.19.1-.09.17,0,.09-.22-.19-.09Zm6-7.15-.15,0-.21,0-.22-.09-.16-.1,0,.17-.12.24,0,.13,0,.13h.06l.2-.11,0,.13L19,36l-.1,0-.08.05v.06l0,.07.06.07.09.06.19.08h.19l.14-.07.06-.19,0-.13.06-.06.08-.05.06-.1v-.08l-.06-.18Zm11.5-6.2h-.07l-.08,0-.09,0-.09,0-.08-.07-.05-.1,0-.09,0,0h0l0-.05-.05,0-.1.1,0,0-.06,0,0,.06,0,.14.1.1.23.07,0,0,.08,0,.08,0v.07l0,.09,0,.1.1.05h.11l.06-.06v-.13l.05-.08.08,0,0-.05-.05,0Zm-1.75-2.83,0-.27,0-.07L29.53,26V26l0-.06-.09,0-.09.1,0,0-.06.08,0,0,0,0v.05l-.19.51v.18L29,27l0,.1.07.19h.05l.09-.06.11,0,.07,0v-.11l0-.17,0-.2Zm4.09-.52-.11-.08.13-.1-.08-.1-.08-.06-.08,0-.1.05-.1-.11,0-.17v-.16l0-.06H33l-.11.06,0,0-.13,0-.14.14-.13.17-.05.17.09.16,0-.08.08-.05h.07l0,.09-.11.34v.08l.09.1L33,26.3l.16.08-.1.14-.15,0-.44-.06h-.08l-.07.06-.08.12.08.06h.18l.09-.06v.17l0,0-.07.05,0,0,0,.18.09.13.15.09.15.05.15,0,0-.05,0-.1V27.2l.12-.16.19-.12.22,0,.22.06-.06-.17-.28-.15-.07-.18.05-.16.12-.12.13,0,.11.12.13-.1.1-.09L33.81,26Zm-3.87-4.1-.54-.21-.27-.05-.13,0-.12-.09-.18-.3-.1-.09.07.37.07.11.09.09.08.1,0,.13.05.11.13,0h.15l.1,0,.08.05.28.1.22,0,.08.05h.08l.12-.11L30,22Zm2.05-1-.12-.06-.2.08-.18.22.09.14.47.15.15-.06.05-.07L32,21.13l-.1-.18Zm6.41-7.63,0,0,0-.11,0-.07,0,0,0,0,0,0h-.12l-.09.08h0l0,0v.09l.07.09.21.15.28-.11v0Zm.07-2.25-.13-.08-.19.07.15-.27v-.15l-.14-.16,0,.06v0l0,0h0v-.06l-.12.08-.11.1-.07-.1-.23-.12,0-.13-.06,0-.15.06-.25.15,0,0v.06l0,.06-.08,0h-.09l0,0v-.17l.14-.16,0-.06v-.07l0-.08V9.92l0-.09.14.14,0,.11.06,0,.15-.14V9.9l-.07,0,0,0,0-.05,0-.07.12,0,.09,0,.08,0,.11,0,0,0V9.58l.1.07,0,0,0,.07,0,0,.17-.08,0,.13,0,0-.06,0,.06.07,0,0h0v0l.07,0-.1,0-.1.08-.06.11,0,.14.1.07h.12l.13,0,.12,0,.24.13.26.48.18.1-.07-.22v-.08l0,0,0-.54-.06-.29-.06-.14-.09-.16L38,9.18,38,9.1l-.06,0H37.8l-.21,0-.06,0-.08,0-.19-.18-.07,0-.08,0-.12,0H36.8l-.54.13L36.09,9,36,9l-.34.32-.08.05-.05,0h-.17l-.06,0h-.06L35,9.27l-.06,0h-.06l0,0-.2.12-.06.07,0,0,0,0,0,0-.05,0H34.1l-.11,0-.09,0-.07,0-.08,0h-.11l0,0,0,0-.06,0-.1,0h-.21l-.1,0-.05,0,0,0V9.36l0,0-.09-.1-.05-.09,0-.06-.22-.19-.11-.12,0-.09v-.1l0-.37V8.08l0-.15,0-.11,0-.06,0-.07-.12-.11-.05-.07,0-.06V7.2l0-.08-.07,0-.11,0-.06,0,0,0,0,0V6.78l0,0,.05-.09,0,0V6.43l-.06-.06,0,0h-.17l-.22-.06h-.11l-.08.06-.1.1-.15.2-.06.11,0,.09V7l0,.08-.13.2,0,0,0,.23V7.6l-.05.09-.06,0-.09.06-.26.11h-.05l0,0,0,0-.05,0h-.05l-.07,0-.08,0L29.62,8,29.55,8l-.06.07,0,.12,0,.05-.07,0-.29.08,0,0-.05,0,0,.1-.06.1-.07,0-.12,0h-.23l-.25,0-.24,0-.2-.08,0,0,0-.06,0-.09,0-.07-.07,0h-.05l0,0,0,0,0,0h-.1l-.13-.08h-.05l-.4-.08h-.13l-.28.07H26.2l-.14,0-.11,0-.09-.05L25.78,8l-.11-.12V7.83l0-.09,0,0h.1l0,0,0,0,0,0,0,0V7.46l-.24-1,0-.12,0,0,0,0V6.14l0-.07L25.71,6V5.91l0-.08,0-.1-.13-.18-.06-.13L25.3,5l-.06-.28,0-.37,0-.11-.06-.13L25.07,4l0,0-.18-.1-.08-.06-.19-.21,0,0,0,0v0l0-.35,0-.72,0-.13,0,0,0,0,.2-.2,0-.06V1.84l-.06-.14,0-.08,0-.05,0,0V1.41l0,0,0,0,.12-.07.07-.06,0,0V1l0-.09L24.81.8,24.64.66,24.56.53l-.15-.4L24.32.2,24.2.28l0,0-.07.07L24,.41l-.1,0-.41.07h-.05l0,0,0,0,0,0-.06,0h-.08l-.48.14-.05,0,0,0-.07.14h-.14L22,.48l-.33.18-.32.25L21.22,1l0,.09v.11l0,0,0,0,.2.14V1.6l-.07.32v.22l0,.13,0,.06,0,0h-.06l-.32,0-1,.39-.11,0h-.11l-.11,0h-.13l-.08,0-.05,0-.1.16-.06,0-.09,0,0,0,0,0v0l-.09.12-.06,0-.06,0-.29-.05H18.4l-.06,0-.2.09h-.35l-.19.07-.32.17-.05,0h-.17l-.3.06-.05,0,0,0-.07.07L16.54,4l0,0,0,.1,0,.12v.4l0,.06,0,.07-.11.12-.07,0L16.1,5H16l0,0-.15-.11,0,0h0l-.21,0-.11,0-.34-.15-.08,0-.07-.06-.08-.12,0-.08,0,0,0-.1v0L14.68,4l-.1-.1-.05-.07,0,0,0,0,0-.16,0,0,0,0-.05,0,0,0-.09,0h-.06l-.05,0-.07.06-.13.15-.08.06-.14.07-.15,0-.14.06,0,0-.11.15-.48.36-.18.06-.1,0-.06,0h-.13l-.08.07.07.56v.13l0,.11,0,0-.08,0-.4.38-.31.46-.15.18-.49.83,0,.13,0,.25v.11l0,.23,0,.09.12.28v.27l0,0L10.7,9l0,.08V9.1l0,.27,0,0,0,0h.08l0,0,0,0h0l0,0v.22l0,0,.08.07,0,.05,0,.11V10l0,0-.25.35-.13.22-.06.07-.21.18L10.4,11l-.21.58-.33.29L9.72,12l-.43.4,0,0,0,0H9.1l-.16,0H8.83l-.1,0-.17.08-.09,0H8l-.1,0H7.85l-.18.08-.15.1-.17.08H7.26l-.1-.09h0l0,0-.19.2,0,0-.16.09,0,0,0,0,0,.05-.14.23-.32.34-.06.08,0,0-.11,1,0,.12-.11.16,0,.08,0,.07v.25l0,.08,0,.07.06.13,0,.06L5.9,16l0,0,0,.08v.35l0,.28.21.37.06.07.07.06,0,0,.06,0,.16,0h0v0h0v.06l-.13.53,0,.23v.07l0,.07-.08.09,0,0-.05,0H6.16l0,0,0,0,0,0,0,0,0-.08,0-.07,0,0,0,0H5.74l0,0,0,0-.22.33-.13.15,0,0-.13.14-.36.47v.18l0,.22.05.19v.29l0,.12,0,.07,0,.08,0,.05,0,.05,0,.21-.16.64-.29.38-.22.45-.06.1,0,.06L4,22.44l-.22.15,0,0h0l-.1,0-.39,0-.13,0-.08,0,0,0-.14.12-.24.26v0l0,.08v.17l0,.16,0,.09,0,.07.1.1,0,0V24l0,0-.06,0h-.1l-.1,0,0,0,0,0,0,0,0,0-.12.29,0,0,0,0-.08,0,0,0-.08,0-.05.06-.05.08-.07.19-.08.16,0,0,0,.06,0,.07v.12l0,.07,0,.05.09.16V26L1.77,26l-.12.18,0,0-.06.15-.09.16,0,.05-.07.45-.11.42,0,.12v.09l0,.27V28l0,.09-.06.16-.05.08,0,.06L1,28.55l-.06.07L.68,29l-.05.07-.07.06-.28.16-.14.11v.2l.2.71.07.16v.46l0,.11,0,.09,0,.07v.09l0,.13-.06,0H.27l0,0v.13L.51,32H.92l.15,0,.19.12.1.05h.1l.1,0,.09,0h.06l.05,0,0,0,0,0,.07.11.06,0,.09.06.19.1.1,0,.09,0h.22l.11,0,.09,0h.24l.45.07.08,0v.21l0,.06,0,0h0L4,32.91l.08,0,.18-.13.08,0,0,0,.13,0h.11l0,0,0,0v.15l0,0,.13.24.16.22.06.13,0,.07.24.26.1.16,0,.08.18.49h0v0l0,0,.05.06.06,0H5.9l0,0,0,0,.29-.22.24-.11.29-.07.09,0,.09,0h.85l.06,0,0,0v.2l0,.1,0,.09-.06.21-.07.42v.16l.07.08.49.34.07.07,0,0,0,0v.26l0,.08,0,0,.07.09.28.23,0,0,0,0L9,37l.41,1.17.17.29,0,.2,0,.06-.07.13-.14.19,0,.06,0,.1,0,.19,0,.14v.12l.07.41,0,.14.05.08,0,0,.06,0v0l.16.74,0,.05,0,0,.07.1,0,0,.07.17.31,1.2,0,.1.1.15.11.13.07.06.16.11.36.17,0,0,.07.06.07.09.13.22h0l.1,0,.28-.08v-.09l0-.11-.07-.12.14-.18,0-.07.06.19.07.13-.08.16v.14l0,.17.16-.09.18-.19-.13-.17,0-.22.07-.07,0-.31.12-.23.05-.14-.12-.19.12-.06.1.12.13.13.22-.06.07-.08.06-.08.06-.06.12,0,.43.17.25-.11.22-.41.08-.37-.26-.35h-.16l-.19,0-.14,0,0-.18.08-.13.12,0,.21.17.16,0h.53l.16.06.12.09.1.13.08.16,0,.17v.17l0,.32-.12.19,0,.2v.18l.18-.24.06-.11.16-.17-.11-.17v-.25l.07-.31.12-.32.19-.21.2-.2-.06-.23v-.17L15.8,40h-.14l-.11,0-.07-.08,0-.14.21.15.26.12.22,0,.06-.31h.05l.06.18,0,.05,0,.08-.05,0-.11.06,0,.09.21-.12.1.06-.06.18-.45.47L16,41.1l.06.11h.1l.08-.07,0-.13,0-.16.06-.11.22-.19.34-.4.19-.11.27.07,0-.11v-.1l0-.09V39.7l0-.13,0-.1.25-.39.06-.19,0-.15-.21-.08.12-.09.09-.1.1,0,.12.09,0,.27,0,.13.09,0,0-.06,0-.16,0-.06.06,0,.17-.05.06,0,.12-.13.18-.23.1-.08.11.05.2-.11h.15l0-.08,0-.08v-.18l0-.05-.12-.09,0-.05-.07-.2-.16-.06h-.16l-.07.06-.06.09-.11.07-.07,0,.07-.22,0-.07.05,0,0,0,.05-.22v-.08l0-.07-.11-.06-.09.06-.25.1-.69.1-.27-.11-.7-.59v-.06l.2,0,.72.17-.14-.14-.15,0H17L16.78,36l.35-.08.37.09.71.3h.21v-.08l-.11-.11-.06,0L18.3,36l0,0,0,0h.11l.08,0,.06-.06.12-.17-.12-.11-.2-.08-.35-.05,0-.09.15-.18.14-.08-.06.17.16.07.13-.06.07-.14-.07-.2.06-.18.4.18.1.12h.06l0-.13.08-.09.07-.11.05-.13,0-.21,0,0h.05l0,0,0-.29.17.19,0,.15,0,.13-.08.17h.12l.13,0,.1.06v.1l-.09,0-.11,0-.09,0v.2l.11.18.21.14.19,0,.07-.3.11,0,.08,0,.06-.1,0-.12.2.09h.08L21,35l.22.07.24-.07.21-.15.14-.16-.18-.44.09-.07.1-.12.07-.06,0,.09v.28l0,.13,0,.13.15,0,.24.13.1,0,.13,0,.58.36.06.08-.14,0-.06,0,0,.07v.15l0,.1h0l0,0,0,0,.22,0,.25-.16.22-.21.12-.2,0-.2-.08,0h-.12l-.05-.1v-.18l0-.15.05-.14.1-.14.1.1.08.11.08,0,.11-.09.18-.27.1-.1.13,0v0l.13-.24v-.1l0-.05-.13-.07-.12.06h-.08l0-.09v-.18l0-.06-.08-.05,0,.08L24,33.1l-.16.1h-.2l0,0,0,.06,0,0L23.43,33v-.12l0-.1v-.14l-.06-.11L23,32.25l.2.1.24.06h.22l.17-.07,0-.11-.09-.11L23.67,32,23.61,32l0-.08.15-.15.05-.12.08.15,0,.06,0,.05L24,32v.12l0,.07.06,0v-.39l.1.09.11.13.07.15v.14l0,0-.15.06-.05.05,0,.11v.07l.05,0,.09,0,.17-.07.21-.06.16-.09,0-.16.12,0,.09,0,.08.05.11,0,.1,0,.24-.09.09,0,.18.12.22,0h.23l.2-.06v0h0l0,0,0,0v0l0,0-.3.11-.2-.19-.08-.28.09-.15.31,0,.13,0,.05.1.06.08.13,0,.14-.1.07-.12,0,0-.13,0-.08-.24,0-.14,0-.06.06-.07.05-.14,0-.15v-.09l-.06,0-.06.13-.09.26-.11.06-.11,0-.11,0-.1-.07.06-.07-.33-.1-.15-.07-.15-.15-.09-.15V30.4l.08-.11.08,0,.15-.05.15,0H26l.12,0,.06,0,0,0v-.22l.06-.14.14-.18,0-.1-.1-.1-.12,0-.13,0-.1.06,0,.08-.05-.15,0-.12,0-.08-.23,0-.16-.07.09-.14.17-.13h.1l.09,0,.54-.17.37,0,0,.18-.21,0-.17.09-.09.17.16,0,.39,0,.19,0,.1.08v.12l-.09.16-.2.25,0,.17.12.15,0-.17.06-.14.09,0,.13.09-.05.06-.07.2.2.1.08,0,0,0,0,0,0,0,0,0,.06-.1.09,0,.11.06.14,0,.14-.07,0-.07-.06,0-.11.05,0-.09,0-.07,0-.05-.05-.11-.08-.09,0-.13.12-.15.21-.07.1.13.09.14.1.14.14-.05.17,0,.14-.07.11,0,.11.13.21,0,.07-.09-.14-.39L29,29l.36,0,.17,0,.07-.15,0-.08-.1,0-.1,0,0,0-.19-.26,0-.08h.06l-.05-.05,0,0-.09,0,0,.11h-.07l-.1-.05-.09-.07v.16l-.06.17-.07.14-.08.09-.13.09,0,0,0-.11-.1-.13.09-.1.08-.06.18-.09-.16-.39h-.07l0,.15-.08.12-.09,0,0-.08L28,28,28,27.85l-.4-.41-.06-.12.12-.06.1,0,.28-.18.08-.07.1-.07.27-.05.12-.05.07-.06.19-.28.07-.14,0-.28.05-.12.28-.07.09-.09-.14-.16.15-.06.17,0,.11.09,0,.14.07.07,0-.05,0,0,.1-.06-.21.37,0,.1,0,.12.08.06.64.1.06,0,0,.14-.1.29,0,.11.09.08.05-.1.05-.16.06-.08h.35l0,0,0,.09-.08.07,0,.07v.06l0,0,0,0,0,0v.13l0,.15-.06.15-.06.11.16,0H31l.16,0,.06-.11.06-.15,0-.05-.12,0-.05-.06V27l0-.1.06,0,0,0,0,0,0-.05,0,0,.06,0h.07v.05l.11.18,0,0,0,.07-.06.06,0,.06.09.16.1.28-.06,0-.05.06,0,.07,0,.08.2,0,.43-.11-.07,0-.07,0h-.14l.14-.12.07-.14v-.16L32,27.2l-.07-.05h-.1l.08-.11,0-.1,0-.08-.09,0h-.09v0l0-.1h-.05l-.21,0v-.06h.07l0,0,.11-.09h-.16l-.13-.06h.09l.05,0,0,0,.05-.07-.18,0,0-.13.09-.34,0,.06-.06.08-.08,0-.08,0-.12-.08-.07.05L31,26l0,0L30.76,26l-.09-.14,0-.2,0-.22-.14.11-.06-.18,0-.28-.06-.22.12,0h.05l.06,0,.09-.07.11,0H31l.05-.14h.1l.25.15,0,.07.05,0h.06l0,0,0,0h0l0-.06v-.26l0-.09.17-.19,0-.08,0,0-.06,0,0,0,0-.22v-.11l0-.05-.17-.09,0-.2v-.19l-.1-.09.07-.12.08.07.14.3L31.8,23l.06-.07.15,0,.11-.05.1-.08.08-.1.2-.43,0-.11,0-.1,0-.07-.17-.18-.23.07-.24-.08-.45-.25-.1,0-.29,0-.13.07,0,.07v.17l0,.08-.06.07-.41.28-.26.13-.27.08h-.26l-.14,0-.28-.12-.35-.06-.07,0,0-.25-.05-.11-.16-.21-.07-.13-.07-.31-.05-.1L28.15,21l-.2.08L27.78,21l-.18-.19-.18-.15v-.06l.08,0,.14.07.26.18.08,0,.34.07.12,0,.15.11.23.26.14.07.41,0,.14.06.25.18.08,0,.19,0,.08,0,.06.07.08.16,0,0h.19L30.6,22l.17-.34.21-.29.16-.3.2-.26.33-.2-.07-.19.07-.09.11,0,.06-.08,0-.12L32,20l.13-.05.13,0,0-.09,0-.1-.14-.08-.15,0,.17-.16.16-.08.18,0h.21l.11,0,.17-.09.1,0,.1,0,.07.06.06,0,.11-.06-.12-.05h-.05l.13-.19.22-.1h.23L34,19l.09-.05.52-.43v-.06h-.12l-.23.1h-.11l-.12,0-.21-.13h-.13l.1-.14-.05-.08-.09-.09L33.56,18l-.23.14,0,.05,0,.08,0,.1,0,.11-.08.09L33,18.49l-.05.12v.29l-.09.05-.34.05h-.12l0,0,0-.11,0,0-.2,0-.08-.15V18l0-.08L32,17.81l-.07,0,0,0-.09.07-.18,0-.18,0-.06-.16.05-.1.07-.05.17,0h0l.13.06,0,0,.09-.08,0,0,.05-.11.06,0,.09.06.21.3.08,0,.16,0,.16.08.12.11.09.23h.08l.17-.07v-.19h.17l0-.1v-.16l0-.12-.09-.14-.06-.07-.08,0,.05,0,0,0v0l0,0-.16,0L33.06,17l0-.16.08-.12,0,0,.09.08,0-.08v0l0-.12-.11-.06-.2,0-.1,0,.06-.09v-.07l-.06,0h0l-.25,0-.11,0-.1-.07-.15.1-.17.08-.15.11-.11.16h0l-.07-.19-.32-.23L31.21,16l0-.19,0-.06.12,0,.08,0,.27.17,0-.22,0-.13,0-.1-.09-.08h-.21l-.1-.05,0-.06,0-.1V15l0-.09.12-.07.06-.1,0-.1.08-.07.11,0h.07l.13.1v.09l0,.11.05.15.16,0,.15.12.14.17.13.13.15.08.09,0,0-.07,0-.12-.06-.06-.09,0-.22-.23,0-.08,0-.13v-.08l0-.13,0-.12,0-.05.17.09.11.2.06.22,0,.13V15l.11.05H33l.08-.07,0-.13,0-.15,0-.09v-.09l.05-.15.09-.17.14-.12.18-.08.22,0-.09.18-.17.06-.15.09,0,.25.09-.06h.21l.1.06-.24.13-.08.08-.09.58v.16l.09,0,.14-.17.08,0,.18.24h0l0,.32H34l.19,0-.12-.26.12-.22.19-.2.09-.25-.1-.21v-.1l.18-.05.58.07.44-.1.1,0,0,.11-.38.53v.11l0,0-.09,0,0,0v0l-.09.13-.12.26-.08.05v0l0,.11,0,0-.13.06-.2.14-.13.06-.34.08-.17.07-.12.11,0,.07,0,.17v.08l0,0-.06,0h0l0,.1,0,.18.1.08h.31l.43-.35v-.15l0-.15.06-.12.1,0h.46l.11,0,.43-.29.06.07-.08.08,0,.08.05,0,.08,0,.07-.06.3-.17v-.07l-.11.07L36,15.8l-.06-.14v-.13l0-.11.09-.05h.11l.1,0,0-.1-.05-.11-.12,0H36L35.86,15l0-.15.08-.12.11-.12.07-.12H36l-.12-.07-.09-.07-.08,0h-.11l-.13,0-.11-.06-.08-.08v-.21l.16-.15.1-.12-.2-.1h.2l.08,0,.07,0,0,.05,0,0h.1l.07,0,0,0,.1,0L36,13.38l.1-.08h.36l.27.11.07,0,.08,0,0,0,0,0,.08,0L37,13.18l0,0,0-.06,0,0-.07-.1h-.08l-.1,0-.12,0-.11,0-.32-.17h.37l.2,0,.11,0,.07.07.14-.14v-.19l-.12-.16-.21,0v-.06l.13-.06.11-.14.11-.07.11.14.06-.06-.12-.32-.05-.08,0-.07,0-.07,0-.1h.09l.06,0,.11.14.07,0,.63.13h.16l.15-.07h-.18v-.06h.06v-.06l-.12-.06.06-.07.06.07.23-.07v-.07l-.29-.07.09,0,.18,0h.13v-.05l-.16-.12Z"/></g></g></svg>