<svg xmlns="http://www.w3.org/2000/svg" viewBox="0 0 53.23 50.29"><defs><style>.cls-1{fill:#878787;stroke:#f9f9f9;stroke-linecap:round;stroke-linejoin:round;stroke-width:0.25px;fill-rule:evenodd;}</style></defs><g id="Layer_2" data-name="Layer 2"><g id="China_-_Provinces" data-name="China - Provinces"><polygon id="Henan" class="cls-1" points="53.05 24.6 52.78 24.22 52.52 23.51 52.35 23.24 52.28 23.09 52.28 23.04 52.28 22.98 52.29 22.91 52.3 22.85 52.32 22.8 52.34 22.74 52.38 22.7 52.41 22.67 52.45 22.64 52.49 22.6 52.52 22.56 52.54 22.51 52.55 22.45 52.55 22.4 52.55 22.37 52.54 22.27 52.49 22.05 52.48 21.93 52.48 21.88 52.48 21.79 52.54 21.57 52.55 21.54 52.54 21.49 52.5 21.45 52.42 21.42 52.36 21.41 51.75 21.46 51.65 21.5 51.6 21.5 51.42 21.47 51.36 21.47 51.2 21.51 51.09 21.53 51.03 21.53 50.97 21.51 50.9 21.48 50.82 21.42 50.37 20.9 49.97 20.59 49.59 20.37 49.43 20.24 49.3 20.06 49.04 19.79 49.02 19.7 49 19.59 49.04 19.2 49.07 19.11 49.09 19.05 49.1 18.97 49.1 18.9 48.99 18.57 48.82 18.53 48.78 18.49 48.75 18.45 48.67 18.3 48.57 18.16 48.5 18.1 48.44 18.07 48.39 18.09 48.35 18.12 48.32 18.16 48.27 18.2 48.2 18.22 48.09 18.23 48.01 18.2 47.79 18.05 47.73 18.02 47.67 18.02 47.63 18.05 47.6 18.09 47.52 18.23 47.48 18.26 47.45 18.3 47.36 18.32 46.71 18.35 46.49 18.4 46.18 18.53 46.11 18.53 46.05 18.52 45.86 18.41 45.61 18.32 45.26 18.23 45.15 18.23 45.08 18.26 45.01 18.41 44.97 18.46 44.9 18.51 44.76 18.55 44.51 18.57 43.88 18.47 43.79 18.44 43.69 18.39 43.54 18.27 43.39 18.11 43.09 17.71 43.05 17.63 43.01 17.52 42.99 17.47 42.95 17.24 42.93 17 42.95 16.53 42.95 16.47 42.94 16.41 42.88 16.34 42.78 16.27 42.28 16.01 42.2 15.95 42 15.77 41.95 15.74 41.91 15.73 41.77 15.7 41.69 15.7 41.6 15.7 41.51 15.72 41.45 15.75 41.4 15.78 41.31 15.85 41.29 15.87 41.27 15.93 41.15 15.84 41.15 15.63 41.21 15.27 41.2 15.22 41.17 15.17 41.13 15.13 41.02 14.98 40.86 14.78 40.8 14.74 39.31 14.09 39.26 14.08 39.14 14.06 39.05 14.07 38.91 14.11 38.75 14.18 38.54 14.21 38.35 14.17 37.94 14 37.97 13.97 38.05 13.78 38.05 13.34 38.2 12.94 38.16 12.73 38.09 12.54 38.09 12.35 38.19 12.24 38.61 12.04 38.75 12.01 38.84 11.93 39.18 11.44 39.35 11.26 39.41 11.16 39.52 10.85 39.55 10.77 39.79 10.42 39.91 10.28 40.1 10.18 40.36 10.14 40.44 10.1 40.51 10.03 40.55 9.96 40.6 9.92 40.7 9.9 41.06 9.93 41.23 9.91 41.42 9.83 41.57 9.71 41.91 9.3 41.99 9.26 42.1 9.25 42.19 9.21 42.23 9.09 42.21 9 42.12 8.81 42.11 8.7 42.2 8.48 42.55 8.46 42.63 8.31 42.63 8.06 42.65 7.87 42.72 7.71 42.86 7.58 43.26 7.37 43.46 7.22 43.55 7.04 43.55 6.83 43.56 6.76 43.84 6.8 44.17 6.77 44.52 6.68 44.83 6.52 45.05 6.3 45.46 5.65 45.72 5.46 46.48 5.36 46.66 5.29 46.77 5.17 46.75 5.07 46.67 4.99 46.58 4.93 46.53 4.89 46.53 4.77 46.58 4.68 47.05 4.24 47.25 4.12 47.34 4.15 47.44 4.05 47.65 4.1 48.01 4.26 48.05 4.15 48.27 3.48 48.38 3.38 48.46 3.29 48.49 3.2 48.48 3.09 48.4 2.89 48.37 2.84 47.41 3.54 47.11 3.68 47.02 3.67 46.53 3.56 46.39 3.56 46.33 3.57 46.29 3.59 46.2 3.65 45.95 3.92 45.78 4.07 45.53 4.23 44.95 4.49 43.78 4.82 43.64 4.82 43.45 4.78 43.39 4.78 43.26 4.8 43.17 4.86 43.1 4.92 43.07 4.97 43.04 5.05 42.98 5.4 42.95 5.49 42.93 5.55 42.83 5.72 42.72 5.84 42.5 6.04 42.32 6.17 42.21 6.22 42.11 6.24 42.07 6.22 42.04 6.2 42.02 6.16 42.01 6.11 42 6.06 42.01 5.79 42.13 4.62 42.15 4.56 42.17 4.51 42.21 4.47 42.24 4.44 42.29 4.41 42.69 4.19 42.77 4.13 42.84 4.05 42.89 3.96 43.1 3.47 43.16 3.31 43.18 3.18 43.22 2.76 43.19 2.41 43.19 2.38 43.2 2.27 42.67 2.61 42.52 2.75 42.43 2.89 42.34 3 42.27 3.06 42.2 3.09 42.13 3.1 42.04 3.1 41.96 3.09 41.9 3.07 41.85 3.04 41.82 3.01 41.73 2.89 41.68 2.79 41.58 2.55 41.39 2.24 41.36 2.2 41.3 2.15 41.21 2.1 41.03 2.03 40.93 2.02 40.84 2.01 40.59 2.07 40.52 2.07 40.45 2.05 40.41 2.02 40.33 1.98 40.28 1.98 40.22 2 40.18 2.03 40.08 2.15 39.84 2.34 39.81 2.38 39.79 2.43 39.71 2.69 39.68 2.74 39.62 2.86 39.57 2.91 39.45 3.02 39.38 3.12 39.31 3.18 39.15 3.28 38.94 3.27 38.75 3.32 38.69 3.31 38.65 3.27 38.64 3.23 38.64 3.18 38.65 3.15 38.7 3.07 38.7 3 38.62 2.88 38.44 2.67 38.16 2.46 38.01 2.37 37.91 2.35 37.86 2.37 37.73 2.46 37.64 2.46 37.5 2.44 37.05 2.33 36.94 2.32 36.88 2.33 36.55 2.42 36.26 2.54 36.17 2.56 35.85 2.55 35.65 2.52 35.54 2.47 34.45 1.72 34.35 1.68 34.23 1.65 34.09 1.64 34.01 1.61 33.96 1.57 33.87 1.46 33.82 1.38 33.73 1.38 33.58 1.42 33.5 1.42 33.14 1.3 33 1.29 32.96 1.33 32.84 1.4 32.79 1.42 32.69 1.42 32.56 1.41 32.25 1.35 31.69 1.16 31.56 1.1 31.47 1.04 31.44 1 31.42 0.95 31.37 0.79 31.34 0.68 31.26 0.58 31.17 0.45 31.09 0.34 30.98 0.25 30.85 0.19 30.78 0.18 30.74 0.2 30.66 0.27 30.61 0.31 30.56 0.32 30.39 0.3 30.34 0.3 30.24 0.34 30.16 0.34 30.1 0.32 30.04 0.28 29.92 0.16 29.88 0.13 29.83 0.13 29.76 0.15 29.48 0.33 29.33 0.39 29.18 0.38 28.65 0.23 28.6 0.22 28.61 0.23 28.6 0.46 28.46 0.91 28.39 1.06 28.25 1.44 28.22 1.5 28.21 1.56 28.2 1.62 28.22 1.69 28.25 1.74 28.28 1.79 28.36 1.86 28.38 1.9 28.38 1.96 28.34 2.02 28.3 2.07 28.22 2.13 28.19 2.18 28.18 2.24 28.22 2.33 28.34 2.46 28.37 2.5 28.38 2.56 28.37 2.64 28.32 2.75 28.28 2.82 28.25 2.9 28.24 2.96 28.26 3.07 28.31 3.27 28.32 3.33 28.3 3.45 28.17 3.96 28.11 4.1 28.06 4.2 27.89 4.31 27.85 4.35 27.82 4.39 27.8 4.46 27.8 4.56 27.83 4.72 27.84 4.84 27.84 4.97 27.76 5.4 27.77 5.53 27.85 5.72 27.86 5.78 27.54 5.89 27.5 6.11 27.53 6.21 27.54 6.23 27.56 6.28 27.56 6.33 27.56 6.39 27.46 7.13 27.46 7.2 27.48 7.25 27.53 7.34 27.63 7.46 27.65 7.5 27.67 7.55 27.67 7.61 27.66 7.68 27.62 7.76 27.55 7.84 27.13 8.12 26.88 8.4 26.67 8.79 26.64 8.84 26.58 8.91 26.54 8.95 26.47 9 26.16 9.16 25.68 9.32 25.31 9.43 25.16 9.41 25.11 9.4 25.07 9.42 25.05 9.47 25.05 9.53 25.07 9.58 25.06 9.64 25.04 9.69 25.02 9.74 24.98 9.78 24.95 9.82 24.9 9.85 24.84 9.88 24.73 9.9 24.6 9.88 24.54 9.88 24.5 9.91 24.44 9.98 24.36 10.04 23.96 10.2 23.89 10.24 23.78 10.34 23.73 10.41 23.7 10.46 23.66 10.53 23.64 10.57 23.56 10.61 23.46 10.65 23.02 10.75 22.86 10.75 22.72 10.81 22.45 11.06 22.37 11.18 22.32 11.28 22.31 11.32 22.3 11.34 22.24 11.39 22.17 11.46 21.86 11.62 21.73 11.71 21.57 11.73 20.94 11.7 20.23 11.36 20.19 11.33 20.12 11.26 20.03 11.13 19.97 11.05 19.93 11.02 19.89 10.99 19.82 10.98 19.74 10.99 19.55 11.07 19.45 11.13 19.41 11.16 19.28 11.23 19.24 11.26 19.22 11.31 19.2 11.37 19.19 11.43 19.17 11.49 19.12 11.58 19.09 11.64 19.07 11.66 19.07 11.68 19.05 11.7 18.89 11.8 18.8 11.85 18.57 11.92 18.27 11.93 17.85 11.86 17.76 11.83 17.66 11.78 17.6 11.77 17.53 11.76 17.44 11.77 17.24 11.84 17.13 11.89 16.97 11.94 15.47 11.75 15.29 11.82 15.2 11.84 15.1 11.82 14.82 11.75 14.65 11.77 14.66 12.41 14.68 12.58 14.67 13.06 14.63 13.25 14.49 13.67 14.48 13.7 14.45 13.68 14.09 13.41 13.96 13.29 13.8 13.21 13.45 13.25 13.3 13.19 13.17 13.26 12.87 13.28 12.73 13.33 12.63 13.43 12.54 13.54 12.45 13.64 12.3 13.68 12.17 13.73 11.98 13.97 11.84 14.03 11.68 14.04 11.5 14.09 11.39 14.19 11.46 14.38 11.38 14.45 11.15 14.53 11.06 14.59 10.99 14.71 10.89 14.97 10.83 15.09 10.78 15.13 10.69 15.18 10.65 15.22 10.62 15.29 10.57 15.45 10.54 15.5 10.45 15.56 9.5 15.82 9.3 15.84 9.07 15.97 8.99 15.98 8.9 15.94 8.73 15.8 8.64 15.77 8.55 15.79 8.45 15.83 8.35 15.88 8.16 16.04 8.09 16.02 8.03 15.96 7.92 15.92 7.83 15.96 7.79 16.05 7.76 16.14 7.72 16.2 7.64 16.22 7.58 16.2 7.43 16.12 7.09 15.98 6.93 16.01 6.81 16.42 6.68 16.52 5.98 16.74 5.83 16.84 5.68 17 5.54 17.05 5.21 16.86 5.02 16.89 5.12 17.37 4.79 17.57 3.8 17.61 3.62 17.69 3.47 17.8 3.41 17.97 3.32 18.02 2.81 18.22 2.28 18.23 2.09 18.28 1.98 18.34 1.91 18.4 1.83 18.4 1.72 18.31 1.58 18.16 1.5 18.1 1.43 18.08 1.23 18.09 1.14 18.11 1.05 18.15 0.98 18.21 0.96 18.28 0.92 18.33 0.83 18.35 0.73 18.31 0.68 18.24 0.63 18.15 0.54 18.08 0.46 18.06 0.2 18.08 0.2 18.1 0.25 18.83 0.25 19.07 0.22 19.18 0.16 19.29 0.13 19.39 0.13 19.46 0.13 19.54 0.14 19.63 0.2 19.83 0.23 19.89 0.31 20 0.51 20.23 0.62 20.29 1.18 20.45 1.23 20.48 1.27 20.51 1.3 20.55 1.34 20.61 1.38 20.7 1.42 20.86 1.41 20.95 1.39 21.01 1.15 21.19 1.08 21.26 1.05 21.3 1.03 21.36 1.01 21.41 1 21.48 1 21.54 1 21.6 1.02 21.67 1.05 21.74 1.12 21.84 1.31 22.03 1.38 22.07 1.83 22.28 1.87 22.31 1.91 22.34 2.01 22.44 2.06 22.48 2.11 22.5 2.16 22.52 2.47 22.59 2.52 22.62 2.56 22.67 2.58 22.77 2.58 22.84 2.56 22.9 2.51 22.99 2.47 23.1 2.45 23.15 2.36 23.65 2.35 23.71 2.35 23.84 2.36 23.9 2.39 23.94 2.47 23.94 2.5 23.94 2.52 23.96 2.54 24 2.59 24.13 2.77 24.5 2.78 24.55 2.78 24.61 2.77 24.67 2.73 24.77 2.42 25.25 2.37 25.35 2.36 25.4 2.35 25.46 2.36 25.52 2.4 25.58 2.46 25.64 2.6 25.74 2.77 25.82 3.06 25.89 3.16 25.94 3.66 26.29 3.73 26.36 3.8 26.46 4.01 26.82 4.01 26.83 3.99 27.04 3.99 27.1 4 27.16 4.02 27.27 4.09 27.36 4.51 27.72 4.74 27.89 5.1 28.04 5.29 28.14 5.39 28.22 5.5 28.34 5.58 28.49 5.68 28.89 5.74 29.05 5.77 29.14 5.86 29.33 5.86 29.34 5.86 29.38 5.84 29.47 5.8 29.62 5.75 29.74 5.71 29.83 5.69 29.88 5.68 29.95 5.69 30.02 5.72 30.11 5.87 30.41 5.88 30.47 5.9 30.58 5.84 30.85 5.55 31.66 5.72 32.13 5.79 32.25 5.87 32.3 6.14 32.54 6.23 32.6 6.31 32.63 6.46 32.67 6.58 32.74 6.64 32.79 6.68 32.85 6.74 33 6.79 33.21 6.86 33.42 7.12 33.89 7.24 34.07 7.49 34.31 7.52 34.36 7.54 34.4 7.58 34.5 7.58 34.55 7.58 34.61 7.56 34.67 7.52 34.77 7.51 34.84 7.51 34.91 7.53 35.02 7.57 35.07 7.61 35.11 7.73 35.14 7.81 35.18 7.91 35.25 8.22 35.56 8.26 35.59 8.35 35.64 8.4 35.66 8.46 35.7 8.66 35.87 8.82 36.06 9.07 36.54 9.18 36.69 9.47 37.01 9.78 37.23 9.94 37.37 9.99 37.43 10.03 37.48 10.09 37.64 10.12 37.74 10.16 37.99 10.18 38.07 10.23 38.19 10.27 38.25 10.31 38.3 10.35 38.33 10.44 38.37 10.54 38.34 10.61 38.28 10.68 38.21 10.76 38.15 10.89 38.07 10.99 38.04 11.05 38.03 11.17 38.04 11.29 38.07 11.73 38.29 11.87 38.39 12.01 38.53 12.26 39.02 12.31 39.08 12.5 39.17 13.84 39.54 13.97 39.63 14.2 39.94 14.35 39.89 14.39 39.87 14.43 39.83 14.47 39.8 14.51 39.77 14.55 39.74 14.61 39.73 14.67 39.75 14.75 39.8 15.01 40.06 15.37 40.33 15.43 40.35 15.51 40.36 15.72 40.32 15.82 40.32 16.06 40.39 16.13 40.42 16.27 40.55 16.56 40.76 16.65 40.81 16.71 40.82 16.79 40.81 16.91 40.76 16.98 40.72 17.02 40.69 17.04 40.66 17.13 40.64 17.25 40.63 17.8 40.67 17.95 40.59 18.03 40.57 18.09 40.56 18.45 40.55 18.64 40.51 19.29 40.54 20.46 40.77 20.54 40.77 20.64 40.75 20.9 40.66 21.29 40.46 22.48 40.23 22.54 40.17 22.67 40.07 22.78 40.03 22.86 40.02 22.93 40.03 23.1 40.1 23.34 40.32 23.43 40.42 23.46 40.45 23.49 40.46 23.55 40.46 23.63 40.45 23.74 40.4 23.81 40.37 23.86 40.33 24 40.2 24.09 40.14 24.15 40.13 24.24 40.14 24.39 40.17 24.46 40.21 24.52 40.25 24.58 40.32 24.63 40.41 24.67 40.51 24.7 40.55 24.73 40.58 24.78 40.6 24.83 40.62 25.01 40.67 25.06 40.69 25.1 40.71 25.21 40.81 25.24 40.85 25.27 40.89 25.29 40.94 25.31 41.05 25.33 41.09 25.37 41.12 25.62 41.23 26.07 41.36 26.21 41.38 26.98 41.3 27.04 41.27 27.1 41.23 27.17 41.13 27.2 41.05 27.24 40.92 27.27 40.87 27.33 40.8 27.39 40.76 27.44 40.73 27.55 40.74 27.6 40.72 27.64 40.64 27.67 40.51 27.69 40.46 27.72 40.42 27.84 40.32 27.95 40.24 28.07 40.19 28.16 40.17 28.3 40.17 28.38 40.2 28.45 40.2 28.5 40.2 28.67 40.09 28.72 40.13 28.74 40.15 28.74 40.16 28.78 40.26 29.12 40.68 29.13 40.75 29.13 40.84 29.1 41 29.05 41.17 29.01 41.26 29 41.3 28.99 41.34 28.99 41.41 28.99 41.5 29.05 41.76 29.11 42.31 29.1 42.39 29.07 42.52 29.03 42.59 29 42.65 28.94 42.73 28.88 42.81 28.86 42.87 28.87 43.03 29.01 43.4 29.15 43.76 29.18 43.92 29.16 44.33 29.19 44.43 29.22 44.49 29.57 44.89 29.64 44.98 29.68 45.05 29.7 45.11 29.78 45.57 29.82 45.67 29.87 45.73 29.92 45.74 29.98 45.75 30.1 45.74 30.19 45.71 30.25 45.67 30.33 45.63 30.39 45.64 30.46 45.67 30.54 45.75 30.58 45.81 30.6 45.88 30.61 46.12 30.55 46.44 30.55 46.51 30.56 46.61 30.59 46.68 30.6 46.69 30.65 46.71 30.71 46.72 31.21 46.64 31.3 46.6 31.43 46.53 31.66 46.35 32.08 45.79 32.11 45.76 32.15 45.72 32.2 45.7 32.27 45.71 32.37 45.73 32.77 45.94 33.07 46.03 33.14 46.07 33.19 46.1 33.24 46.18 33.32 46.31 33.39 46.39 33.75 46.7 33.88 46.78 33.98 46.84 34.04 46.84 34.1 46.84 34.25 46.8 34.36 46.78 34.71 46.78 34.74 46.78 34.78 46.76 34.85 46.72 34.91 46.67 34.98 46.61 35.02 46.59 35.1 46.59 35.21 46.62 35.44 46.7 35.54 46.75 35.6 46.8 35.63 46.85 35.65 46.89 35.67 46.94 35.68 46.99 35.69 47.05 35.69 47.11 35.67 47.22 35.65 47.28 35.57 47.41 35.48 47.53 35.46 47.58 35.43 47.63 35.42 47.69 35.41 47.82 35.41 47.88 35.41 47.94 35.49 48.26 35.54 48.42 35.71 48.49 36.12 48.44 36.22 48.45 36.3 48.47 36.34 48.49 36.41 48.56 36.62 48.83 36.76 48.94 36.84 48.97 36.9 48.99 37.03 48.97 37.14 48.96 37.19 48.99 37.23 49.02 37.26 49.13 37.27 49.14 37.37 49.23 37.58 49.29 37.84 49.31 37.94 49.31 37.97 49.31 38.06 49.28 38.16 49.24 38.29 49.23 39.32 49.35 39.5 49.32 39.65 49.27 39.74 49.23 39.85 49.14 39.92 49.06 39.98 48.98 40.03 48.89 40.22 48.51 40.41 48.21 40.45 48.17 40.5 48.15 40.6 48.12 40.67 48.12 40.73 48.14 40.76 48.17 40.82 48.25 40.94 48.46 40.97 48.5 41.07 48.6 41.1 48.64 41.12 48.69 41.14 48.74 41.15 48.79 41.16 48.91 41.15 48.97 41.14 49.03 41.06 49.26 41.05 49.31 41.05 49.37 41.06 49.42 41.07 49.48 41.09 49.53 41.11 49.57 41.17 49.65 41.24 49.71 41.38 49.79 41.41 49.83 41.43 49.87 41.45 49.91 41.45 49.94 41.48 49.99 41.51 50.05 41.6 50.12 41.67 50.15 41.73 50.16 42.17 50.09 42.36 50.01 42.47 49.94 42.62 49.43 42.63 49.24 42.6 49.14 42.6 49.13 42.6 49.02 42.62 48.96 42.64 48.9 42.68 48.83 42.85 48.63 43.21 47.99 43.24 47.95 43.27 47.89 43.3 47.81 43.37 47.49 43.39 47.42 43.42 47.34 43.54 47.17 43.64 47.06 43.79 46.82 43.84 46.8 43.89 46.8 43.94 46.82 43.99 46.83 44.03 46.82 44.07 46.79 44.19 46.68 44.22 46.66 44.9 46.35 45.11 46.3 45.22 46.29 45.42 46.31 45.48 46.31 45.53 46.29 45.61 46.24 45.66 46.23 45.71 46.22 45.96 46.23 46.33 46.31 46.6 46.34 46.71 46.33 46.81 46.3 46.86 46.28 46.9 46.24 46.92 46.15 46.93 46 46.89 45.34 47 44.47 47.05 44.25 47.06 44.23 47.07 44.21 47.1 44.13 47.11 44.06 47.12 43.98 47.01 41.76 46.99 41.68 46.98 41.63 46.91 41.49 46.85 41.29 46.83 41.18 46.82 40.57 46.79 40.34 46.73 40.2 46.7 40.15 46.67 40.11 46.58 40 46.55 39.96 46.56 39.86 46.58 39.73 46.65 39.47 46.68 39.29 46.68 39.28 46.67 39.27 46.61 39.22 46.58 39.19 46.56 39.14 46.58 39.06 46.61 39.01 46.64 38.97 46.9 38.7 47.07 38.61 47.06 38.55 46.76 38.58 46.41 38.87 46.12 39.25 45.96 39.58 45.78 39.38 45.67 39.3 45.56 39.49 45.43 39.47 45.16 39.37 45.1 39.62 44.76 40.25 44.63 40.14 44.45 40.11 44.25 40.15 44.07 40.25 43.92 40.19 43.8 40.09 43.59 39.89 43.53 39.83 43.52 39.8 43.41 39.59 43.38 39.55 43.32 39.48 43.29 39.44 43.24 39.29 43.23 39.28 43.2 39.24 43.17 39.21 42.94 39.08 42.78 38.95 42.69 38.91 42.64 38.88 42.6 38.85 42.58 38.8 42.52 38.75 42.41 38.7 41.83 38.61 41.77 38.59 41.72 38.56 41.69 38.53 41.53 38.46 41.01 38.38 41.09 37.88 41.1 37.73 41.09 37.69 41.07 37.65 41.04 37.6 40.89 37.37 40.85 37.28 40.84 37.16 40.86 36.57 40.88 36.47 40.91 36.42 40.94 36.38 40.98 36.34 40.98 36.28 40.95 36.19 40.94 36.1 40.95 35.85 40.92 35.77 40.88 35.72 40.73 35.65 40.69 35.61 40.56 35.48 40.53 35.45 40.51 35.43 40.43 35.39 40.2 35.32 40 35.23 39.95 35.22 39.77 35.2 39.71 35.19 39.66 35.16 39.62 35.14 39.58 35.1 39.51 35.03 39.48 35 39.43 34.97 38.7 34.74 38.66 34.71 38.61 34.69 38.49 34.58 38.38 34.46 38.33 34.39 38.3 34.34 38.29 34.32 38.29 34.31 38.3 34.19 38.31 34.13 38.33 34.07 38.37 33.98 38.39 33.92 38.41 33.87 38.41 33.81 38.41 33.75 38.38 33.49 38.88 33.14 39.07 33.09 39.22 33.16 39.49 33.38 39.61 33.42 40.22 33.49 40.53 33.48 40.91 33.25 40.98 33.22 41.44 33.12 41.5 33.09 41.63 33 41.67 32.95 41.71 32.89 41.73 32.84 41.79 32.6 41.84 32.29 41.86 32.23 41.89 32.17 41.94 32.11 42.17 31.89 42.23 31.83 42.23 31.82 42.25 31.77 42.26 31.69 42.26 31.58 42.25 31.53 42.25 31.49 42.24 31.47 42.19 30.99 42.17 30.88 42.15 30.83 42.13 30.79 42.09 30.75 42 30.7 41.98 30.65 41.98 30.59 42.07 30.42 42.09 30.36 42.08 30.3 42.05 30.2 42.05 30.13 42.08 30.05 42.24 29.8 42.25 29.74 42.25 29.68 42.2 29.32 42.23 29.24 42.27 29.16 42.32 29.13 42.37 29.13 42.4 29.16 42.48 29.28 42.53 29.32 42.54 29.33 42.59 29.34 42.65 29.34 42.68 29.33 42.69 29.32 42.71 29.3 42.8 29.14 42.93 28.95 42.99 28.89 43.05 28.85 43.24 28.77 43.5 28.72 44.3 28.64 44.59 28.54 44.63 28.51 44.66 28.48 44.66 28.45 44.66 28.41 44.56 28.05 44.45 27.75 44.37 27.31 44.32 27.16 44.29 27.11 44.21 27 44.18 26.95 44.16 26.91 44.15 26.86 44.15 26.82 44.15 26.8 44.16 26.76 44.19 26.69 44.23 26.65 44.27 26.63 44.32 26.63 44.37 26.65 44.4 26.69 44.44 26.72 44.49 26.73 44.53 26.71 44.56 26.66 44.57 26.59 44.62 25.93 44.61 25.87 44.6 25.82 44.57 25.78 44.52 25.75 44.46 25.74 44.4 25.74 44.23 25.75 44.19 25.75 44.15 25.74 44.11 25.72 44.08 25.68 44.07 25.64 44.05 25.59 44.04 25.33 44.08 25.07 44.14 24.79 44.25 24.51 44.34 24.36 44.46 24.26 44.82 23.82 44.89 23.76 44.92 23.74 45 23.73 45.23 23.73 45.3 23.72 45.48 23.64 45.52 23.64 45.56 23.64 45.61 23.65 45.79 23.74 46.17 24.03 46.3 24.18 46.34 24.21 46.39 24.23 46.47 24.23 46.52 24.21 46.57 24.18 46.61 24.15 46.65 24.12 46.71 24.12 46.8 24.15 46.94 24.23 47.07 24.27 47.15 24.27 47.27 24.25 47.33 24.26 47.4 24.3 47.48 24.4 47.51 24.47 47.53 24.53 47.53 24.66 47.51 24.79 47.43 25.01 47.42 25.07 47.42 25.13 47.43 25.18 47.45 25.23 47.48 25.26 47.97 25.71 48.06 25.82 48.13 25.96 48.22 26.23 48.29 26.36 48.39 26.54 48.74 26.96 48.85 27.06 48.9 27.09 48.96 27.12 49.04 27.14 49.12 27.15 49.25 27.14 50.93 26.53 51.26 26.41 51.28 26.39 51.31 26.37 51.34 26.33 51.37 26.28 51.39 26.2 51.41 26.05 51.46 25.86 51.5 25.81 51.55 25.75 51.66 25.69 51.8 25.64 51.85 25.64 51.89 25.62 51.92 25.61 52.02 25.53 52.07 25.51 52.12 25.49 52.31 25.48 52.36 25.47 52.42 25.43 52.47 25.36 52.56 25.24 52.62 25.2 52.69 25.18 52.83 25.26 52.88 25.28 52.93 25.3 52.99 25.29 53.03 25.27 53.06 25.21 53.08 25.13 53.1 24.78 53.05 24.6"/></g></g></svg>