<svg xmlns="http://www.w3.org/2000/svg" viewBox="0 0 114.42 128.85"><defs><style>.cls-1{fill:#878787;stroke:#f9f9f9;stroke-linecap:round;stroke-linejoin:round;stroke-width:0.25px;fill-rule:evenodd;}</style></defs><g id="Layer_2" data-name="Layer 2"><g id="China_-_Provinces" data-name="China - Provinces"><polygon id="Heilongjiang" class="cls-1" points="114.23 77.48 114.27 77.19 113.66 76.52 113.49 76.16 113.47 75.96 113.42 75.66 113.33 75.38 113.23 75.26 113.04 75.21 112.84 75.08 112.75 74.89 112.86 74.66 112.57 74.15 112.51 73.85 112.57 73.46 112.74 73.2 113.25 72.69 113.38 72.61 113.55 72.27 113.58 71.21 113.71 70.8 113.85 70.66 113.7 70.69 113.36 70.62 112.94 70.39 112.59 70.01 112.37 69.48 112.23 69.59 112.08 69.67 111.92 69.71 111.77 69.7 111.62 69.65 111.22 69.32 111.06 69.18 110.89 69.23 109.55 69.45 108.79 69.76 108.29 69.86 108.16 69.92 108.02 70.01 107.67 70.39 107.53 70.47 107.28 70.54 106.79 70.51 106.7 70.53 106.55 70.59 106.26 70.77 106.11 70.82 105.61 70.82 105.47 70.9 105.36 71.06 105.17 71.43 105.05 71.59 104.92 71.66 104.64 71.75 104.5 71.82 104.41 71.91 104.33 72.02 104.27 72.15 104.22 72.3 104.12 72.55 103.99 72.69 103.82 72.77 103.31 72.84 103.21 72.82 102.89 72.68 102.75 72.64 102.61 72.64 102.14 72.71 101.95 72.7 101.86 72.66 101.71 72.52 101.63 72.47 101.3 72.39 100.98 72.4 100.19 72.63 100.06 72.7 99.93 72.82 99.85 72.98 99.82 73.07 99.79 73.14 99.75 73.2 99.7 73.25 99.63 73.31 98.93 73.63 98.92 73.68 98.29 74.14 98.19 74.26 98.03 74.57 97.92 74.69 97.79 74.76 97.66 74.81 97.53 74.79 97.43 74.72 97.23 74.54 97.09 74.48 96.95 74.46 96.81 74.49 96.69 74.58 96.64 74.65 96.6 74.73 96.57 74.82 96.58 74.93 96.6 75.02 96.64 75.1 96.67 75.18 96.67 75.28 96.64 75.45 96.56 75.59 96.13 76.12 95.91 76.45 95.87 76.53 95.85 76.61 95.84 76.68 95.91 76.9 95.92 77.01 95.9 77.11 95.85 77.21 95.7 77.41 95.62 77.5 95.53 77.57 95.43 77.61 95.02 77.62 94.83 77.58 94.39 77.33 94.11 77.27 93.82 77.25 93.25 77.35 93.14 77.39 92.73 77.7 92.62 77.76 92.39 77.83 92.01 77.84 91.78 77.77 91.24 77.73 90.75 77.83 90.67 77.87 90.47 78.05 90.4 78.09 90.31 78.11 90.22 78.1 90.14 78.08 89.9 77.94 89.81 77.9 89.65 77.9 89.34 77.96 89.19 77.97 88.54 77.75 88.38 77.77 87.93 78.12 87.86 78.16 87.78 78.18 87.7 78.18 87.62 78.17 87.55 78.14 87.48 78.1 87.15 77.67 86.9 77.44 86.63 77.28 86.34 77.19 86.15 77.18 84.4 77.59 84.04 77.74 83.72 77.94 83.51 78 83.35 78.02 83.01 77.99 82.84 77.93 82.5 77.7 82.35 77.66 82.15 77.48 82.12 77.07 82.16 76.59 82.15 76.2 81.86 75.41 81.44 74.87 79.97 73.34 79.91 73.17 79.88 72.88 79.83 72.69 79.81 72.51 79.91 72.26 80.18 71.92 80.37 71.74 80.51 71.66 80.56 71.59 80.66 71.14 80.7 71 80.74 70.91 81.12 70.43 81.16 70.28 81.17 69.98 81.15 69.78 81.08 69.7 80.99 69.67 80.88 69.6 80.79 69.49 80.74 69.39 80.66 69.16 80.48 68.8 80.44 68.57 80.51 68.34 80.62 68.09 80.62 67.86 80.49 67.72 80.26 67.69 79.61 67.97 79.5 67.91 79.49 67.83 79.42 67.58 79.4 67.44 79.41 67.3 79.46 67.06 79.45 66.92 79.35 66.71 79.17 66.63 78.97 66.57 78.79 66.44 78.69 66.21 78.72 65.97 79.52 63.93 79.84 63.36 79.92 63.15 79.91 62.98 79.71 62.91 79.5 62.94 79.49 62.94 78.99 63.17 78.79 63.2 78.54 63.18 78.33 63.07 78.24 62.87 78.15 62.72 77.94 62.66 77.49 62.66 77.09 62.8 76.71 62.99 76.34 63.06 75.94 62.83 74.56 61.7 74.22 61.31 74.03 61.15 73.63 61.01 73.52 60.83 73.51 60.58 73.58 60.29 73.27 60.06 73.09 59.98 72.92 59.94 72.95 59.37 72.92 59.2 72.78 59.11 72.37 59.07 72.2 58.98 72.08 58.84 72.05 58.71 72.03 58.28 71.83 57.83 71.47 57.77 71.05 57.83 70.66 57.76 70.49 57.62 70.38 57.45 70.32 57.22 70.31 56.61 70.28 56.41 70.22 56.25 70.07 56.08 69.89 55.94 69.67 55.87 69.24 55.82 69.03 55.89 68.97 56.08 68.99 56.6 68.89 56.86 68.72 56.97 68.51 56.93 68.14 56.53 67.92 56.4 67.69 56.33 67.48 56.35 67.29 56.47 67 56.8 66.83 56.87 66.59 56.83 66.42 56.71 66.28 56.52 65.98 55.82 65.84 55.69 65.41 55.58 65.03 55.29 64.84 55.19 64.63 55.18 64.26 55.33 64.07 55.37 63.84 55.3 63.76 55.13 63.79 54.9 63.92 54.66 64 54.6 64.1 54.58 64.17 54.52 64.21 54.36 64.2 54.22 64.19 54.09 64.15 53.99 64.07 53.96 63.84 53.92 63.63 53.84 63.23 53.6 63.1 53.49 63.05 53.52 62.8 53.92 62.74 53.96 62.09 53.79 60.68 53.91 60.59 53.96 60.53 54.03 60.43 54.23 60.36 54.31 60.15 54.35 59.71 54.17 59.52 54.27 59.35 54.39 59.13 54.43 58.24 54.39 58.03 54.33 57.86 54.18 57.57 53.8 57.4 53.66 57.2 53.6 57.09 53.6 57.03 53.62 56.97 53.69 56.88 53.83 56.8 53.88 56.69 53.89 56.24 53.83 56.05 53.72 55.87 53.55 55.7 53.34 55.53 53.2 55.13 53.01 54.98 52.85 54.86 52.59 54.84 52.36 54.83 52.13 54.78 51.84 54.48 51.48 53.59 51.18 53.34 50.76 53.33 50.48 53.37 50.16 53.44 49.86 53.54 49.65 53.55 49.46 53.45 49.22 53.22 48.8 53.16 48.12 53.33 47.63 53.86 46.76 53.95 46.51 54 46.27 54.02 46.02 54.03 45.73 53.93 45.58 52.47 44.85 52.05 44.55 51.85 44.17 51.86 44.01 51.91 43.84 51.98 43.69 52.05 43.57 52.08 43.47 52.09 43.32 52.08 43.02 52 42.88 51.63 42.55 51.5 42.36 51.61 42.2 51.68 42.06 51.79 41.73 51.87 41.58 52.07 41.32 52.13 41.19 52.15 40.88 52.08 40.53 51.96 40.23 51.82 40.1 51.55 39.72 51.5 39.6 51.48 39.51 51.45 39.43 51.44 39.34 51.47 39.24 51.51 39.16 51.53 39.07 51.55 38.97 51.56 38.88 51.48 38.6 51.31 38.42 51.1 38.28 50.93 38.11 50.28 36.58 50 36.21 49.47 35.73 49.34 35.66 48.92 34.93 48.62 34.65 48.5 34.45 48.45 34.15 48.43 33.86 48.31 33.35 48.28 33.11 48.27 32.72 48.28 32.52 48.31 32.34 48.37 32.19 48.63 31.85 48.8 31.54 48.89 31.34 48.92 31.17 48.84 30.97 48.69 30.9 48.52 30.91 48.38 30.96 48.3 31.01 48.23 31.07 48.16 31.15 48.11 31.25 48.11 31.35 48.14 31.44 48.17 31.53 48.16 31.67 47.98 31.94 47.78 31.94 47.59 31.75 47.47 31.44 47.46 31.18 47.51 30.96 47.62 30.77 47.76 30.63 47.91 30.57 48.07 30.54 48.21 30.46 48.31 30.26 48.31 30.07 48.25 29.94 48.15 29.86 48.04 29.82 47.61 29.79 47.4 29.7 47.3 29.47 47.33 29.16 47.41 28.92 47.65 28.5 47.46 28.15 47.19 27.99 46.56 27.77 46.36 27.58 46.35 27.42 46.59 27.08 46.76 26.78 46.76 26.59 46.69 26.41 46.62 26.11 46.65 26.1 46.71 26.04 46.77 25.95 46.79 25.87 46.77 25.8 46.69 25.68 46.67 25.6 46.24 25.46 46.12 25.36 44.42 22.09 44.37 21.88 44.44 21.59 44.6 21.42 44.81 21.32 45 21.27 45 21.19 45.04 21.02 45.31 20.31 45.35 20.07 45.14 19.77 44.83 19.65 44.49 19.59 43.63 19.24 43.48 19.21 43.34 19.13 43.28 18.93 43.3 18.74 43.97 18.25 44.37 18.1 44.22 17.93 43.57 17.72 43.33 17.54 43.57 16.97 43.63 16.7 43.57 16.5 43.31 16.15 43.17 15.9 43.11 15.7 43 15.52 42.75 15.48 42.5 15.5 42.36 15.47 42.37 15.2 42.45 14.86 42.46 14.56 42.11 14.36 41.38 13.73 41.26 13.7 41.21 13.81 41.18 13.97 41.11 14.03 41.01 14.05 40.92 14.1 40.76 14.07 40.6 13.82 40.49 13.49 40.46 13.2 40.54 12.91 40.7 12.73 40.91 12.65 41.12 12.64 41.26 12.54 41.2 12.3 40.98 11.88 41.09 11.74 41.24 11.65 41.55 11.51 41.42 11.21 41.24 11.11 40.83 11.12 40.74 11.17 40.56 11.37 40.49 11.36 39.57 10.19 39.52 10.1 39.48 9.98 39.49 9.84 39.52 9.75 39.54 9.65 39.48 9.5 39.32 9.39 38.47 9.55 38.09 9.75 37.9 9.79 37.72 9.7 37.72 9.48 37.84 9.22 37.99 9.03 38.07 8.98 38.26 8.92 38.33 8.85 38.37 8.76 38.45 8.35 37.98 8.02 37.75 7.77 37.64 7.46 37.51 7.23 37.19 7.28 36.66 7.51 36.48 7.39 36.29 6.94 36.12 6.83 35.88 6.78 33.36 5.22 32.91 5.14 32.45 5.16 31.61 5.39 31.43 5.51 31.29 5.69 31.28 5.96 31.38 6.23 31.42 6.46 31.2 6.59 31.02 6.51 30.8 6.05 30.62 5.94 30.17 6.04 29.94 6.03 29.76 5.83 29.74 5.73 29.75 5.64 29.74 5.54 29.68 5.4 29.59 5.32 29.37 5.19 29.27 5.17 28.33 5.17 28.1 5.12 27.71 4.92 27.32 4.81 27.12 4.67 26.92 4.48 26.77 4.3 26.63 3.83 26.6 3.77 26.46 3.5 26.36 3.19 26.21 3 26.02 2.85 25.85 2.77 25.65 2.75 25.43 2.81 25.22 2.93 25.08 3.1 24.92 3.17 24.74 3.02 24.48 2.65 24.37 2.58 24.15 2.51 24.05 2.41 23.98 2.3 23.81 1.93 23.65 1.73 22.86 1.26 22.64 1.17 21.65 1.05 21.4 0.96 21.2 0.82 20.87 0.38 20.66 0.21 20.47 0.29 20.21 0.76 20.05 0.91 19.87 0.82 19.98 0.65 20.03 0.58 20.1 0.53 20 0.33 19.82 0.22 19.66 0.26 19.59 0.48 19.58 0.74 19.55 0.85 19.46 0.84 19.13 0.6 19.03 0.56 18.7 0.5 18.59 0.46 18.36 0.24 18.11 0.15 17.83 0.13 17.63 0.15 17.48 0.25 17.21 0.56 17.02 0.67 16.89 0.87 16.8 0.92 15.53 1 14.33 1.47 11.07 1.6 10.68 1.77 10.49 1.79 10.3 1.64 10.12 1.39 9.95 1.23 9.77 1.16 9.58 1.21 9.01 1.47 8.53 1.54 8.36 1.65 8.02 1.97 7.8 2.09 7.33 2.09 6.18 2.08 4.1 2.72 3.02 3.49 2.57 3.63 2.19 3.67 2.2 3.69 2.31 3.85 2.45 4.01 2.52 4.08 3.02 4.38 3.58 4.58 3.82 4.74 3.98 4.89 4.08 5.03 4.13 5.11 4.17 5.19 4.19 5.25 4.32 5.91 4.41 6.18 4.46 6.25 4.54 6.33 4.97 6.55 5.03 6.59 5.09 6.66 5.15 6.78 5.17 6.87 5.19 7.04 5.22 7.19 5.3 7.38 5.39 7.56 5.41 7.63 5.43 7.7 5.44 7.77 5.43 7.85 5.41 7.92 5.36 8.09 5.33 8.15 5.27 8.25 5.18 8.35 4.99 8.52 4.9 8.62 4.83 8.73 4.7 8.98 4.6 9.26 4.53 9.37 2.94 11.22 0.18 13.71 0.15 13.76 0.13 13.82 0.13 13.89 0.14 13.96 0.23 14.04 0.38 14.13 1.46 14.57 2.06 14.99 2.25 15.18 2.28 15.23 2.65 15.62 2.84 15.77 3.61 16.19 4.53 16.54 4.62 16.61 4.76 16.74 4.83 16.82 4.88 16.89 4.94 17 5.21 17.61 5.47 17.99 5.56 18.09 5.61 18.13 5.7 18.18 6.1 18.3 6.37 18.33 6.86 18.21 7.09 18.11 7.27 17.99 7.35 17.9 7.47 17.73 7.93 16.91 8.24 16.19 8.26 16.11 8.46 15.55 8.57 15.29 8.61 15.24 8.66 15.2 8.72 15.16 8.78 15.15 8.86 15.15 9.96 15.65 10.02 15.71 10.09 15.81 10.13 15.89 10.21 16.17 10.26 16.3 10.32 16.42 10.46 16.65 10.84 16.98 10.93 17.09 11.09 17.45 11.15 17.65 11.18 17.71 11.24 17.83 11.3 17.92 11.33 17.95 11.4 18 11.9 18.23 13.25 18.46 13.33 18.5 13.43 18.56 13.55 18.7 13.61 18.79 13.64 18.88 13.64 18.96 13.63 19.04 13.62 19.12 13.6 19.2 13.57 19.27 13.52 19.4 13.44 19.51 13.4 19.55 13.3 19.64 13.2 19.72 12.96 19.83 12.68 19.91 12.59 19.96 12.53 20 12.48 20.06 12.45 20.12 12.43 20.19 12.42 20.27 12.44 20.42 12.47 20.56 13.45 23.92 13.5 24.21 13.52 24.36 13.51 24.45 13.51 24.53 13.49 24.61 13.46 24.68 13.4 24.79 13.17 25.12 13.11 25.24 13.08 25.31 13.06 25.38 13.05 25.46 13.04 25.54 13.04 25.62 13.07 25.77 13.11 25.89 14.13 27.7 14.15 27.76 14.17 27.83 14.18 27.9 14.18 27.98 14.15 28.14 14.14 28.31 14.14 28.39 14.16 28.47 14.2 28.64 14.28 28.86 14.54 29.31 15.14 30.14 15.31 30.28 15.61 30.46 15.71 30.55 16.04 30.94 16.25 31.13 16.37 31.19 16.48 31.21 16.61 31.19 16.69 31.16 16.8 31.08 16.86 31.05 16.93 31.05 17.01 31.07 17.08 31.13 17.12 31.19 17.24 31.36 17.35 31.49 17.45 31.58 17.56 31.65 17.68 31.71 17.79 31.74 18.6 31.75 19.19 31.65 19.29 31.66 19.4 31.68 19.58 31.75 19.73 31.83 19.76 31.87 19.84 31.97 20.11 32.4 20.19 32.5 20.23 32.54 20.29 32.58 20.49 32.65 20.73 32.67 21.07 32.63 21.89 32.4 22 32.34 22.05 32.29 22.09 32.24 22.13 32.19 22.15 32.13 22.17 32.05 22.19 31.98 22.21 31.71 22.24 31.55 22.29 31.42 22.36 31.31 22.4 31.26 22.45 31.22 22.5 31.19 22.63 31.14 22.78 31.11 23.94 31.27 25.26 30.91 25.36 30.93 25.49 30.97 25.87 31.18 26.11 31.4 26.29 31.52 26.5 31.57 26.84 31.58 27 31.55 27.25 31.45 27.47 31.32 27.51 31.27 27.55 31.22 27.57 31.15 27.59 31.07 27.61 30.9 27.65 30.74 27.67 30.68 27.7 30.61 27.75 30.57 27.8 30.54 27.93 30.5 28.11 30.48 29.49 30.82 30.3 30.41 30.79 30.41 30.85 30.39 30.89 30.34 30.92 30.28 31.01 29.98 31.04 29.92 31.08 29.87 31.16 29.77 31.25 29.69 31.7 29.44 31.75 29.4 31.79 29.35 31.81 29.28 31.82 29.2 31.83 29.04 31.84 28.97 31.86 28.89 31.88 28.82 31.91 28.75 31.95 28.7 32 28.66 32.05 28.64 32.11 28.61 32.48 28.55 32.59 28.49 32.68 28.4 32.75 28.28 32.78 28.22 32.8 28.15 32.81 28.07 32.82 27.98 32.81 27.58 32.82 27.49 32.84 27.41 32.86 27.34 32.9 27.28 32.93 27.23 32.97 27.18 33.02 27.14 33.08 27.11 33.14 27.08 33.21 27.07 33.36 27.05 35.09 27.5 35.53 27.78 36.37 28.51 36.61 28.83 36.81 29.19 36.89 29.37 36.94 29.5 36.99 29.78 37.02 29.91 37.06 30 37.13 30.1 37.73 30.71 37.85 30.91 38.02 31.25 38.06 31.35 38.13 31.62 38.19 31.74 38.33 31.91 38.95 32.46 39 32.5 39.16 32.45 39.37 32.55 39.44 32.79 39.47 33.09 39.6 33.37 39.75 33.44 39.94 33.5 40.08 33.61 40.05 33.83 40.32 33.81 40.4 33.83 40.52 33.89 40.55 33.91 40.53 33.97 40.52 34.15 40.59 34.36 40.91 34.62 40.98 34.78 40.99 34.91 41.02 35.05 41.05 35.3 41.09 35.4 41.13 35.48 41.15 35.56 41.14 35.82 41.06 36.05 40.95 36.24 40.8 36.38 40.86 36.47 40.84 36.52 40.69 36.6 40.64 36.7 40.63 36.83 40.6 36.95 40.52 37.02 40.37 36.81 40.28 36.72 40.23 36.79 40.22 36.91 40.17 37.03 40.12 37.12 40.05 37.2 39.99 37.14 39.92 37.12 39.84 37.14 39.77 37.2 39.83 37.26 39.87 37.32 39.95 37.47 39.81 37.58 39.4 38.02 39.31 38.15 39.2 38.39 38.74 38.38 38.62 38.55 38.69 38.69 39 39.09 39.08 39.33 39.03 39.4 38.86 39.59 38.88 39.64 38.92 39.71 39.02 40.1 39.09 40.63 39.08 41.09 38.95 41.46 38.62 41.72 38.51 41.76 38.35 41.77 38.27 41.81 38.21 41.91 38.12 42.13 38.08 42.18 38 42.2 37.9 42.26 37.8 42.33 37.76 42.4 37.72 42.53 37.61 42.59 37.21 42.68 37.11 42.75 37.07 42.84 37.1 43.15 37.09 43.3 37.04 43.3 36.84 43.14 36.74 43.31 36.66 43.97 36.6 44.21 36.54 44.35 36.46 44.41 36.38 44.45 36.28 44.53 36.19 44.63 36.15 44.74 36.13 44.9 36.07 44.97 36.02 45.03 35.98 45.14 36.01 45.24 36.08 45.34 36.1 45.43 35.98 45.5 36.01 45.7 35.93 45.84 35.8 45.91 35.52 45.98 35.17 46.3 35.31 46.57 35.17 46.77 34.94 46.83 34.82 46.66 34.71 46.77 34.6 46.92 34.51 47.08 34.48 47.2 34.5 47.21 34.63 47.49 34.65 47.55 34.75 47.59 34.95 47.59 35.05 47.64 34.9 47.78 34.74 47.8 34.39 47.74 34.34 47.79 34.4 47.89 34.5 47.99 34.53 48.01 34.6 48.07 34.66 48.11 34.72 48.16 34.77 48.27 34.71 48.39 34.64 48.48 34.56 48.52 34.45 48.54 34.37 48.6 34.25 48.88 34.19 48.98 33.97 49.02 33.86 49.08 33.87 49.21 33.95 49.31 34.12 49.44 34.19 49.52 34.17 49.74 34.28 49.91 34.35 50.05 34.19 50.23 34.26 50.43 34.11 50.52 33.89 50.62 33.78 50.8 33.83 50.91 33.92 50.97 34.03 51.02 34.1 51.08 34.16 51.22 34.17 51.36 34.13 51.65 34.13 52.76 34.1 52.85 34.03 52.95 33.94 53.04 33.87 53.07 33.79 53.03 33.65 52.85 33.56 52.81 33.34 52.91 33.39 53.17 33.53 53.39 33.66 53.37 33.76 53.45 33.93 53.64 33.98 53.74 34.02 53.92 34.08 54.05 34.14 54.12 34.21 54.16 34.27 54.23 34.3 54.4 34.25 54.38 34.16 54.51 34.12 54.67 34.22 54.75 34.22 54.9 34.53 55.72 34.51 55.87 34.35 56.2 34.3 56.34 34.31 56.49 34.4 56.8 34.42 56.95 34.35 57.23 34.23 57.48 34.16 57.69 34.25 57.83 34.2 57.96 34.16 58.03 34.13 58.01 34.13 58.02 34.12 58.27 34.13 58.28 34.13 58.34 34.18 58.38 34.19 58.45 34.16 58.52 34.09 58.63 34.05 58.74 33.97 58.84 33.89 58.94 33.81 58.98 33.75 59.03 33.67 59.3 33.62 59.41 33.43 59.56 33.24 59.61 32.81 59.59 32.72 59.54 32.64 59.42 32.55 59.24 31.91 59.22 31.47 59.07 31.23 59.06 31.15 59.1 31.09 59.2 31.04 59.32 31.03 59.45 31 59.59 30.93 59.68 30.85 59.76 30.8 59.86 30.81 60.3 30.79 60.56 30.71 60.77 30.59 60.95 30.5 61.15 29.76 63.26 29.57 63.48 29.52 63.6 29.42 63.96 29.21 64.37 29.12 64.62 29.14 64.82 29.09 64.96 29.07 65.16 29.07 65.56 29.05 65.75 28.99 65.93 28.85 66.22 28.41 66.78 28.36 66.93 28.38 67.08 28.5 67.43 28.38 67.66 28.41 67.88 28.46 68.1 28.41 68.34 28.35 68.55 28.32 69.09 28.27 69.33 28.49 69.55 28.59 70.02 28.62 71.01 28.5 71.39 28.46 71.44 28.33 71.57 28.32 71.66 28.32 71.73 28.33 71.78 28.33 71.82 28.3 72.18 28.27 72.35 28.18 72.43 28.05 72.47 27.95 72.57 27.9 72.38 27.89 72.26 27.87 72.18 27.84 72.09 27.8 72.02 27.75 71.97 27.47 71.78 27.43 71.73 27.41 71.67 27.39 71.61 27.39 71.55 27.39 71.47 27.4 71.25 27.39 71.18 27.37 71.12 27.34 71.07 27.3 71.03 27.22 70.94 27.21 70.9 27.21 70.85 27.21 70.79 27.21 70.72 27.19 70.66 27.17 70.61 27.1 70.51 27.07 70.45 27.02 70.34 26.99 70.29 26.95 70.24 26.86 70.16 26.8 70.06 26.77 70.01 26.64 69.8 26.56 69.56 26.53 69.44 26.52 69.3 26.53 69.22 26.55 69.06 26.57 68.62 26.55 68.55 26.48 68.39 26.46 68.33 26.45 68.26 26.46 68.19 26.48 68.04 26.48 67.97 26.47 67.9 26.45 67.84 26.42 67.79 26.23 67.48 26.02 67.26 25.95 67.25 25.86 67.29 24.55 68.33 21.61 71.57 20.35 73.29 20.12 73.49 19.6 73.87 18.39 74.39 17.97 74.64 17.91 74.7 17.85 74.77 17.78 74.9 17.73 74.99 17.55 75.62 17.35 76.12 17.24 76.29 16.31 77.02 13.81 78.41 13.18 78.97 11.86 79.8 11.79 79.91 11.7 80.06 11.42 80.74 11.27 81.3 11.2 81.41 10.6 82.08 10.52 82.27 10.88 82.84 11.21 83.26 11.32 83.43 11.61 84.26 11.66 84.35 11.93 84.74 12.37 85.15 12.57 85.29 13.53 85.71 13.63 85.77 13.73 85.85 13.81 85.94 15.48 88.31 15.75 88.58 16.12 88.85 16.55 89.1 16.8 89.2 17.07 89.27 17.14 89.23 17.22 89.16 17.52 88.76 17.64 88.64 17.75 88.59 18.13 88.52 18.21 88.48 18.28 88.4 18.49 87.88 18.6 87.69 18.7 87.6 18.79 87.58 19.21 87.68 19.37 87.76 19.44 87.89 19.44 88.08 19.4 88.35 19.45 88.42 19.51 88.51 19.61 88.59 19.74 88.62 19.9 88.63 20.05 88.6 20.11 88.52 20.12 88.39 20.16 88.21 20.23 88 20.3 87.9 20.37 87.87 20.47 87.87 20.49 87.95 20.65 88.3 20.65 88.37 20.58 88.41 20.54 88.48 20.51 88.58 20.5 88.67 20.53 88.71 20.76 88.72 20.76 88.76 20.72 88.87 20.61 89.11 20.01 90.12 18.84 91.26 18.79 91.3 18.68 91.35 18.62 91.36 17.95 91.4 17.34 91.31 16.3 90.97 16.04 90.94 15.93 90.95 15.81 90.99 15.67 91.09 15.65 91.11 15.62 91.15 15.59 91.2 15.57 91.28 15.55 91.34 15.54 91.41 15.54 91.48 15.54 91.63 15.58 92.22 15.57 92.44 15.52 92.75 15.39 93.16 15.37 93.25 15.38 93.38 15.41 93.59 15.79 94.31 16.86 95.85 16.93 95.74 17 95.64 17.11 95.5 17.2 95.42 17.3 95.35 17.41 95.31 17.47 95.29 17.6 95.29 17.68 95.3 18.23 95.58 18.5 95.66 21.9 95.36 22.02 95.33 22.77 94.99 22.85 95.02 22.93 95.08 22.99 95.14 23.02 95.25 23.12 95.28 23.22 95.21 23.27 95.09 23.29 95.05 23.34 95 23.39 94.97 23.44 94.96 23.52 94.97 23.54 94.99 23.54 95.04 23.55 95.13 23.56 95.27 23.54 95.43 23.54 95.61 23.61 95.8 23.54 95.97 23.55 96.18 23.61 96.38 23.67 96.54 23.7 96.56 23.74 96.54 23.77 96.54 23.78 96.58 23.78 96.71 23.79 96.78 23.84 96.9 23.89 97.02 23.91 97.15 23.87 97.2 23.87 97.32 23.91 97.57 23.99 97.83 24.1 97.94 24.19 97.99 24.23 98.09 24.22 98.2 24.18 98.28 24.09 98.33 24 98.3 23.91 98.3 23.84 98.44 23.95 98.54 23.91 98.63 23.8 98.7 23.73 98.77 23.68 98.92 23.67 99.08 23.69 99.22 23.73 99.35 23.88 99.53 24.33 99.84 24.42 100.05 24.39 100.22 24.27 100.41 24.25 100.54 24.29 100.65 24.36 100.72 24.4 100.8 24.33 100.95 24.24 101.02 24.13 101.06 24.05 101.12 24.01 101.28 24.08 101.35 24.42 101.53 24.53 101.57 24.49 101.63 24.47 101.68 24.44 101.7 24.36 101.72 24.64 101.89 24.76 101.99 24.88 102.14 24.9 102.22 24.94 102.43 24.96 102.47 25.13 102.48 25.2 102.5 25.28 102.55 25.14 102.73 25.08 102.92 25.15 103.03 25.39 103.04 25.58 102.95 25.7 102.85 25.77 102.88 25.8 103.17 25.86 103.28 26.1 103.42 26.11 103.49 26.09 103.61 26.13 103.76 26.2 103.89 26.28 103.95 26.69 103.93 26.86 104 26.95 104.19 26.93 104.23 26.85 104.37 26.83 104.44 26.84 104.51 26.86 104.56 26.89 104.6 26.91 104.72 26.93 104.82 26.98 104.91 27.06 105 27.22 105.07 27.38 105.04 27.54 104.97 27.72 104.93 27.91 105.02 28.12 105.41 28.3 105.5 28.51 105.51 28.62 105.5 28.7 105.46 28.75 105.33 28.75 105.21 28.76 105.1 28.85 105 29.03 105.12 29.2 105.13 29.56 105.08 29.96 105.08 30.07 105.05 30.24 104.87 30.34 104.84 30.38 104.88 30.41 104.96 30.45 105.08 30.49 105.09 30.59 105.08 30.83 105.15 31.03 105.17 31.13 105.16 31.22 105.11 31.29 105.02 31.32 104.89 31.31 104.85 31.29 104.83 31.27 104.8 31.26 104.73 31.27 104.63 31.31 104.58 31.35 104.55 31.37 104.51 31.41 104.27 31.43 104.17 31.49 104.11 31.58 104.1 31.68 104.16 31.75 104.27 31.77 104.4 31.88 104.56 32.12 104.57 32.52 104.51 32.64 104.58 32.66 104.63 32.65 104.7 32.64 104.84 32.66 105.07 32.69 105.15 32.78 105.29 32.91 105.41 32.96 105.49 32.98 105.62 32.98 105.81 32.99 105.85 33.04 105.81 33.16 105.74 34.24 105.52 34.38 105.53 34.53 105.58 34.61 105.63 34.65 105.67 34.69 105.68 34.77 105.66 34.82 105.61 34.83 105.53 34.87 105.48 34.99 105.5 35.28 105.68 35.44 105.7 35.63 105.58 35.74 105.39 35.84 104.95 35.92 104.77 36.08 104.67 36.27 104.72 36.47 104.81 36.66 104.84 36.85 104.78 37.36 104.44 37.48 104.4 37.82 104.44 37.9 104.42 38.06 104.35 38.16 104.35 38.15 104.36 38.17 104.47 38.17 104.58 38.22 104.8 38.22 104.86 38.21 105.08 38.22 105.14 38.26 105.32 38.27 105.38 38.28 105.52 38.27 105.79 38.24 105.94 38.22 106.02 38.21 106.1 38.21 106.17 38.21 106.23 38.23 106.29 38.36 106.51 38.42 106.67 38.46 106.74 38.55 106.85 38.94 107.2 38.98 107.24 39.07 107.39 39.1 107.44 39.34 107.65 39.93 107.99 40.1 108.05 40.41 108.11 41.95 108.76 42.09 108.67 42.14 108.64 42.2 108.63 42.27 108.63 42.49 108.65 42.62 108.63 42.72 108.59 42.85 108.47 43.01 108.39 43.05 108.35 43.11 108.25 43.14 108.23 43.17 108.22 43.2 108.23 43.27 108.27 43.33 108.27 43.4 108.26 43.51 108.22 43.6 108.16 43.9 107.88 44 107.81 44.1 107.76 44.22 107.73 44.42 107.72 44.48 107.72 44.71 107.64 45.38 107.51 45.44 107.52 45.9 107.68 45.96 107.72 46.02 107.77 46.26 108.06 46.3 108.1 46.36 108.13 46.64 108.22 47 108.38 47.08 108.43 47.18 108.52 47.3 108.67 47.36 108.71 47.42 108.72 47.7 108.74 47.76 108.73 47.81 108.71 47.87 108.69 47.99 108.67 48.14 108.69 48.29 108.72 48.56 108.81 48.62 108.82 48.68 108.85 48.73 108.91 48.76 108.97 48.8 109.08 48.91 109.58 48.98 109.78 49.37 110.35 49.46 110.56 49.6 110.82 49.64 110.92 49.72 111.22 49.72 111.29 49.72 111.39 49.66 111.61 49.63 111.67 49.59 111.69 49.28 111.83 49.19 111.9 49.11 111.98 49.06 112.05 49.01 112.15 48.93 112.34 48.89 112.49 48.9 112.59 48.92 112.72 48.99 112.93 49.07 113.1 49.33 113.57 49.34 113.61 49.38 113.86 49.38 114.15 49.35 114.64 49.35 114.71 49.38 114.93 49.42 115.09 49.45 115.17 49.56 115.31 49.82 115.27 49.92 115.17 49.97 115.03 50.06 114.82 50.17 114.64 50.24 114.56 50.31 114.51 50.37 114.49 50.52 114.47 50.63 114.47 50.67 114.49 50.71 114.5 50.79 114.56 50.83 114.61 50.86 114.65 50.95 114.87 50.98 114.92 51.03 114.96 51.1 115 51.21 115.02 51.29 115.01 51.35 114.99 51.44 114.91 51.47 114.86 51.69 114.73 51.97 114.61 52.11 114.58 52.22 114.58 52.5 114.71 52.8 114.96 52.85 115 52.92 115.03 53.21 115.09 53.29 115.13 53.68 115.37 53.74 115.42 53.77 115.46 53.78 115.49 53.81 115.59 53.83 115.65 53.86 115.7 53.95 115.82 53.97 115.87 53.95 115.9 53.93 115.92 53.88 115.93 53.67 115.93 53.61 115.94 53.56 115.97 53.46 116.03 53.42 116.06 53.38 116.11 53.35 116.17 53.34 116.22 53.34 116.29 53.34 116.35 53.41 116.54 53.41 116.57 53.42 116.64 53.42 116.7 53.41 116.77 53.37 116.91 53.24 117.24 53.22 117.3 53.21 117.37 53.24 117.45 53.3 117.55 53.53 117.8 53.58 117.87 53.71 118.19 54.21 118.88 54.24 118.93 54.26 118.99 54.24 119.13 54.19 119.35 54.18 119.43 54.17 119.49 54.18 119.55 54.19 119.59 54.19 119.6 54.59 120.03 54.73 120.14 54.83 120.2 54.96 120.2 55.04 120.23 55.07 120.28 55.09 120.34 55.1 120.47 55.13 120.58 55.32 121.16 55.61 121.36 56.2 121.51 57.51 121.04 57.69 120.93 57.8 120.84 57.86 120.77 57.9 120.7 57.92 120.62 57.94 120.55 57.94 120.42 57.91 119.59 57.87 119.32 57.88 119.24 57.9 119.13 57.95 118.96 57.96 118.79 57.93 118.62 57.86 118.39 57.83 118.19 57.85 117.99 57.91 117.92 58 117.93 58.17 118.1 58.31 118.18 58.45 118.21 58.61 118.18 58.77 118.04 58.86 117.87 58.96 117.46 59.04 117.23 59.12 117.11 59.2 117.02 59.66 116.71 60.16 116.42 60.48 116.3 60.52 116.31 60.57 116.34 60.75 116.55 60.98 116.91 61.01 116.98 61.08 117.19 61.15 117.48 61.25 118.15 61.25 118.48 61.13 119.61 61.13 119.79 61.15 120.14 61.18 120.25 61.21 120.37 61.26 120.47 61.34 120.59 61.43 120.7 61.76 121.01 61.85 121.12 61.9 121.23 61.94 121.36 61.99 121.66 62.04 121.83 62.11 121.99 62.51 122.61 62.76 123.18 62.87 123.31 63.2 123.58 63.29 123.68 63.35 123.8 63.46 124.04 63.52 124.15 63.74 124.46 63.77 124.52 63.79 124.58 63.84 124.82 63.87 125.06 63.85 125.42 63.86 125.48 63.88 125.53 63.94 125.63 64.06 125.75 64.33 126.12 64.41 126.27 64.47 126.42 64.61 126.87 64.66 126.97 64.73 127.12 64.8 127.22 64.83 127.26 64.87 127.3 64.94 127.33 65.04 127.34 65.38 127.3 65.45 127.31 65.52 127.36 65.66 127.48 65.72 127.51 65.79 127.53 65.88 127.52 65.98 127.49 67.23 126.89 67.63 126.78 67.73 126.73 67.78 126.7 67.81 126.66 67.84 126.6 67.85 126.55 67.84 126.52 67.82 126.43 67.75 126.27 67.7 126.12 67.67 125.98 67.67 125.92 67.67 125.85 67.68 125.78 67.69 125.72 67.69 125.64 67.69 125.64 67.69 125.63 67.7 125.57 67.69 125.45 67.67 125.32 67.67 125.2 67.67 125.13 67.68 125.06 67.7 124.99 67.72 124.92 67.79 124.81 67.86 124.72 67.95 124.64 68.24 124.47 68.35 124.44 68.79 124.4 68.9 124.36 69.36 124.02 69.87 123.78 70.34 123.67 72.17 123.62 72.33 123.56 72.38 123.53 72.42 123.5 72.46 123.44 72.49 123.38 72.51 123.32 72.53 123.17 72.54 123.04 72.55 122.77 72.56 122.62 72.57 122.62 72.59 122.56 72.62 122.52 72.66 122.48 72.8 122.38 73.11 122.12 73.3 122 73.52 121.91 73.62 121.93 73.77 122 74.25 122.35 74.3 122.46 74.34 122.63 74.36 122.75 74.4 123.45 74.41 123.58 74.44 123.69 74.47 123.74 74.49 123.79 74.53 123.84 74.6 123.88 74.71 123.93 74.92 123.97 75.04 123.98 75.12 123.95 75.16 123.92 75.24 123.83 75.47 123.44 75.66 123.2 75.92 122.98 76.02 122.93 76.36 122.82 76.45 122.77 76.5 122.73 76.54 122.69 76.57 122.64 76.6 122.57 76.86 121.79 76.92 121.68 76.97 121.62 77.01 121.6 77.05 121.61 77.11 121.67 77.13 121.72 77.14 121.77 77.16 121.94 77.16 122.01 77.15 122.15 77.03 122.74 77.03 122.88 77.04 123 77.07 123.11 77.11 123.22 77.18 123.38 77.26 123.59 77.29 123.71 77.3 123.83 77.33 123.94 77.34 124 77.35 124.07 77.34 124.33 77.35 124.39 77.37 124.51 77.38 124.57 77.42 124.67 77.51 124.82 77.68 125.03 77.72 125.07 77.73 125.12 77.74 125.16 77.73 125.22 77.72 125.28 77.6 125.61 77.58 125.68 77.58 125.75 77.58 125.82 77.59 125.88 77.61 125.93 77.72 126 79.19 126.47 79.45 126.61 79.49 126.65 79.61 126.8 79.93 127.11 80.14 127.25 80.49 127.43 80.59 127.5 80.94 127.82 81.01 127.9 81.13 128.1 81.17 128.21 81.21 128.38 81.27 128.53 81.3 128.58 81.34 128.62 81.38 128.66 81.45 128.67 81.56 128.67 81.76 128.61 81.86 128.57 81.94 128.52 82.59 127.86 82.67 127.84 82.75 127.85 82.99 127.94 83.51 128.61 83.6 128.68 83.68 128.72 83.77 128.72 83.89 128.68 84.42 128.4 84.61 128.33 84.76 128.3 84.04 127.7 83.99 127.57 84.03 127.38 84.2 127.09 84.25 126.93 84.24 126.84 84.17 126.63 84.15 126.53 84.16 126.45 84.21 126.24 84.22 126.14 84.2 126.03 84.13 125.82 84.11 125.71 84.11 125.62 84.13 125.34 84.07 124.7 84.09 124.49 84.26 123.78 84.46 123.22 84.47 123.02 84.39 122.63 84.37 122.45 84.43 122.24 84.43 122.08 84.47 121.97 84.61 121.8 84.75 121.68 84.83 121.62 84.86 121.53 84.03 117.87 83.19 114.19 82.82 113.42 82.7 113.3 82.4 113.08 82.05 112.5 82.08 112.3 82.4 112.16 82.56 112.16 82.71 112.13 82.85 112.06 82.97 111.92 82.99 111.82 82.98 111.64 83.02 111.55 83.07 111.51 83.44 111.39 83.56 111.39 83.68 111.43 83.82 111.54 83.97 111.6 84.12 111.58 84.69 111.36 84.81 111.28 85.16 110.95 85.27 110.86 85.41 110.82 85.58 110.81 86.16 110.92 86.28 110.89 86.36 110.77 86.43 110.63 86.55 110.52 86.6 110.47 87.75 109.37 87.84 109.21 87.86 108.97 87.72 108.69 87.72 108.48 87.8 108.24 87.91 108.08 88.05 107.99 88.24 107.95 88.61 107.96 88.71 107.88 89.23 106.82 89.5 106.49 89.8 106.43 89.95 106.56 90.03 106.76 90.09 106.98 90.2 107.2 90.31 107.35 90.46 107.49 90.61 107.59 90.77 107.66 90.78 107.66 94.43 108.7 98.08 109.73 98.76 110.11 99.03 110.15 99.14 110.09 99.36 109.86 99.62 109.74 99.84 109.47 100.04 109.36 100.25 109.16 100.39 108.98 100.44 108.88 100.47 108.76 100.49 108.59 100.44 108.26 100.32 107.89 100.24 107.55 100.32 107.3 100.28 107.03 100.49 105.86 100.5 105.65 100.54 105.45 100.6 105.27 100.93 104.57 101.01 104.44 101.12 104.36 101.44 104.22 101.7 104.16 101.93 103.99 102.19 103.91 102.47 103.68 102.57 103.62 102.89 103.62 102.99 103.53 102.91 103.3 103.01 103.12 103.13 103.05 103.27 103.03 103.43 102.97 103.38 102.91 103.3 102.77 103.25 102.72 103.47 102.55 103.55 102.42 103.52 102.26 103.42 102.18 103.21 102.11 103.14 101.99 103.37 101.76 103.49 101.28 103.71 101.16 103.65 101.05 103.48 100.95 103.43 100.83 103.43 100.66 103.49 100.56 103.57 100.5 103.61 100.46 103.64 100.16 103.74 99.95 103.88 99.85 104.06 99.84 104.11 99.88 104.16 99.94 104.21 99.99 104.29 100.01 104.34 99.99 104.34 99.95 104.33 99.89 104.34 99.84 104.48 99.72 104.51 99.64 104.52 99.47 104.54 99.35 104.61 99.27 104.69 99.25 104.88 99.37 104.95 99.29 105.25 98.23 105.47 97.73 105.46 97.55 105.27 97.11 105.19 96.79 105.29 96.7 105.47 96.69 105.64 96.58 105.85 96.36 105.93 96.25 105.98 96.13 106.02 96.01 106.08 95.92 106.19 95.88 106.25 95.92 106.31 96.09 106.39 96.13 106.44 96.08 106.58 95.88 106.65 95.8 106.6 95.65 106.72 95.55 106.89 95.47 107 95.38 106.99 95.14 106.93 94.98 106.92 94.86 107.11 94.72 107.03 94.61 106.94 94.55 106.85 94.56 106.76 94.64 106.67 94.4 106.81 94.23 107.19 94.02 107.26 93.78 107.16 93.54 106.98 93.34 106.82 93.22 106.73 93.18 106.65 93.17 106.59 93.13 106.54 92.98 106.52 92.81 106.55 92.69 106.91 92.1 106.94 91.99 106.97 91.68 107 91.56 107.15 91.36 107.54 91.1 107.71 90.93 107.8 90.78 107.86 90.68 107.94 90.44 108.03 89.89 108.17 89.38 108.19 89.14 108.11 88.92 107.99 88.72 107.95 88.56 107.99 88.38 108.34 87.49 108.38 87.25 108.38 86.74 108.39 86.58 108.44 86.49 108.49 86.44 108.55 86.36 108.77 85.66 108.86 85.48 109.04 85.35 109.47 85.3 109.64 85.19 109.72 84.9 109.63 84.66 109.48 84.44 109.41 84.22 109.45 83.97 109.47 83.83 109.44 83.76 109.38 83.72 109.23 83.51 109.17 83.42 109.11 83.18 109.16 83.01 109.24 82.82 109.29 82.53 109.36 82.32 109.52 82.19 109.87 81.98 109.97 81.83 110.16 81.45 110.27 81.3 110.44 81.17 110.61 81.1 110.78 81.06 110.99 81.05 111.08 81.02 111.19 80.96 111.3 80.94 111.48 81.06 111.78 81.07 111.88 81.05 112.01 80.94 112.31 80.61 112.49 80.54 112.52 80.41 112.88 79.84 112.97 79.73 113.05 79.57 113.42 79.27 113.54 79.1 113.57 78.84 113.58 78.56 113.63 78.34 113.81 78.25 113.9 78.16 114.3 77.57 114.23 77.48"/></g></g></svg>